<?xml version="1.0" encoding="UTF-8" standalone="no"?>
<!-- Created with Inkscape (http://www.inkscape.org/) -->

<svg
   xmlns:ns="http://www.iki.fi/pav/software/textext/"
   xmlns:ns1="https://launchpad.net/jessyink"
   xmlns:osb="http://www.openswatchbook.org/uri/2009/osb"
   xmlns:dc="http://purl.org/dc/elements/1.1/"
   xmlns:cc="http://creativecommons.org/ns#"
   xmlns:rdf="http://www.w3.org/1999/02/22-rdf-syntax-ns#"
   xmlns:svg="http://www.w3.org/2000/svg"
   xmlns="http://www.w3.org/2000/svg"
   xmlns:xlink="http://www.w3.org/1999/xlink"
   xmlns:sodipodi="http://sodipodi.sourceforge.net/DTD/sodipodi-0.dtd"
   xmlns:inkscape="http://www.inkscape.org/namespaces/inkscape"
   width="103.25451mm"
   height="92.769814mm"
   viewBox="0 0 365.86243 328.71194"
   id="svg32283"
   version="1.1"
   inkscape:version="0.91 r13725"
   sodipodi:docname="triangle.svg">
  <sodipodi:namedview
     id="base"
     pagecolor="#ffffff"
     bordercolor="#666666"
     borderopacity="1.0"
     inkscape:pageopacity="0.0"
     inkscape:pageshadow="2"
     inkscape:zoom="0.98994949"
     inkscape:cx="234.9279"
     inkscape:cy="103.22275"
     inkscape:document-units="px"
     inkscape:current-layer="layer1"
     showgrid="false"
     inkscape:window-width="1920"
     inkscape:window-height="1056"
     inkscape:window-x="1080"
     inkscape:window-y="500"
     inkscape:window-maximized="0"
     fit-margin-top="0"
     fit-margin-left="0"
     fit-margin-right="0"
     fit-margin-bottom="0" />
  <defs
     id="defs32285">
    <marker
       id="Arrow1Mstart-00"
       refY="0"
       refX="0"
       orient="auto"
       inkscape:stockid="Arrow1Mstart-00"
       overflow="visible"
       inkscape:collect="always"
       style="overflow:visible">
      <path
         id="path16973"
         d="M 0,0 5,-5 -12.5,0 5,5 0,0 Z"
         inkscape:connector-curvature="0"
         transform="matrix(0.4,0,0,0.4,4,0)"
         style="fill:url(#linearGradient26676);fill-rule:evenodd;stroke:url(#linearGradient26676);stroke-width:1pt" />
    </marker>
    <linearGradient
       id="linearGradient26670-3-0-6"
       gradientTransform="matrix(1.6972377,0,0,1.6972377,2775.6301,-603.44201)"
       osb:paint="solid">
      <stop
         id="stop26672-9-8-8"
         stop-color="#06f"
         offset="0" />
    </linearGradient>
    <marker
       id="Arrow1Mend-9Y"
       refY="0"
       refX="0"
       orient="auto"
       inkscape:stockid="Arrow1Mend-9Y"
       overflow="visible"
       inkscape:collect="always"
       style="overflow:visible">
      <path
         id="path20352"
         d="M 0,0 5,-5 -12.5,0 5,5 0,0 Z"
         inkscape:connector-curvature="0"
         transform="matrix(-0.4,0,0,-0.4,-4,0)"
         style="fill:url(#linearGradient224332);fill-rule:evenodd;stroke:url(#linearGradient224332);stroke-width:1pt" />
    </marker>
  </defs>
  <metadata
     id="metadata32288">
    <rdf:RDF>
      <cc:Work
         rdf:about="">
        <dc:format>image/svg+xml</dc:format>
        <dc:type
           rdf:resource="http://purl.org/dc/dcmitype/StillImage" />
        <dc:title></dc:title>
      </cc:Work>
    </rdf:RDF>
  </metadata>
  <g
     id="layer1"
     inkscape:groupmode="layer"
     inkscape:label="Ebene 1"
     transform="translate(-89.689525,-263.02653)">
    <path
       id="path16285"
       d="m 387.18828,306.32314 c 0,0 0.0625,171.88 0,177.5 l 0,71.79 -159.4,0 -89.89,0 195.75,-195.75 z"
       sodipodi:nodetypes="ccccccc"
       inkscape:connector-curvature="0"
       style="display:inline;fill:none;stroke:#000000;stroke-width:1.5;stroke-miterlimit:4;stroke-dasharray:3, 1.5;stroke-dashoffset:1.5" />
    <g
       style="display:inline;opacity:0.33000004"
       id="g103588"
       transform="translate(-131.87675,179.11315)">
      <path
         style="fill:url(#linearGradient26670-3-0-6);stroke-width:1.80920005"
         sodipodi:nodetypes="cccccccc"
         inkscape:connector-curvature="0"
         inkscape:transform-center-y="-12.040437"
         inkscape:transform-center-x="2.6461463"
         d="m 544.92834,136.40549 1.41719,-7.37428 11.98609,17.62244 -21.29325,-0.90995 5.52289,-5.08801 C 516.5836,123.65305 486.98878,109.70942 486.98878,109.70942 l 2.36708,-4.25032 c 0,0 26.51983,17.20925 55.57134,30.94628 z"
         id="path128434-3-4-3" />
      <path
         id="path128540-6-3-9"
         d="m 537.654,148.51634 c -11.27805,3.54655 -27.6843,-2.82222 -36.64498,-14.22449 -8.96078,-11.40284 -7.08215,-23.52248 4.19567,-27.06892 11.27771,-3.54655 27.6843,2.82233 36.64498,14.22563 1.02644,1.30632 1.9282,2.64809 2.69253,4.00774"
         display="inline"
         inkscape:connector-curvature="0"
         style="display:inline;fill:none;stroke:url(#linearGradient26670-3-0-6);stroke-width:2.06495523;stroke-linecap:square;stroke-linejoin:bevel;marker-end:url(#Arrow1Mend-9Y)" />
    </g>
    <g
       style="display:inline;opacity:0.33000004"
       id="g103540"
       transform="translate(-131.87675,179.11315)">
      <path
         style="display:inline;fill:#e70e56"
         display="inline"
         inkscape:connector-curvature="0"
         sodipodi:nodetypes="cccccccc"
         d="m 251.50295,363.36299 -2.13773,7.19804 -10.18873,-18.71836 21.09887,3.00581 -5.99782,4.5179 c 24.172,19.48094 52.24518,36.27548 52.24518,36.27548 l -2.77475,3.99571 c 0,0 -24.69131,-19.74023 -52.24518,-36.27549 z"
         id="path16291" />
      <path
         style="display:inline;fill:none;stroke:#e70e56;stroke-width:0.83433622;stroke-linecap:square;stroke-linejoin:bevel;marker-start:url(#Arrow1Mstart-00)"
         inkscape:connector-curvature="0"
         sodipodi:nodetypes="csccc"
         display="inline"
         d="m 260.47814,352.57093 c 11.92248,-0.90631 26.05816,9.76419 31.82721,23.06924 5.76882,13.30534 0.87249,24.54909 -10.93595,25.1137 -11.80865,0.56453 -26.05816,-9.7642 -31.82713,-23.06947 -0.66092,-1.52445 -1.19201,-3.05121 -1.58586,-4.56026"
         id="path16297" />
    </g>
    <path
       id="path16772"
       sodipodi:rx="70.5"
       sodipodi:ry="70.5"
       sodipodi:end="6.2819718"
       style="color:#000000;display:inline;fill:none;stroke:#666666;stroke-width:1.39999998"
       sodipodi:start="5.4806301"
       sodipodi:type="arc"
       d="m 188.38671,504.41421 a 70.5,70.5 0 0 1 21.51151,50.6134"
       sodipodi:open="true"
       sodipodi:cy="555.11316"
       sodipodi:cx="139.39827"
       display="inline" />
    <g
       style="display:inline;opacity:0.33000004"
       id="g103572"
       transform="translate(-131.87675,179.11315)">
      <path
         style="fill:url(#linearGradient26670-3-0-6);stroke-width:1.80920005"
         sodipodi:nodetypes="cccccccc"
         inkscape:connector-curvature="0"
         inkscape:transform-center-y="-12.040437"
         inkscape:transform-center-x="2.6461463"
         d="m 544.46334,386.00549 1.41719,-7.37428 11.98609,17.62244 -21.29325,-0.90995 5.52289,-5.08801 C 516.1186,373.25305 486.52378,359.30942 486.52378,359.30942 l 2.36708,-4.25032 c 0,0 26.51983,17.20925 55.57134,30.94628 z"
         id="path85863" />
      <path
         id="path85869"
         d="m 537.189,398.11634 c -11.27805,3.54655 -27.6843,-2.82222 -36.64498,-14.22449 -8.96078,-11.40284 -7.08215,-23.52248 4.19567,-27.06892 11.27771,-3.54655 27.6843,2.82233 36.64498,14.22563 1.02644,1.30632 1.9282,2.64809 2.69253,4.00774"
         display="inline"
         inkscape:connector-curvature="0"
         style="display:inline;fill:none;stroke:url(#linearGradient26670-3-0-6);stroke-width:2.06495523;stroke-linecap:square;stroke-linejoin:bevel;marker-end:url(#Arrow1Mend-9Y)" />
    </g>
    <g
       ns1:effectOut="name:appear;order:3;length:100"
       ns1:effectIn="name:appear;order:2;length:800"
       id="g103604"
       style="display:inline;opacity:1"
       transform="translate(-131.87675,179.11315)">
      <path
         id="path103606"
         d="m 544.46334,386.00549 1.41719,-7.37428 11.98609,17.62244 -21.29325,-0.90995 5.52289,-5.08801 C 516.1186,373.25305 486.52378,359.30942 486.52378,359.30942 l 2.36708,-4.25032 c 0,0 26.51983,17.20925 55.57134,30.94628 z"
         inkscape:transform-center-x="2.6461463"
         inkscape:transform-center-y="-12.040437"
         inkscape:connector-curvature="0"
         sodipodi:nodetypes="cccccccc"
         style="fill:url(#linearGradient26670-3-0-6);stroke-width:1.80920005" />
      <path
         style="display:inline;fill:none;stroke:url(#linearGradient26670-3-0-6);stroke-width:2.06495523;stroke-linecap:square;stroke-linejoin:bevel;marker-end:url(#Arrow1Mend-9Y)"
         inkscape:connector-curvature="0"
         display="inline"
         d="m 537.189,398.11634 c -11.27805,3.54655 -27.6843,-2.82222 -36.64498,-14.22449 -8.96078,-11.40284 -7.08215,-23.52248 4.19567,-27.06892 11.27771,-3.54655 27.6843,2.82233 36.64498,14.22563 1.02644,1.30632 1.9282,2.64809 2.69253,4.00774"
         id="path103608" />
    </g>
    <g
       id="g103568"
       style="display:inline"
       transform="translate(-131.87675,179.11315)">
      <path
         style="fill:#556270;stroke-width:1.80920005"
         inkscape:connector-curvature="0"
         inkscape:transform-center-y="13.184579"
         inkscape:transform-center-x="7.8571429"
         d="m 513.66774,389.11016 c -7.24975,-2.69764 -10.93998,-10.76157 -8.24234,-18.01166 0.67441,-1.81247 1.68429,-3.40235 2.93289,-4.72561 1.24861,-1.32336 2.73599,-2.37998 4.36572,-3.12578 1.62972,-0.74581 3.06358,-1.15558 4.88107,-1.23548 1.8176,-0.0799 4.01918,0.17021 5.83164,0.84467 7.24964,2.69753 10.93986,10.76157 8.24222,18.01167 -2.69764,7.24975 -10.76157,10.93997 -18.01166,8.24233 z"
         sodipodi:nodetypes="ssssssss"
         id="path85865" />
      <ellipse
         style="fill:#95a2ae;stroke-width:1.80920005"
         cx="596.8017"
         cy="285.82391"
         ry="2.8465073"
         transform="matrix(0.98604733,0.16646522,-0.23767633,0.97134441,0,0)"
         rx="5.8892069"
         id="path85867" />
    </g>
    <g
       ns1:effectOut="name:appear;order:2;length:100"
       ns1:effectIn="name:appear;order:1;length:800"
       id="g103598"
       style="display:inline;opacity:1"
       transform="translate(-131.87675,179.11315)">
      <path
         id="path103600"
         d="m 544.92834,136.40549 1.41719,-7.37428 11.98609,17.62244 -21.29325,-0.90995 5.52289,-5.08801 C 516.5836,123.65305 486.98878,109.70942 486.98878,109.70942 l 2.36708,-4.25032 c 0,0 26.51983,17.20925 55.57134,30.94628 z"
         inkscape:transform-center-x="2.6461463"
         inkscape:transform-center-y="-12.040437"
         inkscape:connector-curvature="0"
         sodipodi:nodetypes="cccccccc"
         style="fill:url(#linearGradient26670-3-0-6);stroke-width:1.80920005" />
      <path
         style="display:inline;fill:none;stroke:url(#linearGradient26670-3-0-6);stroke-width:2.06495523;stroke-linecap:square;stroke-linejoin:bevel;marker-end:url(#Arrow1Mend-9Y)"
         inkscape:connector-curvature="0"
         display="inline"
         d="m 537.654,148.51634 c -11.27805,3.54655 -27.6843,-2.82222 -36.64498,-14.22449 -8.96078,-11.40284 -7.08215,-23.52248 4.19567,-27.06892 11.27771,-3.54655 27.6843,2.82233 36.64498,14.22563 1.02644,1.30632 1.9282,2.64809 2.69253,4.00774"
         id="path103602" />
    </g>
    <g
       id="g103584"
       style="display:inline"
       transform="translate(-131.87675,179.11315)">
      <path
         style="fill:#556270;stroke-width:1.80920005"
         inkscape:transform-center-x="7.8571429"
         inkscape:connector-curvature="0"
         inkscape:transform-center-y="13.184579"
         sodipodi:nodetypes="ssssssss"
         d="m 514.13274,139.51016 c -7.24975,-2.69764 -10.93998,-10.76157 -8.24234,-18.01166 0.67441,-1.81247 1.68429,-3.40235 2.93289,-4.72561 1.24861,-1.32336 2.73599,-2.37998 4.36572,-3.12578 1.62972,-0.74581 3.06358,-1.15558 4.88107,-1.23548 1.8176,-0.0799 4.01918,0.17021 5.83164,0.84467 7.24964,2.69753 10.93986,10.76157 8.24222,18.01167 -2.69764,7.24975 -10.76157,10.93997 -18.01166,8.24233 z"
         id="path128436-7-6-5" />
      <ellipse
         style="fill:#95a2ae;stroke-width:1.80920005"
         cx="537.77332"
         cy="38.976543"
         ry="2.8465073"
         transform="matrix(0.98604733,0.16646522,-0.23767633,0.97134441,0,0)"
         rx="5.8892069"
         id="path128438-7-5-2" />
    </g>
    <g
       ns1:effectOut="name:appear;order:1;length:100"
       id="g103592"
       style="display:inline;opacity:1"
       ns1:effectIn="name:appear;order:3;length:800"
       transform="translate(-131.87675,179.11315)">
      <path
         id="path103594"
         d="m 251.50295,363.36299 -2.13773,7.19804 -10.18873,-18.71836 21.09887,3.00581 -5.99782,4.5179 c 24.172,19.48094 52.24518,36.27548 52.24518,36.27548 l -2.77475,3.99571 c 0,0 -24.69131,-19.74023 -52.24518,-36.27549 z"
         sodipodi:nodetypes="cccccccc"
         inkscape:connector-curvature="0"
         display="inline"
         style="display:inline;fill:#e70e56" />
      <path
         id="path103596"
         d="m 260.47814,352.57093 c 11.92248,-0.90631 26.05816,9.76419 31.82721,23.06924 5.76882,13.30534 0.87249,24.54909 -10.93595,25.1137 -11.80865,0.56453 -26.05816,-9.7642 -31.82713,-23.06947 -0.66092,-1.52445 -1.19201,-3.05121 -1.58586,-4.56026"
         display="inline"
         sodipodi:nodetypes="csccc"
         inkscape:connector-curvature="0"
         style="display:inline;fill:none;stroke:#e70e56;stroke-width:0.83433622;stroke-linecap:square;stroke-linejoin:bevel;marker-start:url(#Arrow1Mstart-00)" />
    </g>
    <g
       id="g103544"
       style="display:inline"
       transform="translate(-131.87675,179.11315)">
      <path
         style="display:inline;fill:#556270"
         display="inline"
         inkscape:connector-curvature="0"
         sodipodi:nodetypes="csssssssc"
         d="m 256.55863,379.82065 c -1.92628,-7.49133 2.5849,-15.12549 10.07637,-17.05184 1.87281,-0.48142 3.75445,-0.56052 5.55389,-0.29145 1.79925,0.26925 3.51599,0.88656 5.0589,1.79851 1.54275,0.91178 2.55873,2.09489 3.66247,3.54108 1.10437,1.44581 2.29504,3.15575 2.77639,5.02877 1.92621,7.49118 -2.58501,15.12545 -10.07637,17.05184 -7.49123,1.92632 -15.12542,-2.58511 -17.05188,-10.07627 z"
         id="path16293" />
      <ellipse
         style="display:inline;fill:#95a2ae"
         display="inline"
         cx="432.10818"
         cy="201.15913"
         ry="2.8463361"
         transform="matrix(0.86998942,0.49307038,-0.55498472,0.83186054,0,0)"
         rx="5.8889179"
         id="path16295" />
    </g>
    <path
       ns1:effectIn="name:appear;order:2;length:800"
       id="path239741"
       style="display:inline;fill:#000000;fill-opacity:1;fill-rule:evenodd;stroke:#000000;stroke-width:1.50497854;stroke-opacity:1"
       d="m 393.31152,468.61605 -6.13792,16.40932 -5.95506,-16.47657 c 3.55523,2.64674 8.43949,2.65876 12.09298,0.0672 z"
       inkscape:connector-curvature="0" />
    <path
       id="path239745"
       style="display:inline;fill:#000000;fill-opacity:1;fill-rule:evenodd;stroke:#000000;stroke-width:1.50468421;stroke-opacity:1"
       d="m 243.02572,561.68408 -16.43999,-6.0454 16.43999,-6.0454 c -2.62642,3.5692 -2.61129,8.45249 0,12.0908 z"
       inkscape:connector-curvature="0"
       ns1:effectIn="name:appear;order:3;length:800" />
    <path
       id="path239749"
       style="display:inline;fill:#000000;fill-opacity:1;fill-rule:evenodd;stroke:#000000;stroke-width:1.49974501;stroke-opacity:1"
       d="m 314.3471,370.60792 15.84739,-7.32596 -7.32596,15.84739 c -0.66446,-4.3666 -4.1168,-7.7976 -8.52143,-8.52143 z"
       inkscape:connector-curvature="0"
       ns1:effectIn="name:appear;order:1;length:800" />
    <g
       id="g241280"
       transform="translate(-380.7713,179.11315)"
       style="display:inline;opacity:0.247">
      <path
         id="path241282"
         d="m 514.13274,139.51016 c -7.24975,-2.69764 -10.93998,-10.76157 -8.24234,-18.01166 0.67441,-1.81247 1.68429,-3.40235 2.93289,-4.72561 1.24861,-1.32336 2.73599,-2.37998 4.36572,-3.12578 1.62972,-0.74581 3.06358,-1.15558 4.88107,-1.23548 1.8176,-0.0799 4.01918,0.17021 5.83164,0.84467 7.24964,2.69753 10.93986,10.76157 8.24222,18.01167 -2.69764,7.24975 -10.76157,10.93997 -18.01166,8.24233 z"
         sodipodi:nodetypes="ssssssss"
         inkscape:transform-center-y="13.184579"
         inkscape:connector-curvature="0"
         inkscape:transform-center-x="7.8571429"
         style="fill:#556270;stroke-width:1.80920005" />
      <ellipse
         id="ellipse241284"
         rx="5.8892069"
         transform="matrix(0.98604733,0.16646522,-0.23767633,0.97134441,0,0)"
         ry="2.8465073"
         cy="38.976543"
         cx="537.77332"
         style="fill:#95a2ae;stroke-width:1.80920005" />
    </g>
    <g
       ns:text="$\\frac{1}{\\sqrt{2}^3} w \\ef{2i\\phi_{21}}$\n"
       ns:preamble="/home/shark/PhD/inkscape/inkscape-header.tex"
       transform="matrix(3.2351917,0,0,3.2351917,-301.13826,-32.080447)"
       id="g33995">
      <defs
         id="defs33997">
        <g
           id="g33999">
          <symbol
             style="overflow:visible"
             overflow="visible"
             id="textext-32b8a3bb-0">
            <path
               inkscape:connector-curvature="0"
               style="stroke:none"
               d=""
               id="path34002" />
          </symbol>
          <symbol
             style="overflow:visible"
             overflow="visible"
             id="textext-32b8a3bb-1">
            <path
               inkscape:connector-curvature="0"
               style="stroke:none"
               d="m 3.296875,0 0,-0.25 -0.265625,0 c -0.703125,0 -0.703125,-0.09375 -0.703125,-0.328125 l 0,-3.859375 c 0,-0.1875 0,-0.1875 -0.203125,-0.1875 -0.453125,0.4375 -1.078125,0.4375 -1.359375,0.4375 l 0,0.25 c 0.15625,0 0.625,0 1,-0.1875 l 0,3.546875 c 0,0.234375 0,0.328125 -0.6875,0.328125 l -0.265625,0 0,0.25 1.234375,-0.03125 z m 0,0"
               id="path34005" />
          </symbol>
          <symbol
             style="overflow:visible"
             overflow="visible"
             id="textext-32b8a3bb-2">
            <path
               inkscape:connector-curvature="0"
               style="stroke:none"
               d="m 3.515625,-1.265625 -0.234375,0 c -0.015625,0.15625 -0.09375,0.5625 -0.1875,0.625 -0.046875,0.046875 -0.578125,0.046875 -0.6875,0.046875 l -1.28125,0 c 0.734375,-0.640625 0.984375,-0.84375 1.390625,-1.171875 0.515625,-0.40625 1,-0.84375 1,-1.5 0,-0.84375 -0.734375,-1.359375 -1.625,-1.359375 -0.859375,0 -1.453125,0.609375 -1.453125,1.25 0,0.34375 0.296875,0.390625 0.375,0.390625 0.15625,0 0.359375,-0.125 0.359375,-0.375 0,-0.125 -0.046875,-0.375 -0.40625,-0.375 C 0.984375,-4.21875 1.453125,-4.375 1.78125,-4.375 c 0.703125,0 1.0625,0.546875 1.0625,1.109375 0,0.609375 -0.4375,1.078125 -0.65625,1.328125 L 0.515625,-0.265625 C 0.4375,-0.203125 0.4375,-0.1875 0.4375,0 l 2.875,0 z m 0,0"
               id="path34008" />
          </symbol>
          <symbol
             style="overflow:visible"
             overflow="visible"
             id="textext-32b8a3bb-3">
            <path
               inkscape:connector-curvature="0"
               style="stroke:none"
               d=""
               id="path34011" />
          </symbol>
          <symbol
             style="overflow:visible"
             overflow="visible"
             id="textext-32b8a3bb-4">
            <path
               inkscape:connector-curvature="0"
               style="stroke:none"
               d="m 6.703125,-0.171875 c 0,-0.109375 -0.09375,-0.171875 -0.171875,-0.171875 -0.09375,0 -0.140625,0.078125 -0.171875,0.125 L 3.09375,5.859375 1.71875,3.15625 C 1.671875,3.078125 1.671875,3.046875 1.609375,3.046875 c -0.03125,0 -0.046875,0 -0.109375,0.046875 L 0.75,3.609375 C 0.671875,3.65625 0.65625,3.671875 0.65625,3.71875 0.65625,3.8125 0.75,3.8125 0.78125,3.8125 L 1.25,3.5 2.78125,6.515625 C 2.828125,6.609375 2.84375,6.625 2.9375,6.625 3,6.625 3.078125,6.625 3.140625,6.5 L 6.65625,-0.03125 C 6.703125,-0.125 6.703125,-0.171875 6.703125,-0.171875 Z m 0,0"
               id="path34014" />
          </symbol>
          <symbol
             style="overflow:visible"
             overflow="visible"
             id="textext-32b8a3bb-5">
            <path
               inkscape:connector-curvature="0"
               style="stroke:none"
               d=""
               id="path34017" />
          </symbol>
          <symbol
             style="overflow:visible"
             overflow="visible"
             id="textext-32b8a3bb-6">
            <path
               inkscape:connector-curvature="0"
               style="stroke:none"
               d="m 2.984375,-0.875 c 0,-0.40625 -0.359375,-0.75 -0.921875,-0.875 0.59375,-0.203125 0.75,-0.578125 0.75,-0.859375 0,-0.40625 -0.5,-0.703125 -1.125,-0.703125 -0.625,0 -1.109375,0.25 -1.109375,0.703125 0,0.234375 0.1875,0.296875 0.28125,0.296875 0.140625,0 0.28125,-0.109375 0.28125,-0.296875 0,-0.109375 -0.0625,-0.25 -0.234375,-0.28125 C 1.109375,-3.109375 1.5625,-3.125 1.671875,-3.125 c 0.359375,0 0.609375,0.171875 0.609375,0.515625 0,0.296875 -0.1875,0.75 -0.703125,0.78125 -0.140625,0 -0.15625,0 -0.296875,0.015625 -0.046875,0 -0.109375,0 -0.109375,0.078125 0,0.078125 0.046875,0.078125 0.140625,0.078125 l 0.328125,0 c 0.46875,0 0.765625,0.296875 0.765625,0.78125 0,0.515625 -0.3125,0.78125 -0.75,0.78125 -0.0625,0 -0.65625,0 -0.90625,-0.265625 0.203125,-0.03125 0.265625,-0.171875 0.265625,-0.296875 0,-0.1875 -0.140625,-0.3125 -0.3125,-0.3125 -0.15625,0 -0.296875,0.109375 -0.296875,0.328125 0,0.515625 0.578125,0.75 1.265625,0.75 0.8125,0 1.3125,-0.5 1.3125,-0.984375 z m 0,0"
               id="path34020" />
          </symbol>
          <symbol
             style="overflow:visible"
             overflow="visible"
             id="textext-32b8a3bb-7">
            <path
               inkscape:connector-curvature="0"
               style="stroke:none"
               d="m 2.9375,-0.96875 -0.21875,0 c 0,0.09375 -0.0625,0.40625 -0.140625,0.453125 -0.03125,0.03125 -0.453125,0.03125 -0.53125,0.03125 l -0.96875,0 C 1.40625,-0.71875 1.765625,-1 2.0625,-1.203125 c 0.453125,-0.3125 0.875,-0.59375 0.875,-1.125 0,-0.640625 -0.609375,-0.984375 -1.3125,-0.984375 -0.671875,0 -1.171875,0.375 -1.171875,0.875 0,0.25 0.21875,0.296875 0.296875,0.296875 0.125,0 0.28125,-0.09375 0.28125,-0.296875 0,-0.171875 -0.125,-0.28125 -0.28125,-0.28125 0.140625,-0.234375 0.4375,-0.375 0.765625,-0.375 0.484375,0 0.890625,0.28125 0.890625,0.765625 0,0.421875 -0.296875,0.75 -0.671875,1.0625 l -1.21875,1.03125 C 0.46875,-0.1875 0.453125,-0.1875 0.453125,-0.15625 l 0,0.15625 2.3125,0 z m 0,0"
               id="path34023" />
          </symbol>
          <symbol
             style="overflow:visible"
             overflow="visible"
             id="textext-32b8a3bb-8">
            <path
               inkscape:connector-curvature="0"
               style="stroke:none"
               d="m 2.765625,0 0,-0.21875 -0.25,0 c -0.53125,0 -0.53125,-0.0625 -0.53125,-0.203125 l 0,-2.75 C 1.984375,-3.3125 1.96875,-3.3125 1.796875,-3.3125 1.453125,-3 0.890625,-3 0.796875,-3 l -0.078125,0 0,0.21875 0.078125,0 c 0.109375,0 0.4375,-0.015625 0.734375,-0.140625 l 0,2.5 c 0,0.140625 0,0.203125 -0.53125,0.203125 l -0.25,0 L 0.75,0 c 0.265625,-0.015625 0.71875,-0.015625 1,-0.015625 0.296875,0 0.734375,0 1.015625,0.015625 z m 0,0"
               id="path34026" />
          </symbol>
          <symbol
             style="overflow:visible"
             overflow="visible"
             id="textext-32b8a3bb-9">
            <path
               inkscape:connector-curvature="0"
               style="stroke:none"
               d=""
               id="path34029" />
          </symbol>
          <symbol
             style="overflow:visible"
             overflow="visible"
             id="textext-32b8a3bb-10">
            <path
               inkscape:connector-curvature="0"
               style="stroke:none"
               d="m 6.890625,-3.703125 c 0,-0.546875 -0.265625,-0.703125 -0.4375,-0.703125 -0.25,0 -0.5,0.265625 -0.5,0.484375 0,0.125 0.0625,0.1875 0.140625,0.265625 0.109375,0.109375 0.359375,0.359375 0.359375,0.84375 0,0.34375 -0.28125,1.3125 -0.546875,1.828125 -0.25,0.53125 -0.609375,0.875 -1.09375,0.875 -0.46875,0 -0.734375,-0.296875 -0.734375,-0.875 0,-0.265625 0.0625,-0.578125 0.109375,-0.71875 L 4.609375,-3.375 C 4.65625,-3.59375 4.75,-3.96875 4.75,-4.03125 c 0,-0.171875 -0.140625,-0.265625 -0.28125,-0.265625 -0.125,0 -0.296875,0.078125 -0.375,0.28125 -0.03125,0.0625 -0.5,1.96875 -0.5625,2.234375 C 3.453125,-1.484375 3.4375,-1.3125 3.4375,-1.125 c 0,0.109375 0,0.125 0.015625,0.171875 -0.234375,0.53125 -0.53125,0.84375 -0.921875,0.84375 -0.796875,0 -0.796875,-0.734375 -0.796875,-0.90625 0,-0.3125 0.046875,-0.703125 0.515625,-1.9375 0.109375,-0.296875 0.171875,-0.4375 0.171875,-0.640625 0,-0.4375 -0.328125,-0.8125 -0.8125,-0.8125 -0.953125,0 -1.3125,1.453125 -1.3125,1.53125 0,0.109375 0.109375,0.109375 0.109375,0.109375 0.109375,0 0.109375,-0.03125 0.15625,-0.1875 C 0.84375,-3.875 1.21875,-4.1875 1.578125,-4.1875 c 0.09375,0 0.25,0.015625 0.25,0.328125 0,0.25 -0.109375,0.53125 -0.1875,0.703125 -0.4375,1.171875 -0.546875,1.625 -0.546875,2.015625 0,0.90625 0.65625,1.25 1.40625,1.25 0.171875,0 0.640625,0 1.03125,-0.703125 0.265625,0.640625 0.953125,0.703125 1.25,0.703125 0.75,0 1.1875,-0.625 1.453125,-1.21875 0.328125,-0.78125 0.65625,-2.125 0.65625,-2.59375 z m 0,0"
               id="path34032" />
          </symbol>
          <symbol
             style="overflow:visible"
             overflow="visible"
             id="textext-32b8a3bb-11">
            <path
               inkscape:connector-curvature="0"
               style="stroke:none"
               d=""
               id="path34035" />
          </symbol>
          <symbol
             style="overflow:visible"
             overflow="visible"
             id="textext-32b8a3bb-12">
            <path
               inkscape:connector-curvature="0"
               style="stroke:none"
               d="m 4.140625,-1.1875 c 0,-0.09375 -0.078125,-0.125 -0.140625,-0.125 -0.078125,0 -0.109375,0.0625 -0.125,0.140625 -0.34375,1.03125 -1.25,1.03125 -1.34375,1.03125 -0.5,0 -0.890625,-0.296875 -1.125,-0.671875 -0.296875,-0.46875 -0.296875,-1.125 -0.296875,-1.484375 l 2.78125,0 c 0.21875,0 0.25,0 0.25,-0.21875 0,-0.984375 -0.546875,-1.953125 -1.78125,-1.953125 -1.15625,0 -2.078125,1.03125 -2.078125,2.28125 0,1.328125 1.046875,2.296875 2.1875,2.296875 C 3.6875,0.109375 4.140625,-1 4.140625,-1.1875 Z m -0.65625,-1.328125 -2.375,0 C 1.171875,-4 2.015625,-4.25 2.359375,-4.25 c 1.015625,0 1.125,1.34375 1.125,1.734375 z m 0,0"
               id="path34038" />
          </symbol>
          <symbol
             style="overflow:visible"
             overflow="visible"
             id="textext-32b8a3bb-13">
            <path
               inkscape:connector-curvature="0"
               style="stroke:none"
               d=""
               id="path34041" />
          </symbol>
          <symbol
             style="overflow:visible"
             overflow="visible"
             id="textext-32b8a3bb-14">
            <path
               inkscape:connector-curvature="0"
               style="stroke:none"
               d="m 2.265625,-4.359375 c 0,-0.109375 -0.09375,-0.265625 -0.28125,-0.265625 -0.1875,0 -0.390625,0.1875 -0.390625,0.390625 0,0.109375 0.078125,0.265625 0.28125,0.265625 0.1875,0 0.390625,-0.203125 0.390625,-0.390625 z M 2.4375,-1 c 0,-0.09375 -0.09375,-0.09375 -0.109375,-0.09375 -0.09375,0 -0.109375,0.046875 -0.140625,0.125 -0.15625,0.5625 -0.453125,0.84375 -0.734375,0.84375 -0.140625,0 -0.171875,-0.09375 -0.171875,-0.25 0,-0.15625 0.046875,-0.28125 0.109375,-0.4375 l 0.21875,-0.5625 0.34375,-0.890625 C 1.984375,-2.328125 2,-2.40625 2,-2.484375 2,-2.8125 1.71875,-3.078125 1.34375,-3.078125 0.640625,-3.078125 0.328125,-2.125 0.328125,-2 c 0,0.078125 0.09375,0.078125 0.125,0.078125 0.09375,0 0.09375,-0.03125 0.125,-0.109375 C 0.75,-2.625 1.0625,-2.875 1.3125,-2.875 c 0.109375,0 0.171875,0.046875 0.171875,0.234375 0,0.171875 -0.03125,0.265625 -0.203125,0.703125 l -0.4375,1.125 c -0.03125,0.09375 -0.0625,0.171875 -0.0625,0.296875 0,0.328125 0.265625,0.578125 0.65625,0.578125 0.6875,0 1,-0.953125 1,-1.0625 z m 0,0"
               id="path34044" />
          </symbol>
          <symbol
             style="overflow:visible"
             overflow="visible"
             id="textext-32b8a3bb-15">
            <path
               inkscape:connector-curvature="0"
               style="stroke:none"
               d="m 4.515625,-1.796875 c 0,-0.71875 -0.640625,-1.25 -1.5,-1.28125 L 3.421875,-4.75 c 0,-0.09375 -0.078125,-0.09375 -0.109375,-0.09375 -0.109375,0 -0.109375,0.046875 -0.140625,0.15625 L 2.78125,-3.09375 c -1.234375,0.0625 -2.296875,0.953125 -2.296875,1.875 0,0.796875 0.71875,1.265625 1.5,1.296875 L 1.8125,0.734375 C 1.734375,1.0625 1.671875,1.3125 1.671875,1.34375 c 0,0.078125 0.09375,0.078125 0.109375,0.078125 0.109375,0 0.109375,-0.015625 0.15625,-0.171875 L 2.21875,0.078125 C 3.421875,0.03125 4.515625,-0.84375 4.515625,-1.796875 Z M 2.03125,-0.125 C 1.484375,-0.140625 1,-0.4375 1,-1.09375 1,-1.796875 1.53125,-2.78125 2.71875,-2.890625 Z M 4,-1.90625 c 0,0.75 -0.59375,1.6875 -1.734375,1.78125 L 2.96875,-2.890625 C 3.5,-2.859375 4,-2.578125 4,-1.90625 Z m 0,0"
               id="path34047" />
          </symbol>
        </g>
      </defs>
      <g
         id="textext-32b8a3bb-16">
        <g
           style="fill:#000000;fill-opacity:1"
           id="g34050">
          <use
             height="100%"
             width="100%"
             xlink:href="#textext-32b8a3bb-1"
             x="140.181"
             y="130.842"
             id="use34052" />
        </g>
        <path
           inkscape:connector-curvature="0"
           style="fill:none;stroke:#000000;stroke-width:0.398;stroke-linecap:butt;stroke-linejoin:miter;stroke-miterlimit:10;stroke-opacity:1"
           d="m 8.4375e-4,5.625e-4 14.40234425,0"
           transform="matrix(1,0,0,-1,134.964,132.274)"
           id="path34054" />
        <g
           style="fill:#000000;fill-opacity:1"
           id="g34056">
          <use
             height="100%"
             width="100%"
             xlink:href="#textext-32b8a3bb-4"
             x="134.964"
             y="134.22301"
             id="use34058" />
        </g>
        <path
           inkscape:connector-curvature="0"
           style="fill:none;stroke:#000000;stroke-width:0.33899999;stroke-linecap:butt;stroke-linejoin:miter;stroke-miterlimit:10;stroke-opacity:1"
           d="m -0.0011875,-6.875e-4 3.9726565,0"
           transform="matrix(1,0,0,-1,141.509,134.054)"
           id="path34060" />
        <g
           style="fill:#000000;fill-opacity:1"
           id="g34062">
          <use
             height="100%"
             width="100%"
             xlink:href="#textext-32b8a3bb-2"
             x="141.509"
             y="140.037"
             id="use34064" />
        </g>
        <g
           style="fill:#000000;fill-opacity:1"
           id="g34066">
          <use
             height="100%"
             width="100%"
             xlink:href="#textext-32b8a3bb-6"
             x="145.48"
             y="136.009"
             id="use34068" />
        </g>
        <g
           style="fill:#000000;fill-opacity:1"
           id="g34070">
          <use
             height="100%"
             width="100%"
             xlink:href="#textext-32b8a3bb-10"
             x="150.564"
             y="134.765"
             id="use34072" />
        </g>
        <g
           style="fill:#000000;fill-opacity:1"
           id="g34074">
          <use
             height="100%"
             width="100%"
             xlink:href="#textext-32b8a3bb-12"
             x="159.625"
             y="134.765"
             id="use34076" />
        </g>
        <g
           style="fill:#000000;fill-opacity:1"
           id="g34078">
          <use
             height="100%"
             width="100%"
             xlink:href="#textext-32b8a3bb-2"
             x="164.05299"
             y="131.149"
             id="use34080" />
        </g>
        <g
           style="fill:#000000;fill-opacity:1"
           id="g34082">
          <use
             height="100%"
             width="100%"
             xlink:href="#textext-32b8a3bb-14"
             x="168.024"
             y="131.149"
             id="use34084" />
          <use
             height="100%"
             width="100%"
             xlink:href="#textext-32b8a3bb-15"
             x="170.8428"
             y="131.149"
             id="use34086" />
        </g>
        <g
           style="fill:#000000;fill-opacity:1"
           id="g34088">
          <use
             height="100%"
             width="100%"
             xlink:href="#textext-32b8a3bb-7"
             x="175.633"
             y="132.146"
             id="use34090" />
          <use
             height="100%"
             width="100%"
             xlink:href="#textext-32b8a3bb-8"
             x="179.02327"
             y="132.146"
             id="use34092" />
        </g>
      </g>
    </g>
    <g
       id="g34464"
       transform="matrix(4.4420825,0,0,4.4420825,-508.47522,-7.2199347)"
       ns:preamble="/home/shark/PhD/inkscape/inkscape-header.tex"
       ns:text="$1$\n">
      <defs
         id="defs34466">
        <g
           id="g34468">
          <symbol
             id="textext-b2cbfc8b-0"
             overflow="visible"
             style="overflow:visible">
            <path
               id="path34471"
               d=""
               style="stroke:none"
               inkscape:connector-curvature="0" />
          </symbol>
          <symbol
             id="textext-b2cbfc8b-1"
             overflow="visible"
             style="overflow:visible">
            <path
               id="path34474"
               d="m 4.171875,0 0,-0.3125 -0.3125,0 c -0.90625,0 -0.921875,-0.109375 -0.921875,-0.46875 l 0,-5.59375 c 0,-0.25 0,-0.265625 -0.234375,-0.265625 C 2.078125,-6 1.203125,-6 0.890625,-6 l 0,0.3125 c 0.203125,0 0.78125,0 1.296875,-0.265625 l 0,5.171875 c 0,0.359375 -0.03125,0.46875 -0.921875,0.46875 l -0.3125,0 0,0.3125 c 0.34375,-0.03125 1.203125,-0.03125 1.609375,-0.03125 0.390625,0 1.265625,0 1.609375,0.03125 z m 0,0"
               style="stroke:none"
               inkscape:connector-curvature="0" />
          </symbol>
        </g>
      </defs>
      <g
         id="textext-b2cbfc8b-2">
        <g
           id="g34477"
           style="fill:#000000;fill-opacity:1">
          <use
             id="use34479"
             y="134.765"
             x="133.76801"
             xlink:href="#textext-b2cbfc8b-1"
             width="100%"
             height="100%" />
        </g>
      </g>
    </g>
    <g
       ns:text="$2$\n"
       ns:preamble="/home/shark/PhD/inkscape/inkscape-header.tex"
       transform="matrix(4.4420825,0,0,4.4420825,-163.40462,-306.11251)"
       id="g34865">
      <defs
         id="defs34867">
        <g
           id="g34869">
          <symbol
             overflow="visible"
             id="textext-172a0f1a-0"
             style="overflow:visible">
            <path
               style="stroke:none"
               d=""
               id="path34872"
               inkscape:connector-curvature="0" />
          </symbol>
          <symbol
             overflow="visible"
             id="textext-172a0f1a-1"
             style="overflow:visible">
            <path
               style="stroke:none"
               d="m 4.46875,-1.734375 -0.234375,0 C 4.171875,-1.4375 4.109375,-1 4,-0.84375 3.9375,-0.765625 3.28125,-0.765625 3.0625,-0.765625 l -1.796875,0 1.0625,-1.03125 c 1.546875,-1.375 2.140625,-1.90625 2.140625,-2.90625 0,-1.140625 -0.890625,-1.9375 -2.109375,-1.9375 -1.125,0 -1.859375,0.921875 -1.859375,1.8125 0,0.546875 0.5,0.546875 0.53125,0.546875 0.171875,0 0.515625,-0.109375 0.515625,-0.53125 0,-0.25 -0.1875,-0.515625 -0.53125,-0.515625 -0.078125,0 -0.09375,0 -0.125,0.015625 0.21875,-0.65625 0.765625,-1.015625 1.34375,-1.015625 0.90625,0 1.328125,0.8125 1.328125,1.625 C 3.5625,-3.90625 3.078125,-3.125 2.515625,-2.5 l -1.90625,2.125 C 0.5,-0.265625 0.5,-0.234375 0.5,0 l 3.703125,0 z m 0,0"
               id="path34875"
               inkscape:connector-curvature="0" />
          </symbol>
        </g>
      </defs>
      <g
         id="textext-172a0f1a-2">
        <g
           style="fill:#000000;fill-opacity:1"
           id="g34878">
          <use
             xlink:href="#textext-172a0f1a-1"
             x="133.76801"
             y="134.765"
             id="use34880"
             width="100%"
             height="100%" />
        </g>
      </g>
    </g>
    <g
       id="g35286"
       transform="matrix(4.394059,0,0,4.394059,-156.89563,-1.388101)"
       ns:preamble="/home/shark/PhD/inkscape/inkscape-header.tex"
       ns:text="$3$\n">
      <defs
         id="defs35288">
        <g
           id="g35290">
          <symbol
             id="textext-3877a626-0"
             overflow="visible"
             style="overflow:visible">
            <path
               id="path35293"
               d=""
               style="stroke:none"
               inkscape:connector-curvature="0" />
          </symbol>
          <symbol
             id="textext-3877a626-1"
             overflow="visible"
             style="overflow:visible">
            <path
               id="path35296"
               d="m 4.5625,-1.703125 c 0,-0.8125 -0.640625,-1.59375 -1.671875,-1.8125 0.8125,-0.265625 1.390625,-0.953125 1.390625,-1.75 0,-0.8125 -0.875,-1.375 -1.828125,-1.375 -1,0 -1.765625,0.59375 -1.765625,1.359375 0,0.328125 0.21875,0.515625 0.515625,0.515625 0.296875,0 0.5,-0.21875 0.5,-0.515625 0,-0.484375 -0.46875,-0.484375 -0.609375,-0.484375 0.296875,-0.5 0.953125,-0.625 1.3125,-0.625 0.421875,0 0.96875,0.21875 0.96875,1.109375 0,0.125 -0.03125,0.703125 -0.28125,1.140625 C 2.796875,-3.65625 2.453125,-3.625 2.203125,-3.625 2.125,-3.609375 1.890625,-3.59375 1.8125,-3.59375 c -0.078125,0.015625 -0.140625,0.03125 -0.140625,0.125 0,0.109375 0.0625,0.109375 0.234375,0.109375 l 0.4375,0 c 0.8125,0 1.1875,0.671875 1.1875,1.65625 0,1.359375 -0.6875,1.640625 -1.125,1.640625 -0.4375,0 -1.1875,-0.171875 -1.53125,-0.75 0.34375,0.046875 0.65625,-0.171875 0.65625,-0.546875 0,-0.359375 -0.265625,-0.5625 -0.546875,-0.5625 -0.25,0 -0.5625,0.140625 -0.5625,0.578125 0,0.90625 0.921875,1.5625 2.015625,1.5625 1.21875,0 2.125,-0.90625 2.125,-1.921875 z m 0,0"
               style="stroke:none"
               inkscape:connector-curvature="0" />
          </symbol>
        </g>
      </defs>
      <g
         id="textext-3877a626-2">
        <g
           id="g35299"
           style="fill:#000000;fill-opacity:1">
          <use
             id="use35301"
             y="134.765"
             x="133.76801"
             xlink:href="#textext-3877a626-1"
             width="100%"
             height="100%" />
        </g>
      </g>
    </g>
    <g
       id="g36457"
       transform="matrix(3.3999591,0,0,3.3999591,-56.426653,-17.474577)"
       ns:preamble="/home/shark/PhD/inkscape/inkscape-header.tex"
       ns:text="$-t^-$\n">
      <defs
         id="defs36459">
        <g
           id="g36461">
          <symbol
             id="symbol36463"
             overflow="visible"
             style="overflow:visible">
            <path
               id="path36465"
               d=""
               style="stroke:none"
               inkscape:connector-curvature="0" />
          </symbol>
          <symbol
             id="symbol36467"
             overflow="visible"
             style="overflow:visible">
            <path
               id="path36469"
               d="m 6.921875,-2.5 c 0,-0.1875 -0.1875,-0.1875 -0.328125,-0.1875 l -5.4375,0 c -0.140625,0 -0.328125,0 -0.328125,0.1875 0,0.203125 0.1875,0.203125 0.328125,0.203125 l 5.4375,0 c 0.140625,0 0.328125,0 0.328125,-0.203125 z m 0,0"
               style="stroke:none"
               inkscape:connector-curvature="0" />
          </symbol>
          <symbol
             id="symbol36471"
             overflow="visible"
             style="overflow:visible">
            <path
               id="path36473"
               d=""
               style="stroke:none"
               inkscape:connector-curvature="0" />
          </symbol>
          <symbol
             id="symbol36475"
             overflow="visible"
             style="overflow:visible">
            <path
               id="path36477"
               d="m 3.125,-1.421875 c 0,-0.109375 -0.078125,-0.109375 -0.109375,-0.109375 -0.09375,0 -0.109375,0.03125 -0.15625,0.140625 -0.421875,1.046875 -0.953125,1.28125 -1.296875,1.28125 -0.203125,0 -0.3125,-0.125 -0.3125,-0.453125 0,-0.25 0.03125,-0.3125 0.0625,-0.484375 l 0.734375,-2.9375 0.9375,0 c 0.203125,0 0.3125,0 0.3125,-0.203125 0,-0.109375 -0.109375,-0.109375 -0.28125,-0.109375 l -0.875,0 C 2.5,-5.71875 2.546875,-5.90625 2.546875,-5.96875 c 0,-0.171875 -0.125,-0.265625 -0.296875,-0.265625 -0.03125,0 -0.3125,0 -0.390625,0.359375 l -0.390625,1.578125 -0.9375,0 c -0.203125,0 -0.296875,0 -0.296875,0.1875 0,0.125 0.078125,0.125 0.28125,0.125 l 0.875,0 C 0.671875,-1.15625 0.625,-0.984375 0.625,-0.8125 0.625,-0.265625 1,0.109375 1.546875,0.109375 2.5625,0.109375 3.125,-1.34375 3.125,-1.421875 Z m 0,0"
               style="stroke:none"
               inkscape:connector-curvature="0" />
          </symbol>
          <symbol
             id="symbol36479"
             overflow="visible"
             style="overflow:visible">
            <path
               id="path36481"
               d=""
               style="stroke:none"
               inkscape:connector-curvature="0" />
          </symbol>
          <symbol
             id="symbol36483"
             overflow="visible"
             style="overflow:visible">
            <path
               id="path36485"
               d="m 5.46875,-1.734375 c 0,-0.1875 -0.171875,-0.1875 -0.265625,-0.1875 l -4.1875,0 c -0.109375,0 -0.265625,0 -0.265625,0.1875 0,0.15625 0.171875,0.15625 0.265625,0.15625 l 4.1875,0 c 0.09375,0 0.265625,0 0.265625,-0.15625 z m 0,0"
               style="stroke:none"
               inkscape:connector-curvature="0" />
          </symbol>
        </g>
      </defs>
      <g
         id="g36487">
        <g
           id="g36489"
           style="fill:#000000;fill-opacity:1">
          <g
             id="use36491"
             transform="translate(133.76801,134.765)">
            <path
               inkscape:connector-curvature="0"
               style="stroke:none"
               d="m 6.921875,-2.5 c 0,-0.1875 -0.1875,-0.1875 -0.328125,-0.1875 l -5.4375,0 c -0.140625,0 -0.328125,0 -0.328125,0.1875 0,0.203125 0.1875,0.203125 0.328125,0.203125 l 5.4375,0 c 0.140625,0 0.328125,0 0.328125,-0.203125 z m 0,0"
               id="path36767" />
          </g>
        </g>
        <g
           id="g36493"
           style="fill:#000000;fill-opacity:1">
          <g
             id="use36495"
             transform="translate(141.517,134.765)">
            <path
               inkscape:connector-curvature="0"
               style="stroke:none"
               d="m 3.125,-1.421875 c 0,-0.109375 -0.078125,-0.109375 -0.109375,-0.109375 -0.09375,0 -0.109375,0.03125 -0.15625,0.140625 -0.421875,1.046875 -0.953125,1.28125 -1.296875,1.28125 -0.203125,0 -0.3125,-0.125 -0.3125,-0.453125 0,-0.25 0.03125,-0.3125 0.0625,-0.484375 l 0.734375,-2.9375 0.9375,0 c 0.203125,0 0.3125,0 0.3125,-0.203125 0,-0.109375 -0.109375,-0.109375 -0.28125,-0.109375 l -0.875,0 C 2.5,-5.71875 2.546875,-5.90625 2.546875,-5.96875 c 0,-0.171875 -0.125,-0.265625 -0.296875,-0.265625 -0.03125,0 -0.3125,0 -0.390625,0.359375 l -0.390625,1.578125 -0.9375,0 c -0.203125,0 -0.296875,0 -0.296875,0.1875 0,0.125 0.078125,0.125 0.28125,0.125 l 0.875,0 C 0.671875,-1.15625 0.625,-0.984375 0.625,-0.8125 0.625,-0.265625 1,0.109375 1.546875,0.109375 2.5625,0.109375 3.125,-1.34375 3.125,-1.421875 Z m 0,0"
               id="path36775" />
          </g>
        </g>
        <g
           id="g36497"
           style="fill:#000000;fill-opacity:1">
          <g
             id="use36499"
             transform="translate(145.11501,131.149)">
            <path
               inkscape:connector-curvature="0"
               style="stroke:none"
               d="m 5.46875,-1.734375 c 0,-0.1875 -0.171875,-0.1875 -0.265625,-0.1875 l -4.1875,0 c -0.109375,0 -0.265625,0 -0.265625,0.1875 0,0.15625 0.171875,0.15625 0.265625,0.15625 l 4.1875,0 c 0.09375,0 0.265625,0 0.265625,-0.15625 z m 0,0"
               id="path36783" />
          </g>
        </g>
      </g>
    </g>
    <g
       id="g37717"
       transform="matrix(3.2430467,0,0,3.2430467,-225.70337,93.416743)"
       ns:preamble="/home/shark/PhD/inkscape/inkscape-header.tex"
       ns:text="$\\phi_{21}=\\pi/4$\n"
       style="fill:#4d4d4d">
      <defs
         id="defs37719">
        <g
           id="g37721">
          <symbol
             style="overflow:visible"
             id="symbol37723"
             overflow="visible">
            <path
               inkscape:connector-curvature="0"
               id="path37725"
               d=""
               style="stroke:none" />
          </symbol>
          <symbol
             style="overflow:visible"
             id="symbol37727"
             overflow="visible">
            <path
               inkscape:connector-curvature="0"
               id="path37729"
               d="m 5.71875,-2.609375 c 0,-0.796875 -0.53125,-1.703125 -1.921875,-1.8125 l 0.5625,-2.25 0.03125,-0.140625 c 0,0 0,-0.109375 -0.125,-0.109375 -0.09375,0 -0.109375,0.03125 -0.15625,0.203125 L 3.53125,-4.421875 c -1.578125,0.0625 -3.046875,1.375 -3.046875,2.734375 0,0.953125 0.703125,1.734375 1.921875,1.8125 L 2.171875,1.0625 c -0.125,0.46875 -0.21875,0.84375 -0.21875,0.875 0,0.09375 0.078125,0.109375 0.125,0.109375 C 2.125,2.046875 2.140625,2.03125 2.171875,2 2.1875,1.984375 2.25,1.75 2.28125,1.609375 L 2.65625,0.125 c 1.609375,-0.0625 3.0625,-1.40625 3.0625,-2.734375 z m -2.234375,-1.59375 -1.03125,4.109375 c -0.59375,-0.03125 -1.3125,-0.390625 -1.3125,-1.375 0,-1.203125 0.859375,-2.59375 2.34375,-2.734375 z m 1.578125,1.375 c 0,1.1875 -0.859375,2.609375 -2.34375,2.734375 l 1.015625,-4.109375 c 0.765625,0.046875 1.328125,0.5 1.328125,1.375 z m 0,0"
               style="stroke:none" />
          </symbol>
          <symbol
             style="overflow:visible"
             id="symbol37731"
             overflow="visible">
            <path
               inkscape:connector-curvature="0"
               id="path37733"
               d="m 5.65625,-4.0625 c 0,-0.234375 -0.21875,-0.234375 -0.40625,-0.234375 l -3.34375,0 c -0.21875,0 -0.59375,0 -1.03125,0.46875 -0.34375,0.390625 -0.609375,0.84375 -0.609375,0.890625 0,0 0,0.109375 0.125,0.109375 0.078125,0 0.09375,-0.046875 0.15625,-0.125 C 1.03125,-3.71875 1.609375,-3.71875 1.8125,-3.71875 l 0.5625,0 C 2.0625,-2.515625 1.53125,-1.3125 1.109375,-0.40625 1.03125,-0.25 1.03125,-0.234375 1.03125,-0.15625 c 0,0.1875 0.15625,0.265625 0.28125,0.265625 0.296875,0 0.375,-0.28125 0.5,-0.640625 C 1.953125,-1 1.953125,-1.015625 2.078125,-1.515625 l 0.5625,-2.203125 1.125,0 C 3.4375,-2.25 3.34375,-1.8125 3.34375,-1.140625 c 0,0.140625 0,0.40625 0.078125,0.75 0.109375,0.4375 0.21875,0.5 0.359375,0.5 0.203125,0 0.421875,-0.171875 0.421875,-0.375 0,-0.0625 0,-0.078125 -0.0625,-0.21875 -0.296875,-0.71875 -0.296875,-1.375 -0.296875,-1.65625 0,-0.515625 0.078125,-1.0625 0.1875,-1.578125 l 1.125,0 c 0.140625,0 0.5,0 0.5,-0.34375 z m 0,0"
               style="stroke:none" />
          </symbol>
          <symbol
             style="overflow:visible"
             id="symbol37735"
             overflow="visible">
            <path
               inkscape:connector-curvature="0"
               id="path37737"
               d="m 4.421875,-7.28125 c 0,-0.109375 -0.078125,-0.203125 -0.1875,-0.203125 -0.078125,0 -0.140625,0.03125 -0.171875,0.09375 l -3.46875,9.5 C 0.546875,2.25 0.546875,2.296875 0.546875,2.296875 0.546875,2.40625 0.640625,2.5 0.75,2.5 0.875,2.5 0.90625,2.421875 0.96875,2.25 L 4.375,-7.09375 c 0.046875,-0.140625 0.046875,-0.1875 0.046875,-0.1875 z m 0,0"
               style="stroke:none" />
          </symbol>
          <symbol
             style="overflow:visible"
             id="symbol37739"
             overflow="visible">
            <path
               inkscape:connector-curvature="0"
               id="path37741"
               d=""
               style="stroke:none" />
          </symbol>
          <symbol
             style="overflow:visible"
             id="symbol37743"
             overflow="visible">
            <path
               inkscape:connector-curvature="0"
               id="path37745"
               d="m 3.515625,-1.265625 -0.234375,0 c -0.015625,0.15625 -0.09375,0.5625 -0.1875,0.625 -0.046875,0.046875 -0.578125,0.046875 -0.6875,0.046875 l -1.28125,0 c 0.734375,-0.640625 0.984375,-0.84375 1.390625,-1.171875 0.515625,-0.40625 1,-0.84375 1,-1.5 0,-0.84375 -0.734375,-1.359375 -1.625,-1.359375 -0.859375,0 -1.453125,0.609375 -1.453125,1.25 0,0.34375 0.296875,0.390625 0.375,0.390625 0.15625,0 0.359375,-0.125 0.359375,-0.375 0,-0.125 -0.046875,-0.375 -0.40625,-0.375 C 0.984375,-4.21875 1.453125,-4.375 1.78125,-4.375 c 0.703125,0 1.0625,0.546875 1.0625,1.109375 0,0.609375 -0.4375,1.078125 -0.65625,1.328125 L 0.515625,-0.265625 C 0.4375,-0.203125 0.4375,-0.1875 0.4375,0 l 2.875,0 z m 0,0"
               style="stroke:none" />
          </symbol>
          <symbol
             style="overflow:visible"
             id="symbol37747"
             overflow="visible">
            <path
               inkscape:connector-curvature="0"
               id="path37749"
               d="m 3.296875,0 0,-0.25 -0.265625,0 c -0.703125,0 -0.703125,-0.09375 -0.703125,-0.328125 l 0,-3.859375 c 0,-0.1875 0,-0.1875 -0.203125,-0.1875 -0.453125,0.4375 -1.078125,0.4375 -1.359375,0.4375 l 0,0.25 c 0.15625,0 0.625,0 1,-0.1875 l 0,3.546875 c 0,0.234375 0,0.328125 -0.6875,0.328125 l -0.265625,0 0,0.25 1.234375,-0.03125 z m 0,0"
               style="stroke:none" />
          </symbol>
          <symbol
             style="overflow:visible"
             id="symbol37751"
             overflow="visible">
            <path
               inkscape:connector-curvature="0"
               id="path37753"
               d=""
               style="stroke:none" />
          </symbol>
          <symbol
             style="overflow:visible"
             id="symbol37755"
             overflow="visible">
            <path
               inkscape:connector-curvature="0"
               id="path37757"
               d="M 7.1875,-3.453125 C 7.1875,-3.65625 7,-3.65625 6.859375,-3.65625 l -5.96875,0 c -0.140625,0 -0.328125,0 -0.328125,0.203125 0,0.1875 0.1875,0.1875 0.328125,0.1875 l 5.953125,0 c 0.15625,0 0.34375,0 0.34375,-0.1875 z m 0,1.921875 c 0,-0.1875 -0.1875,-0.1875 -0.34375,-0.1875 l -5.953125,0 c -0.140625,0 -0.328125,0 -0.328125,0.1875 0,0.203125 0.1875,0.203125 0.328125,0.203125 l 5.96875,0 c 0.140625,0 0.328125,0 0.328125,-0.203125 z m 0,0"
               style="stroke:none" />
          </symbol>
          <symbol
             style="overflow:visible"
             id="symbol37759"
             overflow="visible">
            <path
               inkscape:connector-curvature="0"
               id="path37761"
               d="m 4.6875,-1.640625 0,-0.3125 -0.984375,0 0,-4.53125 c 0,-0.203125 0,-0.265625 -0.171875,-0.265625 -0.078125,0 -0.109375,0 -0.1875,0.125 l -3.0625,4.671875 0,0.3125 2.65625,0 0,0.859375 c 0,0.359375 -0.03125,0.46875 -0.765625,0.46875 l -0.203125,0 0,0.3125 C 2.375,-0.03125 2.890625,-0.03125 3.3125,-0.03125 c 0.421875,0 0.9375,0 1.359375,0.03125 l 0,-0.3125 -0.21875,0 c -0.734375,0 -0.75,-0.109375 -0.75,-0.46875 l 0,-0.859375 z m -1.703125,-0.3125 -2.421875,0 2.421875,-3.71875 z m 0,0"
               style="stroke:none" />
          </symbol>
        </g>
      </defs>
      <g
         id="g37763"
         style="fill:#4d4d4d">
        <g
           id="g37765"
           style="fill:#4d4d4d;fill-opacity:1">
          <g
             id="use37767"
             transform="translate(133.76801,134.765)"
             style="fill:#4d4d4d">
            <path
               inkscape:connector-curvature="0"
               style="fill:#4d4d4d;stroke:none"
               d="m 5.71875,-2.609375 c 0,-0.796875 -0.53125,-1.703125 -1.921875,-1.8125 l 0.5625,-2.25 0.03125,-0.140625 c 0,0 0,-0.109375 -0.125,-0.109375 -0.09375,0 -0.109375,0.03125 -0.15625,0.203125 L 3.53125,-4.421875 c -1.578125,0.0625 -3.046875,1.375 -3.046875,2.734375 0,0.953125 0.703125,1.734375 1.921875,1.8125 L 2.171875,1.0625 c -0.125,0.46875 -0.21875,0.84375 -0.21875,0.875 0,0.09375 0.078125,0.109375 0.125,0.109375 C 2.125,2.046875 2.140625,2.03125 2.171875,2 2.1875,1.984375 2.25,1.75 2.28125,1.609375 L 2.65625,0.125 c 1.609375,-0.0625 3.0625,-1.40625 3.0625,-2.734375 z m -2.234375,-1.59375 -1.03125,4.109375 c -0.59375,-0.03125 -1.3125,-0.390625 -1.3125,-1.375 0,-1.203125 0.859375,-2.59375 2.34375,-2.734375 z m 1.578125,1.375 c 0,1.1875 -0.859375,2.609375 -2.34375,2.734375 l 1.015625,-4.109375 c 0.765625,0.046875 1.328125,0.5 1.328125,1.375 z m 0,0"
               id="path38076" />
          </g>
        </g>
        <g
           id="g37769"
           style="fill:#4d4d4d;fill-opacity:1">
          <g
             id="use37771"
             transform="translate(139.70399,136.259)"
             style="fill:#4d4d4d">
            <path
               inkscape:connector-curvature="0"
               style="fill:#4d4d4d;stroke:none"
               d="m 3.515625,-1.265625 -0.234375,0 c -0.015625,0.15625 -0.09375,0.5625 -0.1875,0.625 -0.046875,0.046875 -0.578125,0.046875 -0.6875,0.046875 l -1.28125,0 c 0.734375,-0.640625 0.984375,-0.84375 1.390625,-1.171875 0.515625,-0.40625 1,-0.84375 1,-1.5 0,-0.84375 -0.734375,-1.359375 -1.625,-1.359375 -0.859375,0 -1.453125,0.609375 -1.453125,1.25 0,0.34375 0.296875,0.390625 0.375,0.390625 0.15625,0 0.359375,-0.125 0.359375,-0.375 0,-0.125 -0.046875,-0.375 -0.40625,-0.375 C 0.984375,-4.21875 1.453125,-4.375 1.78125,-4.375 c 0.703125,0 1.0625,0.546875 1.0625,1.109375 0,0.609375 -0.4375,1.078125 -0.65625,1.328125 L 0.515625,-0.265625 C 0.4375,-0.203125 0.4375,-0.1875 0.4375,0 l 2.875,0 z m 0,0"
               id="path38100" />
          </g>
          <g
             id="use37773"
             transform="translate(143.67488,136.259)"
             style="fill:#4d4d4d">
            <path
               inkscape:connector-curvature="0"
               style="fill:#4d4d4d;stroke:none"
               d="m 3.296875,0 0,-0.25 -0.265625,0 c -0.703125,0 -0.703125,-0.09375 -0.703125,-0.328125 l 0,-3.859375 c 0,-0.1875 0,-0.1875 -0.203125,-0.1875 -0.453125,0.4375 -1.078125,0.4375 -1.359375,0.4375 l 0,0.25 c 0.15625,0 0.625,0 1,-0.1875 l 0,3.546875 c 0,0.234375 0,0.328125 -0.6875,0.328125 l -0.265625,0 0,0.25 1.234375,-0.03125 z m 0,0"
               id="path38108" />
          </g>
        </g>
        <g
           id="g37775"
           style="fill:#4d4d4d;fill-opacity:1">
          <g
             id="use37777"
             transform="translate(150.912,134.765)"
             style="fill:#4d4d4d">
            <path
               inkscape:connector-curvature="0"
               style="fill:#4d4d4d;stroke:none"
               d="M 7.1875,-3.453125 C 7.1875,-3.65625 7,-3.65625 6.859375,-3.65625 l -5.96875,0 c -0.140625,0 -0.328125,0 -0.328125,0.203125 0,0.1875 0.1875,0.1875 0.328125,0.1875 l 5.953125,0 c 0.15625,0 0.34375,0 0.34375,-0.1875 z m 0,1.921875 c 0,-0.1875 -0.1875,-0.1875 -0.34375,-0.1875 l -5.953125,0 c -0.140625,0 -0.328125,0 -0.328125,0.1875 0,0.203125 0.1875,0.203125 0.328125,0.203125 l 5.96875,0 c 0.140625,0 0.328125,0 0.328125,-0.203125 z m 0,0"
               id="path38116" />
          </g>
        </g>
        <g
           id="g37779"
           style="fill:#4d4d4d;fill-opacity:1">
          <g
             id="use37781"
             transform="translate(161.42799,134.765)"
             style="fill:#4d4d4d">
            <path
               inkscape:connector-curvature="0"
               style="fill:#4d4d4d;stroke:none"
               d="m 5.65625,-4.0625 c 0,-0.234375 -0.21875,-0.234375 -0.40625,-0.234375 l -3.34375,0 c -0.21875,0 -0.59375,0 -1.03125,0.46875 -0.34375,0.390625 -0.609375,0.84375 -0.609375,0.890625 0,0 0,0.109375 0.125,0.109375 0.078125,0 0.09375,-0.046875 0.15625,-0.125 C 1.03125,-3.71875 1.609375,-3.71875 1.8125,-3.71875 l 0.5625,0 C 2.0625,-2.515625 1.53125,-1.3125 1.109375,-0.40625 1.03125,-0.25 1.03125,-0.234375 1.03125,-0.15625 c 0,0.1875 0.15625,0.265625 0.28125,0.265625 0.296875,0 0.375,-0.28125 0.5,-0.640625 C 1.953125,-1 1.953125,-1.015625 2.078125,-1.515625 l 0.5625,-2.203125 1.125,0 C 3.4375,-2.25 3.34375,-1.8125 3.34375,-1.140625 c 0,0.140625 0,0.40625 0.078125,0.75 0.109375,0.4375 0.21875,0.5 0.359375,0.5 0.203125,0 0.421875,-0.171875 0.421875,-0.375 0,-0.0625 0,-0.078125 -0.0625,-0.21875 -0.296875,-0.71875 -0.296875,-1.375 -0.296875,-1.65625 0,-0.515625 0.078125,-1.0625 0.1875,-1.578125 l 1.125,0 c 0.140625,0 0.5,0 0.5,-0.34375 z m 0,0"
               id="path38084" />
          </g>
        </g>
        <g
           id="g37783"
           style="fill:#4d4d4d;fill-opacity:1">
          <g
             id="use37785"
             transform="translate(167.46533,134.765)"
             style="fill:#4d4d4d">
            <path
               inkscape:connector-curvature="0"
               style="fill:#4d4d4d;stroke:none"
               d="m 4.421875,-7.28125 c 0,-0.109375 -0.078125,-0.203125 -0.1875,-0.203125 -0.078125,0 -0.140625,0.03125 -0.171875,0.09375 l -3.46875,9.5 C 0.546875,2.25 0.546875,2.296875 0.546875,2.296875 0.546875,2.40625 0.640625,2.5 0.75,2.5 0.875,2.5 0.90625,2.421875 0.96875,2.25 L 4.375,-7.09375 c 0.046875,-0.140625 0.046875,-0.1875 0.046875,-0.1875 z m 0,0"
               id="path38092" />
          </g>
        </g>
        <g
           id="g37787"
           style="fill:#4d4d4d;fill-opacity:1">
          <g
             id="use37789"
             transform="translate(172.446,134.765)"
             style="fill:#4d4d4d">
            <path
               inkscape:connector-curvature="0"
               style="fill:#4d4d4d;stroke:none"
               d="m 4.6875,-1.640625 0,-0.3125 -0.984375,0 0,-4.53125 c 0,-0.203125 0,-0.265625 -0.171875,-0.265625 -0.078125,0 -0.109375,0 -0.1875,0.125 l -3.0625,4.671875 0,0.3125 2.65625,0 0,0.859375 c 0,0.359375 -0.03125,0.46875 -0.765625,0.46875 l -0.203125,0 0,0.3125 C 2.375,-0.03125 2.890625,-0.03125 3.3125,-0.03125 c 0.421875,0 0.9375,0 1.359375,0.03125 l 0,-0.3125 -0.21875,0 c -0.734375,0 -0.75,-0.109375 -0.75,-0.46875 l 0,-0.859375 z m -1.703125,-0.3125 -2.421875,0 2.421875,-3.71875 z m 0,0"
               id="path38124" />
          </g>
        </g>
      </g>
    </g>
    <g
       id="g40097"
       transform="matrix(3.7564005,0,0,3.7564005,-244.95373,75.305433)"
       ns:preamble="/home/shark/PhD/inkscape/inkscape-header.tex"
       ns:text="$w$\n">
      <defs
         id="defs40099">
        <g
           id="g40101">
          <symbol
             id="textext-06ff5190-0"
             overflow="visible"
             style="overflow:visible">
            <path
               id="path40104"
               d=""
               style="stroke:none"
               inkscape:connector-curvature="0" />
          </symbol>
          <symbol
             id="textext-06ff5190-1"
             overflow="visible"
             style="overflow:visible">
            <path
               id="path40107"
               d="m 6.890625,-3.703125 c 0,-0.546875 -0.265625,-0.703125 -0.4375,-0.703125 -0.25,0 -0.5,0.265625 -0.5,0.484375 0,0.125 0.0625,0.1875 0.140625,0.265625 0.109375,0.109375 0.359375,0.359375 0.359375,0.84375 0,0.34375 -0.28125,1.3125 -0.546875,1.828125 -0.25,0.53125 -0.609375,0.875 -1.09375,0.875 -0.46875,0 -0.734375,-0.296875 -0.734375,-0.875 0,-0.265625 0.0625,-0.578125 0.109375,-0.71875 L 4.609375,-3.375 C 4.65625,-3.59375 4.75,-3.96875 4.75,-4.03125 c 0,-0.171875 -0.140625,-0.265625 -0.28125,-0.265625 -0.125,0 -0.296875,0.078125 -0.375,0.28125 -0.03125,0.0625 -0.5,1.96875 -0.5625,2.234375 C 3.453125,-1.484375 3.4375,-1.3125 3.4375,-1.125 c 0,0.109375 0,0.125 0.015625,0.171875 -0.234375,0.53125 -0.53125,0.84375 -0.921875,0.84375 -0.796875,0 -0.796875,-0.734375 -0.796875,-0.90625 0,-0.3125 0.046875,-0.703125 0.515625,-1.9375 0.109375,-0.296875 0.171875,-0.4375 0.171875,-0.640625 0,-0.4375 -0.328125,-0.8125 -0.8125,-0.8125 -0.953125,0 -1.3125,1.453125 -1.3125,1.53125 0,0.109375 0.109375,0.109375 0.109375,0.109375 0.109375,0 0.109375,-0.03125 0.15625,-0.1875 C 0.84375,-3.875 1.21875,-4.1875 1.578125,-4.1875 c 0.09375,0 0.25,0.015625 0.25,0.328125 0,0.25 -0.109375,0.53125 -0.1875,0.703125 -0.4375,1.171875 -0.546875,1.625 -0.546875,2.015625 0,0.90625 0.65625,1.25 1.40625,1.25 0.171875,0 0.640625,0 1.03125,-0.703125 0.265625,0.640625 0.953125,0.703125 1.25,0.703125 0.75,0 1.1875,-0.625 1.453125,-1.21875 0.328125,-0.78125 0.65625,-2.125 0.65625,-2.59375 z m 0,0"
               style="stroke:none"
               inkscape:connector-curvature="0" />
          </symbol>
        </g>
      </defs>
      <g
         id="textext-06ff5190-2">
        <g
           id="g40110"
           style="fill:#000000;fill-opacity:1">
          <use
             id="use40112"
             y="134.765"
             x="133.76801"
             xlink:href="#textext-06ff5190-1"
             width="100%"
             height="100%" />
        </g>
      </g>
    </g>
  </g>
</svg>
