<?xml version="1.0" encoding="UTF-8" standalone="no"?>
<!-- Created with Inkscape (http://www.inkscape.org/) -->

<svg
   xmlns:ns="http://www.iki.fi/pav/software/textext/"
   xmlns:dc="http://purl.org/dc/elements/1.1/"
   xmlns:cc="http://creativecommons.org/ns#"
   xmlns:rdf="http://www.w3.org/1999/02/22-rdf-syntax-ns#"
   xmlns:svg="http://www.w3.org/2000/svg"
   xmlns="http://www.w3.org/2000/svg"
   xmlns:xlink="http://www.w3.org/1999/xlink"
   xmlns:sodipodi="http://sodipodi.sourceforge.net/DTD/sodipodi-0.dtd"
   xmlns:inkscape="http://www.inkscape.org/namespaces/inkscape"
   width="203.89871"
   height="120.60797"
   viewBox="0 0 203.8987 120.60799"
   id="svg61615"
   version="1.1"
   inkscape:version="0.91 r13725"
   sodipodi:docname="interference.svg">
  <sodipodi:namedview
     id="base"
     pagecolor="#ffffff"
     bordercolor="#666666"
     borderopacity="1.0"
     inkscape:pageopacity="0.0"
     inkscape:pageshadow="2"
     inkscape:zoom="2.9227752"
     inkscape:cx="83.557867"
     inkscape:cy="44.041111"
     inkscape:document-units="px"
     inkscape:current-layer="layer1"
     showgrid="true"
     inkscape:snap-bbox="true"
     inkscape:snap-object-midpoints="true"
     inkscape:object-nodes="true"
     inkscape:window-width="1920"
     inkscape:window-height="1056"
     inkscape:window-x="1080"
     inkscape:window-y="500"
     inkscape:window-maximized="0"
     fit-margin-top="13"
     fit-margin-left="10"
     fit-margin-right="10"
     fit-margin-bottom="1"
     units="px"
     showguides="true"
     inkscape:guide-bbox="true">
    <inkscape:grid
       type="xygrid"
       id="grid62233"
       originx="-283.16774"
       originy="-596.24487" />
    <sodipodi:guide
       id="guide78427"
       orientation="1,0"
       position="-63.167753,23.755272" />
  </sodipodi:namedview>
  <defs
     id="defs61617">
    <marker
       inkscape:isstock="true"
       style="overflow:visible"
       id="marker12352"
       refX="0"
       refY="0"
       orient="auto"
       inkscape:stockid="Arrow1Mstart">
      <path
         transform="matrix(0.4,0,0,0.4,4,0)"
         style="fill:#008033;fill-opacity:1;fill-rule:evenodd;stroke:#008033;stroke-width:1pt;stroke-opacity:1"
         d="M 0,0 5,-5 -12.5,0 5,5 0,0 Z"
         id="path12354"
         inkscape:connector-curvature="0" />
    </marker>
    <marker
       inkscape:stockid="Arrow1Mend"
       orient="auto"
       refY="0"
       refX="0"
       id="marker11982"
       style="overflow:visible"
       inkscape:isstock="true">
      <path
         inkscape:connector-curvature="0"
         id="path11984"
         d="M 0,0 5,-5 -12.5,0 5,5 0,0 Z"
         style="fill:#ff0000;fill-opacity:1;fill-rule:evenodd;stroke:#ff0000;stroke-width:1pt;stroke-opacity:1"
         transform="matrix(-0.4,0,0,-0.4,-4,0)" />
    </marker>
    <marker
       inkscape:isstock="true"
       style="overflow:visible"
       id="marker11928"
       refX="0"
       refY="0"
       orient="auto"
       inkscape:stockid="Arrow1Mend">
      <path
         inkscape:connector-curvature="0"
         transform="matrix(-0.4,0,0,-0.4,-4,0)"
         style="fill:#ff0000;fill-opacity:1;fill-rule:evenodd;stroke:#ff0000;stroke-width:1pt;stroke-opacity:1"
         d="M 0,0 5,-5 -12.5,0 5,5 0,0 Z"
         id="path11930" />
    </marker>
    <marker
       inkscape:collect="always"
       inkscape:stockid="Arrow1Mend"
       orient="auto"
       refY="0"
       refX="0"
       id="marker6414"
       style="overflow:visible"
       inkscape:isstock="true">
      <path
         inkscape:connector-curvature="0"
         id="path6416"
         d="M 0,0 5,-5 -12.5,0 5,5 0,0 Z"
         style="fill:#0088aa;fill-opacity:1;fill-rule:evenodd;stroke:#0088aa;stroke-width:1pt;stroke-opacity:1"
         transform="matrix(-0.4,0,0,-0.4,-4,0)" />
    </marker>
    <marker
       inkscape:collect="always"
       inkscape:isstock="true"
       style="overflow:visible"
       id="Arrow1Mend"
       refX="0"
       refY="0"
       orient="auto"
       inkscape:stockid="Arrow1Mend">
      <path
         inkscape:connector-curvature="0"
         transform="matrix(-0.4,0,0,-0.4,-4,0)"
         style="fill:#0088aa;fill-opacity:1;fill-rule:evenodd;stroke:#0088aa;stroke-width:1pt;stroke-opacity:1"
         d="M 0,0 5,-5 -12.5,0 5,5 0,0 Z"
         id="path6163" />
    </marker>
    <marker
       inkscape:collect="always"
       inkscape:stockid="Arrow1Mstart"
       orient="auto"
       refY="0"
       refX="0"
       id="marker85175"
       style="overflow:visible"
       inkscape:isstock="true">
      <path
         inkscape:connector-curvature="0"
         id="path85177"
         d="M 0,0 5,-5 -12.5,0 5,5 0,0 Z"
         style="fill:#008033;fill-opacity:1;fill-rule:evenodd;stroke:#008033;stroke-width:1pt;stroke-opacity:1"
         transform="matrix(0.4,0,0,0.4,4,0)" />
    </marker>
    <marker
       inkscape:isstock="true"
       style="overflow:visible"
       id="marker84593"
       refX="0"
       refY="0"
       orient="auto"
       inkscape:stockid="Arrow1Mstart">
      <path
         inkscape:connector-curvature="0"
         transform="matrix(0.4,0,0,0.4,4,0)"
         style="fill:#000000;fill-opacity:1;fill-rule:evenodd;stroke:#000000;stroke-width:1pt;stroke-opacity:1"
         d="M 0,0 5,-5 -12.5,0 5,5 0,0 Z"
         id="path84595" />
    </marker>
    <marker
       inkscape:stockid="Arrow1Mstart"
       orient="auto"
       refY="0"
       refX="0"
       id="marker84433"
       style="overflow:visible"
       inkscape:isstock="true">
      <path
         inkscape:connector-curvature="0"
         id="path84435"
         d="M 0,0 5,-5 -12.5,0 5,5 0,0 Z"
         style="fill:#000000;fill-opacity:1;fill-rule:evenodd;stroke:#000000;stroke-width:1pt;stroke-opacity:1"
         transform="matrix(0.4,0,0,0.4,4,0)" />
    </marker>
    <marker
       inkscape:isstock="true"
       style="overflow:visible"
       id="marker83971"
       refX="0"
       refY="0"
       orient="auto"
       inkscape:stockid="Arrow1Lstart">
      <path
         inkscape:connector-curvature="0"
         transform="matrix(0.8,0,0,0.8,10,0)"
         style="fill:#000000;fill-opacity:1;fill-rule:evenodd;stroke:#000000;stroke-width:1pt;stroke-opacity:1"
         d="M 0,0 5,-5 -12.5,0 5,5 0,0 Z"
         id="path83973" />
    </marker>
    <marker
       inkscape:isstock="true"
       style="overflow:visible"
       id="marker83773"
       refX="0"
       refY="0"
       orient="auto"
       inkscape:stockid="Arrow1Lstart">
      <path
         inkscape:connector-curvature="0"
         transform="matrix(0.8,0,0,0.8,10,0)"
         style="fill:#000000;fill-opacity:1;fill-rule:evenodd;stroke:#000000;stroke-width:1pt;stroke-opacity:1"
         d="M 0,0 5,-5 -12.5,0 5,5 0,0 Z"
         id="path83775" />
    </marker>
    <marker
       inkscape:isstock="true"
       style="overflow:visible"
       id="marker83469"
       refX="0"
       refY="0"
       orient="auto"
       inkscape:stockid="Arrow2Mstart">
      <path
         inkscape:connector-curvature="0"
         transform="scale(0.6,0.6)"
         d="M 8.7185878,4.0337352 -2.2072895,0.01601326 8.7185884,-4.0017078 c -1.7454984,2.3720609 -1.7354408,5.6174519 -6e-7,8.035443 z"
         style="fill:#000000;fill-opacity:1;fill-rule:evenodd;stroke:#000000;stroke-width:0.625;stroke-linejoin:round;stroke-opacity:1"
         id="path83471" />
    </marker>
    <marker
       inkscape:isstock="true"
       style="overflow:visible"
       id="Arrow2Lend"
       refX="0"
       refY="0"
       orient="auto"
       inkscape:stockid="Arrow2Lend">
      <path
         inkscape:connector-curvature="0"
         transform="matrix(-1.1,0,0,-1.1,-1.1,0)"
         d="M 8.7185878,4.0337352 -2.2072895,0.01601326 8.7185884,-4.0017078 c -1.7454984,2.3720609 -1.7354408,5.6174519 -6e-7,8.035443 z"
         style="fill:#000000;fill-opacity:1;fill-rule:evenodd;stroke:#000000;stroke-width:0.625;stroke-linejoin:round;stroke-opacity:1"
         id="path82860" />
    </marker>
    <marker
       inkscape:isstock="true"
       style="overflow:visible"
       id="Arrow2Lstart"
       refX="0"
       refY="0"
       orient="auto"
       inkscape:stockid="Arrow2Lstart">
      <path
         inkscape:connector-curvature="0"
         transform="matrix(1.1,0,0,1.1,1.1,0)"
         d="M 8.7185878,4.0337352 -2.2072895,0.01601326 8.7185884,-4.0017078 c -1.7454984,2.3720609 -1.7354408,5.6174519 -6e-7,8.035443 z"
         style="fill:#000000;fill-opacity:1;fill-rule:evenodd;stroke:#000000;stroke-width:0.625;stroke-linejoin:round;stroke-opacity:1"
         id="path82857" />
    </marker>
    <marker
       inkscape:isstock="true"
       style="overflow:visible"
       id="Arrow2Mstart"
       refX="0"
       refY="0"
       orient="auto"
       inkscape:stockid="Arrow2Mstart">
      <path
         inkscape:connector-curvature="0"
         transform="scale(0.6,0.6)"
         d="M 8.7185878,4.0337352 -2.2072895,0.01601326 8.7185884,-4.0017078 c -1.7454984,2.3720609 -1.7354408,5.6174519 -6e-7,8.035443 z"
         style="fill:#000000;fill-opacity:1;fill-rule:evenodd;stroke:#000000;stroke-width:0.625;stroke-linejoin:round;stroke-opacity:1"
         id="path82863" />
    </marker>
    <marker
       inkscape:isstock="true"
       style="overflow:visible"
       id="Arrow1Mstart"
       refX="0"
       refY="0"
       orient="auto"
       inkscape:stockid="Arrow1Mstart">
      <path
         inkscape:connector-curvature="0"
         transform="matrix(0.4,0,0,0.4,4,0)"
         style="fill:#000000;fill-opacity:1;fill-rule:evenodd;stroke:#000000;stroke-width:1pt;stroke-opacity:1"
         d="M 0,0 5,-5 -12.5,0 5,5 0,0 Z"
         id="path82845" />
    </marker>
    <marker
       inkscape:isstock="true"
       style="overflow:visible"
       id="marker83279"
       refX="0"
       refY="0"
       orient="auto"
       inkscape:stockid="Arrow1Lstart">
      <path
         inkscape:connector-curvature="0"
         transform="matrix(0.8,0,0,0.8,10,0)"
         style="fill:#000000;fill-opacity:1;fill-rule:evenodd;stroke:#000000;stroke-width:1pt;stroke-opacity:1"
         d="M 0,0 5,-5 -12.5,0 5,5 0,0 Z"
         id="path83281" />
    </marker>
    <marker
       inkscape:isstock="true"
       style="overflow:visible"
       id="marker83205"
       refX="0"
       refY="0"
       orient="auto"
       inkscape:stockid="Arrow1Lstart">
      <path
         inkscape:connector-curvature="0"
         transform="matrix(0.8,0,0,0.8,10,0)"
         style="fill:#000000;fill-opacity:1;fill-rule:evenodd;stroke:#000000;stroke-width:1pt;stroke-opacity:1"
         d="M 0,0 5,-5 -12.5,0 5,5 0,0 Z"
         id="path83207" />
    </marker>
    <marker
       inkscape:isstock="true"
       style="overflow:visible"
       id="marker83145"
       refX="0"
       refY="0"
       orient="auto"
       inkscape:stockid="Arrow1Lstart">
      <path
         inkscape:connector-curvature="0"
         transform="matrix(0.8,0,0,0.8,10,0)"
         style="fill:#000000;fill-opacity:1;fill-rule:evenodd;stroke:#000000;stroke-width:1pt;stroke-opacity:1"
         d="M 0,0 5,-5 -12.5,0 5,5 0,0 Z"
         id="path83147" />
    </marker>
    <marker
       inkscape:isstock="true"
       style="overflow:visible"
       id="marker83123"
       refX="0"
       refY="0"
       orient="auto"
       inkscape:stockid="Arrow1Lstart">
      <path
         inkscape:connector-curvature="0"
         transform="matrix(0.8,0,0,0.8,10,0)"
         style="fill:#000000;fill-opacity:1;fill-rule:evenodd;stroke:#000000;stroke-width:1pt;stroke-opacity:1"
         d="M 0,0 5,-5 -12.5,0 5,5 0,0 Z"
         id="path83125" />
    </marker>
    <marker
       inkscape:isstock="true"
       style="overflow:visible"
       id="Arrow1Lend"
       refX="0"
       refY="0"
       orient="auto"
       inkscape:stockid="Arrow1Lend">
      <path
         inkscape:connector-curvature="0"
         transform="matrix(-0.8,0,0,-0.8,-10,0)"
         style="fill:#000000;fill-opacity:1;fill-rule:evenodd;stroke:#000000;stroke-width:1pt;stroke-opacity:1"
         d="M 0,0 5,-5 -12.5,0 5,5 0,0 Z"
         id="path82842" />
    </marker>
    <marker
       inkscape:isstock="true"
       style="overflow:visible"
       id="Arrow1Lstart"
       refX="0"
       refY="0"
       orient="auto"
       inkscape:stockid="Arrow1Lstart">
      <path
         inkscape:connector-curvature="0"
         transform="matrix(0.8,0,0,0.8,10,0)"
         style="fill:#000000;fill-opacity:1;fill-rule:evenodd;stroke:#000000;stroke-width:1pt;stroke-opacity:1"
         d="M 0,0 5,-5 -12.5,0 5,5 0,0 Z"
         id="path82839" />
    </marker>
  </defs>
  <metadata
     id="metadata61620">
    <rdf:RDF>
      <cc:Work
         rdf:about="">
        <dc:format>image/svg+xml</dc:format>
        <dc:type
           rdf:resource="http://purl.org/dc/dcmitype/StillImage" />
        <dc:title></dc:title>
      </cc:Work>
    </rdf:RDF>
  </metadata>
  <g
     inkscape:label="Ebene 1"
     inkscape:groupmode="layer"
     id="layer1"
     transform="translate(-283.16777,-335.50947)">
    <path
       style="fill:none;fill-rule:evenodd;stroke:#b3b3b3;stroke-width:0.60000002;stroke-linecap:butt;stroke-linejoin:miter;stroke-miterlimit:4;stroke-dasharray:2.4000001, 0.60000002;stroke-dashoffset:2.22000003;stroke-opacity:1"
       d="m 220,432.36222 79.99999,-60"
       id="path79156"
       inkscape:connector-curvature="0" />
    <path
       inkscape:connector-curvature="0"
       id="path81367"
       d="m 220,372.36222 79.99999,60"
       style="fill:none;fill-rule:evenodd;stroke:#b3b3b3;stroke-width:0.60000002;stroke-linecap:butt;stroke-linejoin:miter;stroke-miterlimit:4;stroke-dasharray:2.4000001, 0.60000002;stroke-dashoffset:2.22000003;stroke-opacity:1" />
    <g
       id="g79158"
       transform="matrix(1.6142738,0,0,1.6142738,75.61989,235.6782)"
       ns:preamble="/home/shark/PhD/inkscape/inkscape-header.tex"
       ns:text="$\\ket{\\downarrow}_+$\n">
      <defs
         id="defs79160">
        <g
           id="g79162">
          <symbol
             id="symbol79164"
             overflow="visible"
             style="overflow:visible">
            <path
               id="path79166"
               d=""
               style="stroke:none"
               inkscape:connector-curvature="0" />
          </symbol>
          <symbol
             id="symbol79168"
             overflow="visible"
             style="overflow:visible">
            <path
               id="path79170"
               d="m 1.578125,2.15625 0,-9.296875 c 0,-0.140625 0,-0.34375 -0.1875,-0.34375 -0.203125,0 -0.203125,0.203125 -0.203125,0.34375 l 0,9.296875 c 0,0.140625 0,0.34375 0.203125,0.34375 0.1875,0 0.1875,-0.203125 0.1875,-0.34375 z m 0,0"
               style="stroke:none"
               inkscape:connector-curvature="0" />
          </symbol>
          <symbol
             id="symbol79172"
             overflow="visible"
             style="overflow:visible">
            <path
               id="path79174"
               d="m 4.796875,-0.578125 0,-0.171875 c 0,-0.0625 -0.046875,-0.125 -0.125,-0.109375 -0.828125,0.1875 -1.546875,0.6875 -1.984375,1.40625 l 0,-7.265625 c 0,-0.140625 -0.109375,-0.203125 -0.203125,-0.203125 -0.109375,0 -0.203125,0.0625 -0.203125,0.203125 l 0,7.265625 C 1.828125,-0.171875 1.125,-0.671875 0.296875,-0.859375 0.21875,-0.875 0.171875,-0.8125 0.171875,-0.75 l 0,0.171875 c 0,0.0625 0.03125,0.09375 0.078125,0.109375 1.109375,0.265625 1.96875,1.171875 2.125,2.3125 0,0.046875 0.046875,0.09375 0.109375,0.09375 0.0625,0 0.09375,-0.046875 0.109375,-0.09375 0.15625,-1.140625 1,-2.046875 2.125,-2.3125 0.046875,-0.015625 0.078125,-0.046875 0.078125,-0.109375 z m 0,0"
               style="stroke:none"
               inkscape:connector-curvature="0" />
          </symbol>
          <symbol
             id="symbol79176"
             overflow="visible"
             style="overflow:visible">
            <path
               id="path79178"
               d="m 2.765625,-2.5 c 0,0 0,-0.046875 -0.046875,-0.171875 L 0.984375,-7.25 C 0.921875,-7.375 0.890625,-7.484375 0.75,-7.484375 c -0.109375,0 -0.1875,0.09375 -0.1875,0.203125 0,0 0,0.0625 0.046875,0.1875 l 1.75,4.59375 -1.75,4.609375 C 0.5625,2.234375 0.5625,2.296875 0.5625,2.296875 0.5625,2.40625 0.640625,2.5 0.75,2.5 0.890625,2.5 0.921875,2.40625 0.96875,2.296875 l 1.75,-4.609375 C 2.765625,-2.4375 2.765625,-2.5 2.765625,-2.5 Z m 0,0"
               style="stroke:none"
               inkscape:connector-curvature="0" />
          </symbol>
          <symbol
             id="symbol79180"
             overflow="visible"
             style="overflow:visible">
            <path
               id="path79182"
               d=""
               style="stroke:none"
               inkscape:connector-curvature="0" />
          </symbol>
          <symbol
             id="symbol79184"
             overflow="visible"
             style="overflow:visible">
            <path
               id="path79186"
               d="m 5.609375,-1.734375 c 0,-0.1875 -0.15625,-0.1875 -0.25,-0.1875 l -2.140625,0 0,-2.140625 c 0,-0.078125 0,-0.25 -0.15625,-0.25 -0.171875,0 -0.171875,0.15625 -0.171875,0.25 l 0,2.140625 -2.140625,0 c -0.09375,0 -0.265625,0 -0.265625,0.171875 0,0.171875 0.15625,0.171875 0.265625,0.171875 l 2.140625,0 0,2.140625 c 0,0.09375 0,0.265625 0.15625,0.265625 0.171875,0 0.171875,-0.171875 0.171875,-0.265625 l 0,-2.140625 2.140625,0 c 0.09375,0 0.25,0 0.25,-0.15625 z m 0,0"
               style="stroke:none"
               inkscape:connector-curvature="0" />
          </symbol>
        </g>
      </defs>
      <g
         id="g79188">
        <g
           id="g79190"
           style="fill:#000000;fill-opacity:1">
          <use
             id="use79192"
             y="134.765"
             x="133.76801"
             xlink:href="#textext-9efb6b9b-1"
             width="100%"
             height="100%" />
          <use
             id="use79194"
             y="134.765"
             x="136.53561"
             xlink:href="#textext-9efb6b9b-2"
             width="100%"
             height="100%" />
          <use
             id="use79196"
             y="134.765"
             x="141.51691"
             xlink:href="#textext-9efb6b9b-3"
             width="100%"
             height="100%" />
        </g>
        <g
           id="g79198"
           style="fill:#000000;fill-opacity:1">
          <use
             id="use79200"
             y="137.75301"
             x="145.39101"
             xlink:href="#textext-9efb6b9b-5"
             width="100%"
             height="100%" />
        </g>
      </g>
    </g>
    <g
       ns:text="$\\ket{\\downarrow}_+$\n"
       ns:preamble="/home/shark/PhD/inkscape/inkscape-header.tex"
       transform="matrix(1.6142738,0,0,1.6142738,155.61989,235.6782)"
       id="g79246">
      <defs
         id="defs79248">
        <g
           id="g79250">
          <symbol
             style="overflow:visible"
             overflow="visible"
             id="symbol79252">
            <path
               inkscape:connector-curvature="0"
               style="stroke:none"
               d=""
               id="path79254" />
          </symbol>
          <symbol
             style="overflow:visible"
             overflow="visible"
             id="symbol79256">
            <path
               inkscape:connector-curvature="0"
               style="stroke:none"
               d="m 1.578125,2.15625 0,-9.296875 c 0,-0.140625 0,-0.34375 -0.1875,-0.34375 -0.203125,0 -0.203125,0.203125 -0.203125,0.34375 l 0,9.296875 c 0,0.140625 0,0.34375 0.203125,0.34375 0.1875,0 0.1875,-0.203125 0.1875,-0.34375 z m 0,0"
               id="path79258" />
          </symbol>
          <symbol
             style="overflow:visible"
             overflow="visible"
             id="symbol79260">
            <path
               inkscape:connector-curvature="0"
               style="stroke:none"
               d="m 4.796875,-0.578125 0,-0.171875 c 0,-0.0625 -0.046875,-0.125 -0.125,-0.109375 -0.828125,0.1875 -1.546875,0.6875 -1.984375,1.40625 l 0,-7.265625 c 0,-0.140625 -0.109375,-0.203125 -0.203125,-0.203125 -0.109375,0 -0.203125,0.0625 -0.203125,0.203125 l 0,7.265625 C 1.828125,-0.171875 1.125,-0.671875 0.296875,-0.859375 0.21875,-0.875 0.171875,-0.8125 0.171875,-0.75 l 0,0.171875 c 0,0.0625 0.03125,0.09375 0.078125,0.109375 1.109375,0.265625 1.96875,1.171875 2.125,2.3125 0,0.046875 0.046875,0.09375 0.109375,0.09375 0.0625,0 0.09375,-0.046875 0.109375,-0.09375 0.15625,-1.140625 1,-2.046875 2.125,-2.3125 0.046875,-0.015625 0.078125,-0.046875 0.078125,-0.109375 z m 0,0"
               id="path79262" />
          </symbol>
          <symbol
             style="overflow:visible"
             overflow="visible"
             id="symbol79264">
            <path
               inkscape:connector-curvature="0"
               style="stroke:none"
               d="m 2.765625,-2.5 c 0,0 0,-0.046875 -0.046875,-0.171875 L 0.984375,-7.25 C 0.921875,-7.375 0.890625,-7.484375 0.75,-7.484375 c -0.109375,0 -0.1875,0.09375 -0.1875,0.203125 0,0 0,0.0625 0.046875,0.1875 l 1.75,4.59375 -1.75,4.609375 C 0.5625,2.234375 0.5625,2.296875 0.5625,2.296875 0.5625,2.40625 0.640625,2.5 0.75,2.5 0.890625,2.5 0.921875,2.40625 0.96875,2.296875 l 1.75,-4.609375 C 2.765625,-2.4375 2.765625,-2.5 2.765625,-2.5 Z m 0,0"
               id="path79266" />
          </symbol>
          <symbol
             style="overflow:visible"
             overflow="visible"
             id="symbol79268">
            <path
               inkscape:connector-curvature="0"
               style="stroke:none"
               d=""
               id="path79270" />
          </symbol>
          <symbol
             style="overflow:visible"
             overflow="visible"
             id="symbol79272">
            <path
               inkscape:connector-curvature="0"
               style="stroke:none"
               d="m 5.609375,-1.734375 c 0,-0.1875 -0.15625,-0.1875 -0.25,-0.1875 l -2.140625,0 0,-2.140625 c 0,-0.078125 0,-0.25 -0.15625,-0.25 -0.171875,0 -0.171875,0.15625 -0.171875,0.25 l 0,2.140625 -2.140625,0 c -0.09375,0 -0.265625,0 -0.265625,0.171875 0,0.171875 0.15625,0.171875 0.265625,0.171875 l 2.140625,0 0,2.140625 c 0,0.09375 0,0.265625 0.15625,0.265625 0.171875,0 0.171875,-0.171875 0.171875,-0.265625 l 0,-2.140625 2.140625,0 c 0.09375,0 0.25,0 0.25,-0.15625 z m 0,0"
               id="path79274" />
          </symbol>
        </g>
      </defs>
      <g
         id="g79276">
        <g
           style="fill:#000000;fill-opacity:1"
           id="g79278">
          <use
             height="100%"
             width="100%"
             xlink:href="#textext-9efb6b9b-1"
             x="133.76801"
             y="134.765"
             id="use79280" />
          <use
             height="100%"
             width="100%"
             xlink:href="#textext-9efb6b9b-2"
             x="136.53561"
             y="134.765"
             id="use79282" />
          <use
             height="100%"
             width="100%"
             xlink:href="#textext-9efb6b9b-3"
             x="141.51691"
             y="134.765"
             id="use79284" />
        </g>
        <g
           style="fill:#000000;fill-opacity:1"
           id="g79286">
          <use
             height="100%"
             width="100%"
             xlink:href="#textext-9efb6b9b-5"
             x="145.39101"
             y="137.75301"
             id="use79288" />
        </g>
      </g>
    </g>
    <g
       id="g79334"
       transform="matrix(1.6142738,0,0,1.6142738,235.61989,235.6782)"
       ns:preamble="/home/shark/PhD/inkscape/inkscape-header.tex"
       ns:text="$\\ket{\\downarrow}_+$\n">
      <defs
         id="defs79336">
        <g
           id="g79338">
          <symbol
             id="symbol79340"
             overflow="visible"
             style="overflow:visible">
            <path
               id="path79342"
               d=""
               style="stroke:none"
               inkscape:connector-curvature="0" />
          </symbol>
          <symbol
             id="symbol79344"
             overflow="visible"
             style="overflow:visible">
            <path
               id="path79346"
               d="m 1.578125,2.15625 0,-9.296875 c 0,-0.140625 0,-0.34375 -0.1875,-0.34375 -0.203125,0 -0.203125,0.203125 -0.203125,0.34375 l 0,9.296875 c 0,0.140625 0,0.34375 0.203125,0.34375 0.1875,0 0.1875,-0.203125 0.1875,-0.34375 z m 0,0"
               style="stroke:none"
               inkscape:connector-curvature="0" />
          </symbol>
          <symbol
             id="symbol79348"
             overflow="visible"
             style="overflow:visible">
            <path
               id="path79350"
               d="m 4.796875,-0.578125 0,-0.171875 c 0,-0.0625 -0.046875,-0.125 -0.125,-0.109375 -0.828125,0.1875 -1.546875,0.6875 -1.984375,1.40625 l 0,-7.265625 c 0,-0.140625 -0.109375,-0.203125 -0.203125,-0.203125 -0.109375,0 -0.203125,0.0625 -0.203125,0.203125 l 0,7.265625 C 1.828125,-0.171875 1.125,-0.671875 0.296875,-0.859375 0.21875,-0.875 0.171875,-0.8125 0.171875,-0.75 l 0,0.171875 c 0,0.0625 0.03125,0.09375 0.078125,0.109375 1.109375,0.265625 1.96875,1.171875 2.125,2.3125 0,0.046875 0.046875,0.09375 0.109375,0.09375 0.0625,0 0.09375,-0.046875 0.109375,-0.09375 0.15625,-1.140625 1,-2.046875 2.125,-2.3125 0.046875,-0.015625 0.078125,-0.046875 0.078125,-0.109375 z m 0,0"
               style="stroke:none"
               inkscape:connector-curvature="0" />
          </symbol>
          <symbol
             id="symbol79352"
             overflow="visible"
             style="overflow:visible">
            <path
               id="path79354"
               d="m 2.765625,-2.5 c 0,0 0,-0.046875 -0.046875,-0.171875 L 0.984375,-7.25 C 0.921875,-7.375 0.890625,-7.484375 0.75,-7.484375 c -0.109375,0 -0.1875,0.09375 -0.1875,0.203125 0,0 0,0.0625 0.046875,0.1875 l 1.75,4.59375 -1.75,4.609375 C 0.5625,2.234375 0.5625,2.296875 0.5625,2.296875 0.5625,2.40625 0.640625,2.5 0.75,2.5 0.890625,2.5 0.921875,2.40625 0.96875,2.296875 l 1.75,-4.609375 C 2.765625,-2.4375 2.765625,-2.5 2.765625,-2.5 Z m 0,0"
               style="stroke:none"
               inkscape:connector-curvature="0" />
          </symbol>
          <symbol
             id="symbol79356"
             overflow="visible"
             style="overflow:visible">
            <path
               id="path79358"
               d=""
               style="stroke:none"
               inkscape:connector-curvature="0" />
          </symbol>
          <symbol
             id="symbol79360"
             overflow="visible"
             style="overflow:visible">
            <path
               id="path79362"
               d="m 5.609375,-1.734375 c 0,-0.1875 -0.15625,-0.1875 -0.25,-0.1875 l -2.140625,0 0,-2.140625 c 0,-0.078125 0,-0.25 -0.15625,-0.25 -0.171875,0 -0.171875,0.15625 -0.171875,0.25 l 0,2.140625 -2.140625,0 c -0.09375,0 -0.265625,0 -0.265625,0.171875 0,0.171875 0.15625,0.171875 0.265625,0.171875 l 2.140625,0 0,2.140625 c 0,0.09375 0,0.265625 0.15625,0.265625 0.171875,0 0.171875,-0.171875 0.171875,-0.265625 l 0,-2.140625 2.140625,0 c 0.09375,0 0.25,0 0.25,-0.15625 z m 0,0"
               style="stroke:none"
               inkscape:connector-curvature="0" />
          </symbol>
        </g>
      </defs>
      <g
         id="g79364">
        <g
           id="g79366"
           style="fill:#000000;fill-opacity:1">
          <use
             id="use79368"
             y="134.765"
             x="133.76801"
             xlink:href="#textext-9efb6b9b-1"
             width="100%"
             height="100%" />
          <use
             id="use79370"
             y="134.765"
             x="136.53561"
             xlink:href="#textext-9efb6b9b-2"
             width="100%"
             height="100%" />
          <use
             id="use79372"
             y="134.765"
             x="141.51691"
             xlink:href="#textext-9efb6b9b-3"
             width="100%"
             height="100%" />
        </g>
        <g
           id="g79374"
           style="fill:#000000;fill-opacity:1">
          <use
             id="use79376"
             y="137.75301"
             x="145.39101"
             xlink:href="#textext-9efb6b9b-5"
             width="100%"
             height="100%" />
        </g>
      </g>
    </g>
    <g
       ns:text="$\\ket{\\downarrow}_+$\n"
       ns:preamble="/home/shark/PhD/inkscape/inkscape-header.tex"
       transform="matrix(1.6142738,0,0,1.6142738,315.61989,235.6782)"
       id="g79422">
      <defs
         id="defs79424">
        <g
           id="g79426">
          <symbol
             style="overflow:visible"
             overflow="visible"
             id="symbol79428">
            <path
               inkscape:connector-curvature="0"
               style="stroke:none"
               d=""
               id="path79430" />
          </symbol>
          <symbol
             style="overflow:visible"
             overflow="visible"
             id="symbol79432">
            <path
               inkscape:connector-curvature="0"
               style="stroke:none"
               d="m 1.578125,2.15625 0,-9.296875 c 0,-0.140625 0,-0.34375 -0.1875,-0.34375 -0.203125,0 -0.203125,0.203125 -0.203125,0.34375 l 0,9.296875 c 0,0.140625 0,0.34375 0.203125,0.34375 0.1875,0 0.1875,-0.203125 0.1875,-0.34375 z m 0,0"
               id="path79434" />
          </symbol>
          <symbol
             style="overflow:visible"
             overflow="visible"
             id="symbol79436">
            <path
               inkscape:connector-curvature="0"
               style="stroke:none"
               d="m 4.796875,-0.578125 0,-0.171875 c 0,-0.0625 -0.046875,-0.125 -0.125,-0.109375 -0.828125,0.1875 -1.546875,0.6875 -1.984375,1.40625 l 0,-7.265625 c 0,-0.140625 -0.109375,-0.203125 -0.203125,-0.203125 -0.109375,0 -0.203125,0.0625 -0.203125,0.203125 l 0,7.265625 C 1.828125,-0.171875 1.125,-0.671875 0.296875,-0.859375 0.21875,-0.875 0.171875,-0.8125 0.171875,-0.75 l 0,0.171875 c 0,0.0625 0.03125,0.09375 0.078125,0.109375 1.109375,0.265625 1.96875,1.171875 2.125,2.3125 0,0.046875 0.046875,0.09375 0.109375,0.09375 0.0625,0 0.09375,-0.046875 0.109375,-0.09375 0.15625,-1.140625 1,-2.046875 2.125,-2.3125 0.046875,-0.015625 0.078125,-0.046875 0.078125,-0.109375 z m 0,0"
               id="path79438" />
          </symbol>
          <symbol
             style="overflow:visible"
             overflow="visible"
             id="symbol79440">
            <path
               inkscape:connector-curvature="0"
               style="stroke:none"
               d="m 2.765625,-2.5 c 0,0 0,-0.046875 -0.046875,-0.171875 L 0.984375,-7.25 C 0.921875,-7.375 0.890625,-7.484375 0.75,-7.484375 c -0.109375,0 -0.1875,0.09375 -0.1875,0.203125 0,0 0,0.0625 0.046875,0.1875 l 1.75,4.59375 -1.75,4.609375 C 0.5625,2.234375 0.5625,2.296875 0.5625,2.296875 0.5625,2.40625 0.640625,2.5 0.75,2.5 0.890625,2.5 0.921875,2.40625 0.96875,2.296875 l 1.75,-4.609375 C 2.765625,-2.4375 2.765625,-2.5 2.765625,-2.5 Z m 0,0"
               id="path79442" />
          </symbol>
          <symbol
             style="overflow:visible"
             overflow="visible"
             id="symbol79444">
            <path
               inkscape:connector-curvature="0"
               style="stroke:none"
               d=""
               id="path79446" />
          </symbol>
          <symbol
             style="overflow:visible"
             overflow="visible"
             id="symbol79448">
            <path
               inkscape:connector-curvature="0"
               style="stroke:none"
               d="m 5.609375,-1.734375 c 0,-0.1875 -0.15625,-0.1875 -0.25,-0.1875 l -2.140625,0 0,-2.140625 c 0,-0.078125 0,-0.25 -0.15625,-0.25 -0.171875,0 -0.171875,0.15625 -0.171875,0.25 l 0,2.140625 -2.140625,0 c -0.09375,0 -0.265625,0 -0.265625,0.171875 0,0.171875 0.15625,0.171875 0.265625,0.171875 l 2.140625,0 0,2.140625 c 0,0.09375 0,0.265625 0.15625,0.265625 0.171875,0 0.171875,-0.171875 0.171875,-0.265625 l 0,-2.140625 2.140625,0 c 0.09375,0 0.25,0 0.25,-0.15625 z m 0,0"
               id="path79450" />
          </symbol>
        </g>
      </defs>
      <g
         id="g79452">
        <g
           style="fill:#000000;fill-opacity:1"
           id="g79454">
          <use
             height="100%"
             width="100%"
             xlink:href="#textext-9efb6b9b-1"
             x="133.76801"
             y="134.765"
             id="use79456" />
          <use
             height="100%"
             width="100%"
             xlink:href="#textext-9efb6b9b-2"
             x="136.53561"
             y="134.765"
             id="use79458" />
          <use
             height="100%"
             width="100%"
             xlink:href="#textext-9efb6b9b-3"
             x="141.51691"
             y="134.765"
             id="use79460" />
        </g>
        <g
           style="fill:#000000;fill-opacity:1"
           id="g79462">
          <use
             height="100%"
             width="100%"
             xlink:href="#textext-9efb6b9b-5"
             x="145.39101"
             y="137.75301"
             id="use79464" />
        </g>
      </g>
    </g>
    <path
       inkscape:connector-curvature="0"
       id="path81982"
       d="m 300,432.36222 79.99999,-60"
       style="fill:none;fill-rule:evenodd;stroke:#b3b3b3;stroke-width:0.60000002;stroke-linecap:butt;stroke-linejoin:miter;stroke-miterlimit:4;stroke-dasharray:2.4000001, 0.60000002;stroke-dashoffset:2.22000003;stroke-opacity:1" />
    <path
       style="fill:none;fill-rule:evenodd;stroke:#b3b3b3;stroke-width:0.60000002;stroke-linecap:butt;stroke-linejoin:miter;stroke-miterlimit:4;stroke-dasharray:2.4000001, 0.60000002;stroke-dashoffset:2.22000003;stroke-opacity:1"
       d="m 300,372.36222 79.99999,60"
       id="path81984"
       inkscape:connector-curvature="0" />
    <path
       style="fill:none;fill-rule:evenodd;stroke:#b3b3b3;stroke-width:0.60000002;stroke-linecap:butt;stroke-linejoin:miter;stroke-miterlimit:4;stroke-dasharray:2.4000001, 0.60000002;stroke-dashoffset:2.22000003;stroke-opacity:1"
       d="m 380,432.36222 79.99999,-60"
       id="path81986"
       inkscape:connector-curvature="0" />
    <path
       inkscape:connector-curvature="0"
       id="path81988"
       d="m 380,372.36222 79.99999,60"
       style="fill:none;fill-rule:evenodd;stroke:#b3b3b3;stroke-width:0.60000002;stroke-linecap:butt;stroke-linejoin:miter;stroke-miterlimit:4;stroke-dasharray:2.4000001, 0.60000002;stroke-dashoffset:2.22000003;stroke-opacity:1" />
    <path
       inkscape:connector-curvature="0"
       id="path81990"
       d="m 460,432.36222 79.99999,-60"
       style="fill:none;fill-rule:evenodd;stroke:#b3b3b3;stroke-width:0.60000002;stroke-linecap:butt;stroke-linejoin:miter;stroke-miterlimit:4;stroke-dasharray:2.4000001, 0.60000002;stroke-dashoffset:2.22000003;stroke-opacity:1" />
    <path
       style="fill:none;fill-rule:evenodd;stroke:#b3b3b3;stroke-width:0.60000002;stroke-linecap:butt;stroke-linejoin:miter;stroke-miterlimit:4;stroke-dasharray:2.4000001, 0.60000002;stroke-dashoffset:2.22000003;stroke-opacity:1"
       d="m 460,372.36222 79.99999,60"
       id="path81992"
       inkscape:connector-curvature="0" />
    <path
       sodipodi:nodetypes="ccc"
       inkscape:connector-curvature="0"
       id="path82833"
       d="m 299.99999,432.36222 36.67417,0 43.32583,0"
       style="opacity:1;fill:none;fill-rule:evenodd;stroke:#b3b3b3;stroke-width:1px;stroke-linecap:butt;stroke-linejoin:miter;stroke-opacity:1" />
    <path
       style="opacity:1;fill:none;fill-rule:evenodd;stroke:#b3b3b3;stroke-width:1px;stroke-linecap:butt;stroke-linejoin:miter;stroke-opacity:1"
       d="m 379.99999,432.36222 36.67417,0 43.32583,0"
       id="path84285"
       inkscape:connector-curvature="0"
       sodipodi:nodetypes="ccc" />
    <path
       sodipodi:nodetypes="ccc"
       inkscape:connector-curvature="0"
       id="path84357"
       d="m 459.99999,432.36222 36.67417,0 43.32583,0"
       style="opacity:1;fill:none;fill-rule:evenodd;stroke:#b3b3b3;stroke-width:1px;stroke-linecap:butt;stroke-linejoin:miter;stroke-opacity:1" />
    <path
       style="opacity:1;fill:none;fill-rule:evenodd;stroke:#b3b3b3;stroke-width:1px;stroke-linecap:butt;stroke-linejoin:miter;stroke-opacity:1"
       d="m 219.99999,432.36222 36.67417,0 43.32583,0"
       id="path84513"
       inkscape:connector-curvature="0"
       sodipodi:nodetypes="ccc" />
    <path
       sodipodi:nodetypes="ccc"
       inkscape:connector-curvature="0"
       id="path84677"
       d="m 299.99999,372.36222 -36.67417,0 -43.32583,0"
       style="opacity:1;fill:none;fill-rule:evenodd;stroke:#b3b3b3;stroke-width:1px;stroke-linecap:butt;stroke-linejoin:miter;stroke-opacity:1" />
    <path
       sodipodi:nodetypes="ccc"
       inkscape:connector-curvature="0"
       id="path84861"
       d="m 379.99999,372.36222 -36.67417,0 -43.32583,0"
       style="opacity:1;fill:none;fill-rule:evenodd;stroke:#b3b3b3;stroke-width:1px;stroke-linecap:butt;stroke-linejoin:miter;stroke-opacity:1" />
    <path
       style="opacity:1;fill:none;fill-rule:evenodd;stroke:#b3b3b3;stroke-width:1px;stroke-linecap:butt;stroke-linejoin:miter;stroke-opacity:1"
       d="m 459.99999,372.36222 -36.67417,0 -43.32583,0"
       id="path84971"
       inkscape:connector-curvature="0"
       sodipodi:nodetypes="ccc" />
    <path
       sodipodi:nodetypes="ccc"
       inkscape:connector-curvature="0"
       id="path85071"
       d="m 539.99999,372.36222 -36.67417,0 -43.32583,0"
       style="opacity:1;fill:none;fill-rule:evenodd;stroke:#b3b3b3;stroke-width:1px;stroke-linecap:butt;stroke-linejoin:miter;stroke-opacity:1" />
    <path
       style="fill:#55ff99"
       inkscape:connector-curvature="0"
       sodipodi:nodetypes="ssssssss"
       d="m 456.5756,378.27174 c -3.26448,-1.89127 -4.37766,-6.0708 -2.48638,-9.33528 0.47282,-0.81612 1.08868,-1.49781 1.79747,-2.03168 0.70884,-0.53382 1.51055,-0.91994 2.35522,-1.1449 0.84468,-0.22496 1.72856,-0.28525 2.60892,-0.17498 0.88042,0.11056 1.7575,0.39237 2.57362,0.86517 3.26443,1.89128 4.3776,6.0708 2.48632,9.33529 -1.89127,3.26442 -6.0708,4.3776 -9.33528,2.48638 z"
       id="path62263" />
    <g
       ns:text="$\\downarrow$\n"
       ns:preamble="/home/shark/PhD/inkscape/inkscape-header.tex"
       transform="matrix(1.0832666,0,0,-1.0832666,312.40235,515.64892)"
       id="g82771">
      <defs
         id="defs82773">
        <g
           id="g82775">
          <symbol
             style="overflow:visible"
             overflow="visible"
             id="symbol82777">
            <path
               inkscape:connector-curvature="0"
               style="stroke:none"
               d=""
               id="path82779" />
          </symbol>
          <symbol
             style="overflow:visible"
             overflow="visible"
             id="symbol82781">
            <path
               inkscape:connector-curvature="0"
               style="stroke:none"
               d="m 4.796875,-0.578125 0,-0.171875 c 0,-0.0625 -0.046875,-0.125 -0.125,-0.109375 -0.828125,0.1875 -1.546875,0.6875 -1.984375,1.40625 l 0,-7.265625 c 0,-0.140625 -0.109375,-0.203125 -0.203125,-0.203125 -0.109375,0 -0.203125,0.0625 -0.203125,0.203125 l 0,7.265625 C 1.828125,-0.171875 1.125,-0.671875 0.296875,-0.859375 0.21875,-0.875 0.171875,-0.8125 0.171875,-0.75 l 0,0.171875 c 0,0.0625 0.03125,0.09375 0.078125,0.109375 1.109375,0.265625 1.96875,1.171875 2.125,2.3125 0,0.046875 0.046875,0.09375 0.109375,0.09375 0.0625,0 0.09375,-0.046875 0.109375,-0.09375 0.15625,-1.140625 1,-2.046875 2.125,-2.3125 0.046875,-0.015625 0.078125,-0.046875 0.078125,-0.109375 z m 0,0"
               id="path82783" />
          </symbol>
        </g>
      </defs>
      <g
         id="g82785">
        <g
           style="fill:#000000;fill-opacity:1"
           id="g82787">
          <g
             transform="translate(133.76801,134.765)"
             id="use82789">
            <path
               id="path17059"
               d="m 4.796875,-0.578125 0,-0.171875 c 0,-0.0625 -0.046875,-0.125 -0.125,-0.109375 -0.828125,0.1875 -1.546875,0.6875 -1.984375,1.40625 l 0,-7.265625 c 0,-0.140625 -0.109375,-0.203125 -0.203125,-0.203125 -0.109375,0 -0.203125,0.0625 -0.203125,0.203125 l 0,7.265625 C 1.828125,-0.171875 1.125,-0.671875 0.296875,-0.859375 0.21875,-0.875 0.171875,-0.8125 0.171875,-0.75 l 0,0.171875 c 0,0.0625 0.03125,0.09375 0.078125,0.109375 1.109375,0.265625 1.96875,1.171875 2.125,2.3125 0,0.046875 0.046875,0.09375 0.109375,0.09375 0.0625,0 0.09375,-0.046875 0.109375,-0.09375 0.15625,-1.140625 1,-2.046875 2.125,-2.3125 0.046875,-0.015625 0.078125,-0.046875 0.078125,-0.109375 z m 0,0"
               style="stroke:none"
               inkscape:connector-curvature="0" />
          </g>
        </g>
      </g>
    </g>
    <path
       style="fill:#80e5ff"
       inkscape:connector-curvature="0"
       sodipodi:nodetypes="ssssssss"
       d="m 296.57561,438.27174 c -3.26448,-1.89127 -4.37766,-6.0708 -2.48638,-9.33528 0.47281,-0.81612 1.08868,-1.49781 1.79746,-2.03168 0.70885,-0.53382 1.51056,-0.91994 2.35523,-1.1449 0.84468,-0.22496 1.72856,-0.28525 2.60892,-0.17498 0.88042,0.11056 1.75749,0.39237 2.57361,0.86517 3.26443,1.89128 4.37761,6.0708 2.48633,9.33529 -1.89127,3.26442 -6.0708,4.3776 -9.33528,2.48638 z"
       id="path62302" />
    <g
       id="g82671"
       transform="matrix(1.0832666,0,0,1.0832666,152.40235,289.07548)"
       ns:preamble="/home/shark/PhD/inkscape/inkscape-header.tex"
       ns:text="$\\downarrow$\n">
      <defs
         id="defs82673">
        <g
           id="g82675">
          <symbol
             id="symbol82677"
             overflow="visible"
             style="overflow:visible">
            <path
               id="path82679"
               d=""
               style="stroke:none"
               inkscape:connector-curvature="0" />
          </symbol>
          <symbol
             id="symbol82681"
             overflow="visible"
             style="overflow:visible">
            <path
               id="path82683"
               d="m 4.796875,-0.578125 0,-0.171875 c 0,-0.0625 -0.046875,-0.125 -0.125,-0.109375 -0.828125,0.1875 -1.546875,0.6875 -1.984375,1.40625 l 0,-7.265625 c 0,-0.140625 -0.109375,-0.203125 -0.203125,-0.203125 -0.109375,0 -0.203125,0.0625 -0.203125,0.203125 l 0,7.265625 C 1.828125,-0.171875 1.125,-0.671875 0.296875,-0.859375 0.21875,-0.875 0.171875,-0.8125 0.171875,-0.75 l 0,0.171875 c 0,0.0625 0.03125,0.09375 0.078125,0.109375 1.109375,0.265625 1.96875,1.171875 2.125,2.3125 0,0.046875 0.046875,0.09375 0.109375,0.09375 0.0625,0 0.09375,-0.046875 0.109375,-0.09375 0.15625,-1.140625 1,-2.046875 2.125,-2.3125 0.046875,-0.015625 0.078125,-0.046875 0.078125,-0.109375 z m 0,0"
               style="stroke:none"
               inkscape:connector-curvature="0" />
          </symbol>
        </g>
      </defs>
      <g
         id="g82685">
        <g
           id="g82687"
           style="fill:#000000;fill-opacity:1">
          <g
             transform="translate(133.76801,134.765)"
             id="use82689">
            <path
               id="path17063"
               d="m 4.796875,-0.578125 0,-0.171875 c 0,-0.0625 -0.046875,-0.125 -0.125,-0.109375 -0.828125,0.1875 -1.546875,0.6875 -1.984375,1.40625 l 0,-7.265625 c 0,-0.140625 -0.109375,-0.203125 -0.203125,-0.203125 -0.109375,0 -0.203125,0.0625 -0.203125,0.203125 l 0,7.265625 C 1.828125,-0.171875 1.125,-0.671875 0.296875,-0.859375 0.21875,-0.875 0.171875,-0.8125 0.171875,-0.75 l 0,0.171875 c 0,0.0625 0.03125,0.09375 0.078125,0.109375 1.109375,0.265625 1.96875,1.171875 2.125,2.3125 0,0.046875 0.046875,0.09375 0.109375,0.09375 0.0625,0 0.09375,-0.046875 0.109375,-0.09375 0.15625,-1.140625 1,-2.046875 2.125,-2.3125 0.046875,-0.015625 0.078125,-0.046875 0.078125,-0.109375 z m 0,0"
               style="stroke:none"
               inkscape:connector-curvature="0" />
          </g>
        </g>
      </g>
    </g>
    <g
       id="g85353"
       transform="matrix(1.6142738,0,0,1.6142738,101.10841,146.62714)"
       ns:preamble="/home/shark/PhD/inkscape/inkscape-header.tex"
       ns:text="$w_d \\ef{2i \\delta}$\n">
      <defs
         id="defs85355">
        <g
           id="g85357">
          <symbol
             id="symbol85359"
             overflow="visible"
             style="overflow:visible">
            <path
               id="path85361"
               d=""
               style="stroke:none"
               inkscape:connector-curvature="0" />
          </symbol>
          <symbol
             id="symbol85363"
             overflow="visible"
             style="overflow:visible">
            <path
               id="path85365"
               d="m 6.890625,-3.703125 c 0,-0.546875 -0.265625,-0.703125 -0.4375,-0.703125 -0.25,0 -0.5,0.265625 -0.5,0.484375 0,0.125 0.0625,0.1875 0.140625,0.265625 0.109375,0.109375 0.359375,0.359375 0.359375,0.84375 0,0.34375 -0.28125,1.3125 -0.546875,1.828125 -0.25,0.53125 -0.609375,0.875 -1.09375,0.875 -0.46875,0 -0.734375,-0.296875 -0.734375,-0.875 0,-0.265625 0.0625,-0.578125 0.109375,-0.71875 L 4.609375,-3.375 C 4.65625,-3.59375 4.75,-3.96875 4.75,-4.03125 c 0,-0.171875 -0.140625,-0.265625 -0.28125,-0.265625 -0.125,0 -0.296875,0.078125 -0.375,0.28125 -0.03125,0.0625 -0.5,1.96875 -0.5625,2.234375 C 3.453125,-1.484375 3.4375,-1.3125 3.4375,-1.125 c 0,0.109375 0,0.125 0.015625,0.171875 -0.234375,0.53125 -0.53125,0.84375 -0.921875,0.84375 -0.796875,0 -0.796875,-0.734375 -0.796875,-0.90625 0,-0.3125 0.046875,-0.703125 0.515625,-1.9375 0.109375,-0.296875 0.171875,-0.4375 0.171875,-0.640625 0,-0.4375 -0.328125,-0.8125 -0.8125,-0.8125 -0.953125,0 -1.3125,1.453125 -1.3125,1.53125 0,0.109375 0.109375,0.109375 0.109375,0.109375 0.109375,0 0.109375,-0.03125 0.15625,-0.1875 C 0.84375,-3.875 1.21875,-4.1875 1.578125,-4.1875 c 0.09375,0 0.25,0.015625 0.25,0.328125 0,0.25 -0.109375,0.53125 -0.1875,0.703125 -0.4375,1.171875 -0.546875,1.625 -0.546875,2.015625 0,0.90625 0.65625,1.25 1.40625,1.25 0.171875,0 0.640625,0 1.03125,-0.703125 0.265625,0.640625 0.953125,0.703125 1.25,0.703125 0.75,0 1.1875,-0.625 1.453125,-1.21875 0.328125,-0.78125 0.65625,-2.125 0.65625,-2.59375 z m 0,0"
               style="stroke:none"
               inkscape:connector-curvature="0" />
          </symbol>
          <symbol
             id="symbol85367"
             overflow="visible"
             style="overflow:visible">
            <path
               id="path85369"
               d=""
               style="stroke:none"
               inkscape:connector-curvature="0" />
          </symbol>
          <symbol
             id="symbol85371"
             overflow="visible"
             style="overflow:visible">
            <path
               id="path85373"
               d="m 3.984375,-1 c 0,-0.09375 -0.09375,-0.09375 -0.109375,-0.09375 -0.109375,0 -0.109375,0.03125 -0.15625,0.21875 C 3.625,-0.53125 3.5,-0.125 3.203125,-0.125 3.03125,-0.125 2.96875,-0.28125 2.96875,-0.46875 c 0,-0.125 0.015625,-0.1875 0.046875,-0.28125 l 0.96875,-3.875 C 3.984375,-4.640625 4,-4.734375 4,-4.734375 4,-4.78125 3.984375,-4.84375 3.890625,-4.84375 3.75,-4.84375 3.171875,-4.78125 3,-4.765625 c -0.046875,0 -0.15625,0.015625 -0.15625,0.15625 0,0.09375 0.109375,0.09375 0.1875,0.09375 0.328125,0 0.328125,0.0625 0.328125,0.109375 0,0.046875 0,0.09375 -0.015625,0.15625 L 2.9375,-2.65625 c -0.140625,-0.234375 -0.375,-0.421875 -0.71875,-0.421875 -0.890625,0 -1.796875,0.984375 -1.796875,1.984375 0,0.6875 0.453125,1.15625 1.0625,1.15625 0.375,0 0.703125,-0.203125 0.984375,-0.484375 C 2.59375,0 3,0.0625 3.1875,0.0625 c 0.25,0 0.421875,-0.140625 0.546875,-0.359375 0.15625,-0.28125 0.25,-0.671875 0.25,-0.703125 z M 2.828125,-2.171875 2.5,-0.875 C 2.453125,-0.671875 2.296875,-0.53125 2.140625,-0.40625 2.078125,-0.34375 1.796875,-0.125 1.5,-0.125 c -0.265625,0 -0.515625,-0.1875 -0.515625,-0.671875 0,-0.375 0.203125,-1.140625 0.375,-1.421875 0.3125,-0.5625 0.671875,-0.65625 0.859375,-0.65625 0.484375,0 0.625,0.53125 0.625,0.609375 0,0.015625 -0.015625,0.078125 -0.015625,0.09375 z m 0,0"
               style="stroke:none"
               inkscape:connector-curvature="0" />
          </symbol>
          <symbol
             id="symbol85375"
             overflow="visible"
             style="overflow:visible">
            <path
               id="path85377"
               d="m 2.265625,-4.359375 c 0,-0.109375 -0.09375,-0.265625 -0.28125,-0.265625 -0.1875,0 -0.390625,0.1875 -0.390625,0.390625 0,0.109375 0.078125,0.265625 0.28125,0.265625 0.1875,0 0.390625,-0.203125 0.390625,-0.390625 z M 2.4375,-1 c 0,-0.09375 -0.09375,-0.09375 -0.109375,-0.09375 -0.09375,0 -0.109375,0.046875 -0.140625,0.125 -0.15625,0.5625 -0.453125,0.84375 -0.734375,0.84375 -0.140625,0 -0.171875,-0.09375 -0.171875,-0.25 0,-0.15625 0.046875,-0.28125 0.109375,-0.4375 l 0.21875,-0.5625 0.34375,-0.890625 C 1.984375,-2.328125 2,-2.40625 2,-2.484375 2,-2.8125 1.71875,-3.078125 1.34375,-3.078125 0.640625,-3.078125 0.328125,-2.125 0.328125,-2 c 0,0.078125 0.09375,0.078125 0.125,0.078125 0.09375,0 0.09375,-0.03125 0.125,-0.109375 C 0.75,-2.625 1.0625,-2.875 1.3125,-2.875 c 0.109375,0 0.171875,0.046875 0.171875,0.234375 0,0.171875 -0.03125,0.265625 -0.203125,0.703125 l -0.4375,1.125 c -0.03125,0.09375 -0.0625,0.171875 -0.0625,0.296875 0,0.328125 0.265625,0.578125 0.65625,0.578125 0.6875,0 1,-0.953125 1,-1.0625 z m 0,0"
               style="stroke:none"
               inkscape:connector-curvature="0" />
          </symbol>
          <symbol
             id="symbol85379"
             overflow="visible"
             style="overflow:visible">
            <path
               id="path85381"
               d="M 3.078125,-1.28125 C 3.125,-1.484375 3.15625,-1.71875 3.15625,-1.921875 c 0,-0.140625 0,-0.265625 -0.046875,-0.390625 C 3.046875,-2.640625 2.875,-2.921875 2.65625,-3.15625 2.3125,-3.546875 1.8125,-4.09375 1.8125,-4.40625 c 0,-0.046875 0,-0.078125 0.015625,-0.109375 0.046875,-0.0625 0.09375,-0.125 0.171875,-0.15625 0.0625,-0.03125 0.125,-0.03125 0.1875,-0.03125 l 0.046875,0 c 0.34375,0.015625 0.578125,0.25 0.875,0.34375 0.03125,0.015625 0.046875,0.015625 0.078125,0.015625 0.109375,0 0.21875,-0.0625 0.265625,-0.171875 0.03125,-0.03125 0.03125,-0.078125 0.03125,-0.125 0,-0.09375 -0.0625,-0.171875 -0.15625,-0.1875 -0.296875,-0.078125 -0.65625,-0.140625 -0.9375,-0.140625 -0.046875,0 -0.09375,0 -0.140625,0 -0.125,0.015625 -0.234375,0.046875 -0.34375,0.109375 -0.09375,0.0625 -0.1875,0.15625 -0.234375,0.265625 -0.0625,0.109375 -0.09375,0.21875 -0.09375,0.34375 0,0.390625 0.234375,0.828125 0.484375,1.21875 -0.3125,0.0625 -0.59375,0.203125 -0.859375,0.421875 -0.359375,0.28125 -0.625,0.671875 -0.734375,1.09375 -0.03125,0.125 -0.046875,0.25 -0.046875,0.375 0,0.28125 0.09375,0.53125 0.25,0.75 0.21875,0.296875 0.59375,0.453125 1.015625,0.453125 0.640625,0 1.21875,-0.640625 1.390625,-1.34375 z M 2.546875,-1.125 c -0.125,0.484375 -0.421875,1 -0.859375,1 C 1.40625,-0.125 1.15625,-0.265625 1.03125,-0.5 0.96875,-0.640625 0.9375,-0.78125 0.9375,-0.953125 0.9375,-1.125 0.96875,-1.296875 1,-1.484375 1.09375,-1.828125 1.234375,-2.1875 1.53125,-2.46875 c 0.1875,-0.1875 0.40625,-0.3125 0.640625,-0.375 L 2.1875,-2.796875 c 0.15625,0.234375 0.296875,0.484375 0.375,0.78125 0.03125,0.125 0.046875,0.25 0.046875,0.390625 0,0.15625 -0.03125,0.328125 -0.0625,0.5 z m 0,0"
               style="stroke:none"
               inkscape:connector-curvature="0" />
          </symbol>
          <symbol
             id="symbol85383"
             overflow="visible"
             style="overflow:visible">
            <path
               id="path85385"
               d=""
               style="stroke:none"
               inkscape:connector-curvature="0" />
          </symbol>
          <symbol
             id="symbol85387"
             overflow="visible"
             style="overflow:visible">
            <path
               id="path85389"
               d="m 4.140625,-1.1875 c 0,-0.09375 -0.078125,-0.125 -0.140625,-0.125 -0.078125,0 -0.109375,0.0625 -0.125,0.140625 -0.34375,1.03125 -1.25,1.03125 -1.34375,1.03125 -0.5,0 -0.890625,-0.296875 -1.125,-0.671875 -0.296875,-0.46875 -0.296875,-1.125 -0.296875,-1.484375 l 2.78125,0 c 0.21875,0 0.25,0 0.25,-0.21875 0,-0.984375 -0.546875,-1.953125 -1.78125,-1.953125 -1.15625,0 -2.078125,1.03125 -2.078125,2.28125 0,1.328125 1.046875,2.296875 2.1875,2.296875 C 3.6875,0.109375 4.140625,-1 4.140625,-1.1875 Z m -0.65625,-1.328125 -2.375,0 C 1.171875,-4 2.015625,-4.25 2.359375,-4.25 c 1.015625,0 1.125,1.34375 1.125,1.734375 z m 0,0"
               style="stroke:none"
               inkscape:connector-curvature="0" />
          </symbol>
          <symbol
             id="symbol85391"
             overflow="visible"
             style="overflow:visible">
            <path
               id="path85393"
               d=""
               style="stroke:none"
               inkscape:connector-curvature="0" />
          </symbol>
          <symbol
             id="symbol85395"
             overflow="visible"
             style="overflow:visible">
            <path
               id="path85397"
               d="m 3.515625,-1.265625 -0.234375,0 c -0.015625,0.15625 -0.09375,0.5625 -0.1875,0.625 -0.046875,0.046875 -0.578125,0.046875 -0.6875,0.046875 l -1.28125,0 c 0.734375,-0.640625 0.984375,-0.84375 1.390625,-1.171875 0.515625,-0.40625 1,-0.84375 1,-1.5 0,-0.84375 -0.734375,-1.359375 -1.625,-1.359375 -0.859375,0 -1.453125,0.609375 -1.453125,1.25 0,0.34375 0.296875,0.390625 0.375,0.390625 0.15625,0 0.359375,-0.125 0.359375,-0.375 0,-0.125 -0.046875,-0.375 -0.40625,-0.375 C 0.984375,-4.21875 1.453125,-4.375 1.78125,-4.375 c 0.703125,0 1.0625,0.546875 1.0625,1.109375 0,0.609375 -0.4375,1.078125 -0.65625,1.328125 L 0.515625,-0.265625 C 0.4375,-0.203125 0.4375,-0.1875 0.4375,0 l 2.875,0 z m 0,0"
               style="stroke:none"
               inkscape:connector-curvature="0" />
          </symbol>
        </g>
      </defs>
      <g
         id="g85399">
        <g
           id="g85401"
           style="fill:#000000;fill-opacity:1">
          <use
             id="use85403"
             y="134.765"
             x="133.76801"
             xlink:href="#textext-7e7dc8ef-1"
             width="100%"
             height="100%" />
        </g>
        <g
           id="g85405"
           style="fill:#000000;fill-opacity:1">
          <use
             id="use85407"
             y="136.259"
             x="140.901"
             xlink:href="#textext-7e7dc8ef-3"
             width="100%"
             height="100%" />
        </g>
        <g
           id="g85409"
           style="fill:#000000;fill-opacity:1">
          <use
             id="use85411"
             y="134.765"
             x="147.207"
             xlink:href="#textext-7e7dc8ef-7"
             width="100%"
             height="100%" />
        </g>
        <g
           id="g85413"
           style="fill:#000000;fill-opacity:1">
          <use
             id="use85415"
             y="131.149"
             x="151.63499"
             xlink:href="#textext-7e7dc8ef-9"
             width="100%"
             height="100%" />
        </g>
        <g
           id="g85417"
           style="fill:#000000;fill-opacity:1">
          <use
             id="use85419"
             y="131.149"
             x="155.606"
             xlink:href="#textext-7e7dc8ef-4"
             width="100%"
             height="100%" />
          <use
             id="use85421"
             y="131.149"
             x="158.4248"
             xlink:href="#textext-7e7dc8ef-5"
             width="100%"
             height="100%" />
        </g>
      </g>
    </g>
    <g
       ns:text="$1$\n"
       ns:preamble="/home/shark/PhD/inkscape/inkscape-header.tex"
       transform="matrix(1.291419,0,0,1.291419,148.59782,233.3333)"
       id="g5610">
      <defs
         id="defs5612">
        <g
           id="g5614">
          <symbol
             style="overflow:visible"
             overflow="visible"
             id="textext-b2cbfc8b-0">
            <path
               inkscape:connector-curvature="0"
               style="stroke:none"
               d=""
               id="path5617" />
          </symbol>
          <symbol
             style="overflow:visible"
             overflow="visible"
             id="textext-b2cbfc8b-1">
            <path
               inkscape:connector-curvature="0"
               style="stroke:none"
               d="m 4.171875,0 0,-0.3125 -0.3125,0 c -0.90625,0 -0.921875,-0.109375 -0.921875,-0.46875 l 0,-5.59375 c 0,-0.25 0,-0.265625 -0.234375,-0.265625 C 2.078125,-6 1.203125,-6 0.890625,-6 l 0,0.3125 c 0.203125,0 0.78125,0 1.296875,-0.265625 l 0,5.171875 c 0,0.359375 -0.03125,0.46875 -0.921875,0.46875 l -0.3125,0 0,0.3125 c 0.34375,-0.03125 1.203125,-0.03125 1.609375,-0.03125 0.390625,0 1.265625,0 1.609375,0.03125 z m 0,0"
               id="path5620" />
          </symbol>
        </g>
      </defs>
      <g
         id="textext-b2cbfc8b-2">
        <g
           style="fill:#000000;fill-opacity:1"
           id="g5623">
          <use
             height="100%"
             width="100%"
             xlink:href="#textext-b2cbfc8b-1"
             x="133.76801"
             y="134.765"
             id="use5625" />
        </g>
      </g>
    </g>
    <path
       style="fill:none;fill-rule:evenodd;stroke:#0088aa;stroke-width:1.5;stroke-linecap:butt;stroke-linejoin:miter;stroke-miterlimit:4;stroke-dasharray:none;stroke-opacity:1;marker-mid:url(#marker6414)"
       d="m 380.00001,432.36225 45,0 35,0"
       id="path6412"
       inkscape:connector-curvature="0"
       sodipodi:nodetypes="ccc" />
    <path
       sodipodi:nodetypes="ccc"
       inkscape:connector-curvature="0"
       id="path6062"
       d="m 300.99626,372.73717 39.50094,29.62571 39.50093,29.6257"
       style="fill:none;fill-rule:evenodd;stroke:#0088aa;stroke-width:1.5;stroke-linecap:butt;stroke-linejoin:miter;stroke-miterlimit:4;stroke-dasharray:none;stroke-opacity:1;marker-mid:url(#Arrow1Mend)" />
    <path
       id="path62308"
       d="m 376.5756,438.27174 c -3.26448,-1.89127 -4.37766,-6.0708 -2.48638,-9.33528 0.47281,-0.81612 1.08868,-1.49781 1.79747,-2.03168 0.70884,-0.53382 1.51055,-0.91994 2.35522,-1.1449 0.84468,-0.22496 1.72856,-0.28525 2.60892,-0.17498 0.88042,0.11056 1.7575,0.39237 2.57361,0.86517 3.26443,1.89128 4.37761,6.0708 2.48633,9.33529 -1.89127,3.26442 -6.0708,4.3776 -9.33528,2.48638 z"
       sodipodi:nodetypes="ssssssss"
       inkscape:connector-curvature="0"
       style="fill:#80e5ff" />
    <g
       ns:text="$\\downarrow$\n"
       ns:preamble="/home/shark/PhD/inkscape/inkscape-header.tex"
       transform="matrix(1.0832666,0,0,1.0832666,232.40235,289.07548)"
       id="g82711">
      <defs
         id="defs82713">
        <g
           id="g82715">
          <symbol
             style="overflow:visible"
             overflow="visible"
             id="symbol82717">
            <path
               inkscape:connector-curvature="0"
               style="stroke:none"
               d=""
               id="path82719" />
          </symbol>
          <symbol
             style="overflow:visible"
             overflow="visible"
             id="symbol82721">
            <path
               inkscape:connector-curvature="0"
               style="stroke:none"
               d="m 4.796875,-0.578125 0,-0.171875 c 0,-0.0625 -0.046875,-0.125 -0.125,-0.109375 -0.828125,0.1875 -1.546875,0.6875 -1.984375,1.40625 l 0,-7.265625 c 0,-0.140625 -0.109375,-0.203125 -0.203125,-0.203125 -0.109375,0 -0.203125,0.0625 -0.203125,0.203125 l 0,7.265625 C 1.828125,-0.171875 1.125,-0.671875 0.296875,-0.859375 0.21875,-0.875 0.171875,-0.8125 0.171875,-0.75 l 0,0.171875 c 0,0.0625 0.03125,0.09375 0.078125,0.109375 1.109375,0.265625 1.96875,1.171875 2.125,2.3125 0,0.046875 0.046875,0.09375 0.109375,0.09375 0.0625,0 0.09375,-0.046875 0.109375,-0.09375 0.15625,-1.140625 1,-2.046875 2.125,-2.3125 0.046875,-0.015625 0.078125,-0.046875 0.078125,-0.109375 z m 0,0"
               id="path82723" />
          </symbol>
        </g>
      </defs>
      <g
         id="g82725">
        <g
           style="fill:#000000;fill-opacity:1"
           id="g82727">
          <g
             transform="translate(133.76801,134.765)"
             id="use82729">
            <path
               id="path17071"
               d="m 4.796875,-0.578125 0,-0.171875 c 0,-0.0625 -0.046875,-0.125 -0.125,-0.109375 -0.828125,0.1875 -1.546875,0.6875 -1.984375,1.40625 l 0,-7.265625 c 0,-0.140625 -0.109375,-0.203125 -0.203125,-0.203125 -0.109375,0 -0.203125,0.0625 -0.203125,0.203125 l 0,7.265625 C 1.828125,-0.171875 1.125,-0.671875 0.296875,-0.859375 0.21875,-0.875 0.171875,-0.8125 0.171875,-0.75 l 0,0.171875 c 0,0.0625 0.03125,0.09375 0.078125,0.109375 1.109375,0.265625 1.96875,1.171875 2.125,2.3125 0,0.046875 0.046875,0.09375 0.109375,0.09375 0.0625,0 0.09375,-0.046875 0.109375,-0.09375 0.15625,-1.140625 1,-2.046875 2.125,-2.3125 0.046875,-0.015625 0.078125,-0.046875 0.078125,-0.109375 z m 0,0"
               style="stroke:none"
               inkscape:connector-curvature="0" />
          </g>
        </g>
      </g>
    </g>
    <path
       sodipodi:nodetypes="ccc"
       inkscape:connector-curvature="0"
       id="path11874"
       d="m 380.00001,372.36224 -30.00001,0 -50.00001,0"
       style="fill:none;fill-rule:evenodd;stroke:#008033;stroke-width:1.5;stroke-linecap:butt;stroke-linejoin:miter;stroke-miterlimit:4;stroke-dasharray:none;stroke-opacity:1;marker-mid:url(#marker85175)" />
    <path
       style="fill:none;fill-rule:evenodd;stroke:#008033;stroke-width:1.5;stroke-linecap:butt;stroke-linejoin:miter;stroke-miterlimit:4;stroke-dasharray:none;stroke-opacity:1;marker-mid:url(#marker12352)"
       d="m 460.00001,432.36225 -39.50094,-29.62571 -39.50093,-29.6257"
       id="path11876"
       inkscape:connector-curvature="0"
       sodipodi:nodetypes="ccc" />
    <path
       id="path62314"
       d="m 456.5756,438.27174 c -3.26448,-1.89127 -4.37766,-6.0708 -2.48638,-9.33528 0.47282,-0.81612 1.08868,-1.49781 1.79747,-2.03168 0.70884,-0.53382 1.51055,-0.91994 2.35522,-1.1449 0.84468,-0.22496 1.72856,-0.28525 2.60892,-0.17498 0.88042,0.11056 1.7575,0.39237 2.57362,0.86517 3.26443,1.89128 4.3776,6.0708 2.48632,9.33529 -1.89127,3.26442 -6.0708,4.3776 -9.33528,2.48638 z"
       sodipodi:nodetypes="ssssssss"
       inkscape:connector-curvature="0"
       style="fill:#80e5ff" />
    <g
       id="g82751"
       transform="matrix(1.0832666,0,0,1.0832666,312.40235,289.07548)"
       ns:preamble="/home/shark/PhD/inkscape/inkscape-header.tex"
       ns:text="$\\downarrow$\n">
      <defs
         id="defs82753">
        <g
           id="g82755">
          <symbol
             id="symbol82757"
             overflow="visible"
             style="overflow:visible">
            <path
               id="path82759"
               d=""
               style="stroke:none"
               inkscape:connector-curvature="0" />
          </symbol>
          <symbol
             id="symbol82761"
             overflow="visible"
             style="overflow:visible">
            <path
               id="path82763"
               d="m 4.796875,-0.578125 0,-0.171875 c 0,-0.0625 -0.046875,-0.125 -0.125,-0.109375 -0.828125,0.1875 -1.546875,0.6875 -1.984375,1.40625 l 0,-7.265625 c 0,-0.140625 -0.109375,-0.203125 -0.203125,-0.203125 -0.109375,0 -0.203125,0.0625 -0.203125,0.203125 l 0,7.265625 C 1.828125,-0.171875 1.125,-0.671875 0.296875,-0.859375 0.21875,-0.875 0.171875,-0.8125 0.171875,-0.75 l 0,0.171875 c 0,0.0625 0.03125,0.09375 0.078125,0.109375 1.109375,0.265625 1.96875,1.171875 2.125,2.3125 0,0.046875 0.046875,0.09375 0.109375,0.09375 0.0625,0 0.09375,-0.046875 0.109375,-0.09375 0.15625,-1.140625 1,-2.046875 2.125,-2.3125 0.046875,-0.015625 0.078125,-0.046875 0.078125,-0.109375 z m 0,0"
               style="stroke:none"
               inkscape:connector-curvature="0" />
          </symbol>
        </g>
      </defs>
      <g
         id="g82765">
        <g
           id="g82767"
           style="fill:#000000;fill-opacity:1">
          <g
             transform="translate(133.76801,134.765)"
             id="use82769">
            <path
               id="path17075"
               d="m 4.796875,-0.578125 0,-0.171875 c 0,-0.0625 -0.046875,-0.125 -0.125,-0.109375 -0.828125,0.1875 -1.546875,0.6875 -1.984375,1.40625 l 0,-7.265625 c 0,-0.140625 -0.109375,-0.203125 -0.203125,-0.203125 -0.109375,0 -0.203125,0.0625 -0.203125,0.203125 l 0,7.265625 C 1.828125,-0.171875 1.125,-0.671875 0.296875,-0.859375 0.21875,-0.875 0.171875,-0.8125 0.171875,-0.75 l 0,0.171875 c 0,0.0625 0.03125,0.09375 0.078125,0.109375 1.109375,0.265625 1.96875,1.171875 2.125,2.3125 0,0.046875 0.046875,0.09375 0.109375,0.09375 0.0625,0 0.09375,-0.046875 0.109375,-0.09375 0.15625,-1.140625 1,-2.046875 2.125,-2.3125 0.046875,-0.015625 0.078125,-0.046875 0.078125,-0.109375 z m 0,0"
               style="stroke:none"
               inkscape:connector-curvature="0" />
          </g>
        </g>
      </g>
    </g>
    <path
       style="fill:#55ff99"
       inkscape:connector-curvature="0"
       sodipodi:nodetypes="ssssssss"
       d="m 376.5756,378.27174 c -3.26448,-1.89127 -4.37766,-6.0708 -2.48638,-9.33528 0.47281,-0.81612 1.08868,-1.49781 1.79747,-2.03168 0.70884,-0.53382 1.51055,-0.91994 2.35522,-1.1449 0.84468,-0.22496 1.72856,-0.28525 2.60892,-0.17498 0.88042,0.11056 1.7575,0.39237 2.57361,0.86517 3.26443,1.89128 4.37761,6.0708 2.48633,9.33529 -1.89127,3.26442 -6.0708,4.3776 -9.33528,2.48638 z"
       id="path62251" />
    <g
       id="g82731"
       transform="matrix(1.0832666,0,0,-1.0832666,232.40235,515.64892)"
       ns:preamble="/home/shark/PhD/inkscape/inkscape-header.tex"
       ns:text="$\\downarrow$\n">
      <defs
         id="defs82733">
        <g
           id="g82735">
          <symbol
             id="symbol82737"
             overflow="visible"
             style="overflow:visible">
            <path
               id="path82739"
               d=""
               style="stroke:none"
               inkscape:connector-curvature="0" />
          </symbol>
          <symbol
             id="symbol82741"
             overflow="visible"
             style="overflow:visible">
            <path
               id="path82743"
               d="m 4.796875,-0.578125 0,-0.171875 c 0,-0.0625 -0.046875,-0.125 -0.125,-0.109375 -0.828125,0.1875 -1.546875,0.6875 -1.984375,1.40625 l 0,-7.265625 c 0,-0.140625 -0.109375,-0.203125 -0.203125,-0.203125 -0.109375,0 -0.203125,0.0625 -0.203125,0.203125 l 0,7.265625 C 1.828125,-0.171875 1.125,-0.671875 0.296875,-0.859375 0.21875,-0.875 0.171875,-0.8125 0.171875,-0.75 l 0,0.171875 c 0,0.0625 0.03125,0.09375 0.078125,0.109375 1.109375,0.265625 1.96875,1.171875 2.125,2.3125 0,0.046875 0.046875,0.09375 0.109375,0.09375 0.0625,0 0.09375,-0.046875 0.109375,-0.09375 0.15625,-1.140625 1,-2.046875 2.125,-2.3125 0.046875,-0.015625 0.078125,-0.046875 0.078125,-0.109375 z m 0,0"
               style="stroke:none"
               inkscape:connector-curvature="0" />
          </symbol>
        </g>
      </defs>
      <g
         id="g82745">
        <g
           id="g82747"
           style="fill:#000000;fill-opacity:1">
          <g
             transform="translate(133.76801,134.765)"
             id="use82749">
            <path
               id="path17079"
               d="m 4.796875,-0.578125 0,-0.171875 c 0,-0.0625 -0.046875,-0.125 -0.125,-0.109375 -0.828125,0.1875 -1.546875,0.6875 -1.984375,1.40625 l 0,-7.265625 c 0,-0.140625 -0.109375,-0.203125 -0.203125,-0.203125 -0.109375,0 -0.203125,0.0625 -0.203125,0.203125 l 0,7.265625 C 1.828125,-0.171875 1.125,-0.671875 0.296875,-0.859375 0.21875,-0.875 0.171875,-0.8125 0.171875,-0.75 l 0,0.171875 c 0,0.0625 0.03125,0.09375 0.078125,0.109375 1.109375,0.265625 1.96875,1.171875 2.125,2.3125 0,0.046875 0.046875,0.09375 0.109375,0.09375 0.0625,0 0.09375,-0.046875 0.109375,-0.09375 0.15625,-1.140625 1,-2.046875 2.125,-2.3125 0.046875,-0.015625 0.078125,-0.046875 0.078125,-0.109375 z m 0,0"
               style="stroke:none"
               inkscape:connector-curvature="0" />
          </g>
        </g>
      </g>
    </g>
    <path
       id="path62239"
       d="m 297.05856,378.27174 c -3.26448,-1.89127 -4.37766,-6.0708 -2.48638,-9.33528 0.47281,-0.81612 1.08868,-1.49781 1.79746,-2.03168 0.70885,-0.53382 1.51056,-0.91994 2.35523,-1.1449 0.84468,-0.22496 1.72856,-0.28525 2.60892,-0.17498 0.88042,0.11056 1.75749,0.39237 2.57361,0.86517 3.26443,1.89128 4.37761,6.0708 2.48633,9.33529 -1.89127,3.26442 -6.0708,4.3776 -9.33528,2.48638 z"
       sodipodi:nodetypes="ssssssss"
       inkscape:connector-curvature="0"
       style="fill:#55ff99" />
    <g
       ns:text="$\\downarrow$\n"
       ns:preamble="/home/shark/PhD/inkscape/inkscape-header.tex"
       transform="matrix(1.0832666,0,0,-1.0832666,152.40235,515.64892)"
       id="g82691">
      <defs
         id="defs82693">
        <g
           id="g82695">
          <symbol
             style="overflow:visible"
             overflow="visible"
             id="symbol82697">
            <path
               inkscape:connector-curvature="0"
               style="stroke:none"
               d=""
               id="path82699" />
          </symbol>
          <symbol
             style="overflow:visible"
             overflow="visible"
             id="symbol82701">
            <path
               inkscape:connector-curvature="0"
               style="stroke:none"
               d="m 4.796875,-0.578125 0,-0.171875 c 0,-0.0625 -0.046875,-0.125 -0.125,-0.109375 -0.828125,0.1875 -1.546875,0.6875 -1.984375,1.40625 l 0,-7.265625 c 0,-0.140625 -0.109375,-0.203125 -0.203125,-0.203125 -0.109375,0 -0.203125,0.0625 -0.203125,0.203125 l 0,7.265625 C 1.828125,-0.171875 1.125,-0.671875 0.296875,-0.859375 0.21875,-0.875 0.171875,-0.8125 0.171875,-0.75 l 0,0.171875 c 0,0.0625 0.03125,0.09375 0.078125,0.109375 1.109375,0.265625 1.96875,1.171875 2.125,2.3125 0,0.046875 0.046875,0.09375 0.109375,0.09375 0.0625,0 0.09375,-0.046875 0.109375,-0.09375 0.15625,-1.140625 1,-2.046875 2.125,-2.3125 0.046875,-0.015625 0.078125,-0.046875 0.078125,-0.109375 z m 0,0"
               id="path82703" />
          </symbol>
        </g>
      </defs>
      <g
         id="g82705">
        <g
           style="fill:#000000;fill-opacity:1"
           id="g82707">
          <g
             transform="translate(133.76801,134.765)"
             id="use82709">
            <path
               id="path17083"
               d="m 4.796875,-0.578125 0,-0.171875 c 0,-0.0625 -0.046875,-0.125 -0.125,-0.109375 -0.828125,0.1875 -1.546875,0.6875 -1.984375,1.40625 l 0,-7.265625 c 0,-0.140625 -0.109375,-0.203125 -0.203125,-0.203125 -0.109375,0 -0.203125,0.0625 -0.203125,0.203125 l 0,7.265625 C 1.828125,-0.171875 1.125,-0.671875 0.296875,-0.859375 0.21875,-0.875 0.171875,-0.8125 0.171875,-0.75 l 0,0.171875 c 0,0.0625 0.03125,0.09375 0.078125,0.109375 1.109375,0.265625 1.96875,1.171875 2.125,2.3125 0,0.046875 0.046875,0.09375 0.109375,0.09375 0.0625,0 0.09375,-0.046875 0.109375,-0.09375 0.15625,-1.140625 1,-2.046875 2.125,-2.3125 0.046875,-0.015625 0.078125,-0.046875 0.078125,-0.109375 z m 0,0"
               style="stroke:none"
               inkscape:connector-curvature="0" />
          </g>
        </g>
      </g>
    </g>
    <g
       id="g13272"
       transform="matrix(1.291419,0,0,1.291419,233.82445,252.85254)"
       ns:preamble="/home/shark/PhD/inkscape/inkscape-header.tex"
       ns:text="$-i$\n">
      <defs
         id="defs13274">
        <g
           id="g13276">
          <symbol
             style="overflow:visible"
             id="textext-895c326f-0"
             overflow="visible">
            <path
               inkscape:connector-curvature="0"
               id="path13279"
               d=""
               style="stroke:none" />
          </symbol>
          <symbol
             style="overflow:visible"
             id="textext-895c326f-1"
             overflow="visible">
            <path
               inkscape:connector-curvature="0"
               id="path13282"
               d="m 6.921875,-2.5 c 0,-0.1875 -0.1875,-0.1875 -0.328125,-0.1875 l -5.4375,0 c -0.140625,0 -0.328125,0 -0.328125,0.1875 0,0.203125 0.1875,0.203125 0.328125,0.203125 l 5.4375,0 c 0.140625,0 0.328125,0 0.328125,-0.203125 z m 0,0"
               style="stroke:none" />
          </symbol>
          <symbol
             style="overflow:visible"
             id="textext-895c326f-2"
             overflow="visible">
            <path
               inkscape:connector-curvature="0"
               id="path13285"
               d=""
               style="stroke:none" />
          </symbol>
          <symbol
             style="overflow:visible"
             id="textext-895c326f-3"
             overflow="visible">
            <path
               inkscape:connector-curvature="0"
               id="path13288"
               d="m 2.828125,-6.234375 c 0,-0.203125 -0.140625,-0.359375 -0.359375,-0.359375 -0.28125,0 -0.546875,0.265625 -0.546875,0.53125 0,0.1875 0.140625,0.359375 0.375,0.359375 0.234375,0 0.53125,-0.234375 0.53125,-0.53125 z m 0.09375,4.8125 c 0,-0.109375 -0.09375,-0.109375 -0.125,-0.109375 -0.09375,0 -0.09375,0.03125 -0.140625,0.1875 -0.1875,0.625 -0.515625,1.234375 -1.015625,1.234375 -0.171875,0 -0.25,-0.09375 -0.25,-0.328125 0,-0.25 0.0625,-0.390625 0.296875,-1 l 0.390625,-1.046875 c 0.109375,-0.28125 0.109375,-0.3125 0.21875,-0.578125 0.078125,-0.203125 0.125,-0.34375 0.125,-0.53125 0,-0.4375 -0.3125,-0.8125 -0.8125,-0.8125 -0.9375,0 -1.3125,1.453125 -1.3125,1.53125 0,0.109375 0.109375,0.109375 0.109375,0.109375 0.109375,0 0.109375,-0.03125 0.15625,-0.1875 0.28125,-0.9375 0.671875,-1.234375 1.015625,-1.234375 0.078125,0 0.25,0 0.25,0.3125 0,0.21875 -0.078125,0.421875 -0.109375,0.53125 -0.078125,0.25 -0.53125,1.40625 -0.6875,1.84375 -0.109375,0.25 -0.234375,0.578125 -0.234375,0.796875 0,0.46875 0.34375,0.8125 0.8125,0.8125 0.9375,0 1.3125,-1.4375 1.3125,-1.53125 z m 0,0"
               style="stroke:none" />
          </symbol>
        </g>
      </defs>
      <g
         id="textext-895c326f-4">
        <g
           id="g13291"
           style="fill:#000000;fill-opacity:1">
          <use
             height="100%"
             width="100%"
             id="use13293"
             y="134.765"
             x="133.76801"
             xlink:href="#textext-895c326f-1" />
        </g>
        <g
           id="g13295"
           style="fill:#000000;fill-opacity:1">
          <use
             height="100%"
             width="100%"
             id="use13297"
             y="134.765"
             x="141.517"
             xlink:href="#textext-895c326f-3" />
        </g>
      </g>
    </g>
    <g
       ns:text="$+i$\n"
       ns:preamble="/home/shark/PhD/inkscape/inkscape-header.tex"
       transform="matrix(1.291419,0,0,1.291419,165.99596,212.60326)"
       id="g13979">
      <defs
         id="defs13981">
        <g
           id="g13983">
          <symbol
             style="overflow:visible"
             overflow="visible"
             id="textext-4e29909e-0">
            <path
               inkscape:connector-curvature="0"
               style="stroke:none"
               d=""
               id="path13986" />
          </symbol>
          <symbol
             style="overflow:visible"
             overflow="visible"
             id="textext-4e29909e-1">
            <path
               inkscape:connector-curvature="0"
               style="stroke:none"
               d="M 7.1875,-2.5 C 7.1875,-2.6875 7,-2.6875 6.859375,-2.6875 l -2.78125,0 0,-2.796875 c 0,-0.140625 0,-0.328125 -0.203125,-0.328125 -0.203125,0 -0.203125,0.1875 -0.203125,0.328125 l 0,2.796875 -2.78125,0 c -0.140625,0 -0.328125,0 -0.328125,0.1875 0,0.203125 0.1875,0.203125 0.328125,0.203125 l 2.78125,0 0,2.796875 c 0,0.140625 0,0.328125 0.203125,0.328125 0.203125,0 0.203125,-0.1875 0.203125,-0.328125 l 0,-2.796875 2.78125,0 c 0.140625,0 0.328125,0 0.328125,-0.203125 z m 0,0"
               id="path13989" />
          </symbol>
          <symbol
             style="overflow:visible"
             overflow="visible"
             id="textext-4e29909e-2">
            <path
               inkscape:connector-curvature="0"
               style="stroke:none"
               d=""
               id="path13992" />
          </symbol>
          <symbol
             style="overflow:visible"
             overflow="visible"
             id="textext-4e29909e-3">
            <path
               inkscape:connector-curvature="0"
               style="stroke:none"
               d="m 2.828125,-6.234375 c 0,-0.203125 -0.140625,-0.359375 -0.359375,-0.359375 -0.28125,0 -0.546875,0.265625 -0.546875,0.53125 0,0.1875 0.140625,0.359375 0.375,0.359375 0.234375,0 0.53125,-0.234375 0.53125,-0.53125 z m 0.09375,4.8125 c 0,-0.109375 -0.09375,-0.109375 -0.125,-0.109375 -0.09375,0 -0.09375,0.03125 -0.140625,0.1875 -0.1875,0.625 -0.515625,1.234375 -1.015625,1.234375 -0.171875,0 -0.25,-0.09375 -0.25,-0.328125 0,-0.25 0.0625,-0.390625 0.296875,-1 l 0.390625,-1.046875 c 0.109375,-0.28125 0.109375,-0.3125 0.21875,-0.578125 0.078125,-0.203125 0.125,-0.34375 0.125,-0.53125 0,-0.4375 -0.3125,-0.8125 -0.8125,-0.8125 -0.9375,0 -1.3125,1.453125 -1.3125,1.53125 0,0.109375 0.109375,0.109375 0.109375,0.109375 0.109375,0 0.109375,-0.03125 0.15625,-0.1875 0.28125,-0.9375 0.671875,-1.234375 1.015625,-1.234375 0.078125,0 0.25,0 0.25,0.3125 0,0.21875 -0.078125,0.421875 -0.109375,0.53125 -0.078125,0.25 -0.53125,1.40625 -0.6875,1.84375 -0.109375,0.25 -0.234375,0.578125 -0.234375,0.796875 0,0.46875 0.34375,0.8125 0.8125,0.8125 0.9375,0 1.3125,-1.4375 1.3125,-1.53125 z m 0,0"
               id="path13995" />
          </symbol>
        </g>
      </defs>
      <g
         id="textext-4e29909e-4">
        <g
           style="fill:#000000;fill-opacity:1"
           id="g13998">
          <use
             height="100%"
             width="100%"
             xlink:href="#textext-4e29909e-1"
             x="133.76801"
             y="134.765"
             id="use14000" />
        </g>
        <g
           style="fill:#000000;fill-opacity:1"
           id="g14002">
          <use
             height="100%"
             width="100%"
             xlink:href="#textext-4e29909e-3"
             x="141.517"
             y="134.765"
             id="use14004" />
        </g>
      </g>
    </g>
    <g
       id="g15459"
       transform="matrix(1.291419,0,0,1.291419,260.59782,233.3333)"
       ns:preamble="/home/shark/PhD/inkscape/inkscape-header.tex"
       ns:text="$1$\n">
      <defs
         id="defs15461">
        <g
           id="g15463">
          <symbol
             id="symbol15465"
             overflow="visible"
             style="overflow:visible">
            <path
               id="path15467"
               d=""
               style="stroke:none"
               inkscape:connector-curvature="0" />
          </symbol>
          <symbol
             id="symbol15469"
             overflow="visible"
             style="overflow:visible">
            <path
               id="path15471"
               d="m 4.171875,0 0,-0.3125 -0.3125,0 c -0.90625,0 -0.921875,-0.109375 -0.921875,-0.46875 l 0,-5.59375 c 0,-0.25 0,-0.265625 -0.234375,-0.265625 C 2.078125,-6 1.203125,-6 0.890625,-6 l 0,0.3125 c 0.203125,0 0.78125,0 1.296875,-0.265625 l 0,5.171875 c 0,0.359375 -0.03125,0.46875 -0.921875,0.46875 l -0.3125,0 0,0.3125 c 0.34375,-0.03125 1.203125,-0.03125 1.609375,-0.03125 0.390625,0 1.265625,0 1.609375,0.03125 z m 0,0"
               style="stroke:none"
               inkscape:connector-curvature="0" />
          </symbol>
        </g>
      </defs>
      <g
         id="g15473">
        <g
           id="g15475"
           style="fill:#000000;fill-opacity:1">
          <use
             id="use15477"
             y="134.765"
             x="133.76801"
             xlink:href="#textext-b2cbfc8b-1"
             width="100%"
             height="100%" />
        </g>
      </g>
    </g>
    <g
       id="g3998"
       transform="matrix(1.291419,0,0,1.291419,125.26055,184.38151)"
       ns:preamble="/home/shark/PhD/inkscape/inkscape-header.tex"
       ns:text="$j$\n">
      <defs
         id="defs4000">
        <g
           id="g4002">
          <symbol
             style="overflow:visible"
             id="textext-6d4fb67d-0"
             overflow="visible">
            <path
               inkscape:connector-curvature="0"
               id="path4005"
               d=""
               style="stroke:none" />
          </symbol>
          <symbol
             style="overflow:visible"
             id="textext-6d4fb67d-1"
             overflow="visible">
            <path
               inkscape:connector-curvature="0"
               id="path4008"
               d="m 3.953125,-6.234375 c 0,-0.1875 -0.140625,-0.359375 -0.375,-0.359375 -0.234375,0 -0.53125,0.234375 -0.53125,0.53125 0,0.203125 0.140625,0.359375 0.375,0.359375 0.265625,0 0.53125,-0.265625 0.53125,-0.53125 z M 3.53125,-3.125 c 0.0625,-0.1875 0.0625,-0.328125 0.0625,-0.359375 0,-0.578125 -0.421875,-0.921875 -0.921875,-0.921875 -1.015625,0 -1.578125,1.453125 -1.578125,1.53125 0,0.109375 0.109375,0.109375 0.109375,0.109375 0.09375,0 0.109375,-0.015625 0.1875,-0.203125 0.25,-0.609375 0.703125,-1.21875 1.25,-1.21875 0.140625,0 0.3125,0.046875 0.3125,0.453125 0,0.234375 -0.015625,0.34375 -0.0625,0.515625 L 1.953125,0.5 c -0.1875,0.75 -0.671875,1.328125 -1.21875,1.328125 -0.0625,0 -0.21875,0 -0.390625,-0.09375 0.296875,-0.0625 0.4375,-0.328125 0.4375,-0.53125 0,-0.15625 -0.109375,-0.34375 -0.375,-0.34375 -0.25,0 -0.53125,0.203125 -0.53125,0.5625 0,0.40625 0.390625,0.625 0.875,0.625 0.703125,0 1.625,-0.53125 1.875,-1.515625 z m 0,0"
               style="stroke:none" />
          </symbol>
        </g>
      </defs>
      <g
         id="textext-6d4fb67d-2">
        <g
           id="g4011"
           style="fill:#000000;fill-opacity:1">
          <use
             height="100%"
             width="100%"
             id="use4013"
             y="134.765"
             x="133.76801"
             xlink:href="#textext-6d4fb67d-1" />
        </g>
      </g>
    </g>
    <g
       id="g5436"
       transform="matrix(1.291419,0,0,1.291419,273.80561,277.03359)"
       ns:preamble="/home/shark/PhD/inkscape/inkscape-header.tex"
       ns:text="$j+2$\n">
      <defs
         id="defs5438">
        <g
           id="g5440">
          <symbol
             id="textext-c06eb61a-0"
             overflow="visible"
             style="overflow:visible">
            <path
               id="path5443"
               d=""
               style="stroke:none"
               inkscape:connector-curvature="0" />
          </symbol>
          <symbol
             id="textext-c06eb61a-1"
             overflow="visible"
             style="overflow:visible">
            <path
               id="path5446"
               d="m 3.953125,-6.234375 c 0,-0.1875 -0.140625,-0.359375 -0.375,-0.359375 -0.234375,0 -0.53125,0.234375 -0.53125,0.53125 0,0.203125 0.140625,0.359375 0.375,0.359375 0.265625,0 0.53125,-0.265625 0.53125,-0.53125 z M 3.53125,-3.125 c 0.0625,-0.1875 0.0625,-0.328125 0.0625,-0.359375 0,-0.578125 -0.421875,-0.921875 -0.921875,-0.921875 -1.015625,0 -1.578125,1.453125 -1.578125,1.53125 0,0.109375 0.109375,0.109375 0.109375,0.109375 0.09375,0 0.109375,-0.015625 0.1875,-0.203125 0.25,-0.609375 0.703125,-1.21875 1.25,-1.21875 0.140625,0 0.3125,0.046875 0.3125,0.453125 0,0.234375 -0.015625,0.34375 -0.0625,0.515625 L 1.953125,0.5 c -0.1875,0.75 -0.671875,1.328125 -1.21875,1.328125 -0.0625,0 -0.21875,0 -0.390625,-0.09375 0.296875,-0.0625 0.4375,-0.328125 0.4375,-0.53125 0,-0.15625 -0.109375,-0.34375 -0.375,-0.34375 -0.25,0 -0.53125,0.203125 -0.53125,0.5625 0,0.40625 0.390625,0.625 0.875,0.625 0.703125,0 1.625,-0.53125 1.875,-1.515625 z m 0,0"
               style="stroke:none"
               inkscape:connector-curvature="0" />
          </symbol>
          <symbol
             id="textext-c06eb61a-2"
             overflow="visible"
             style="overflow:visible">
            <path
               id="path5449"
               d=""
               style="stroke:none"
               inkscape:connector-curvature="0" />
          </symbol>
          <symbol
             id="textext-c06eb61a-3"
             overflow="visible"
             style="overflow:visible">
            <path
               id="path5452"
               d="M 7.1875,-2.5 C 7.1875,-2.6875 7,-2.6875 6.859375,-2.6875 l -2.78125,0 0,-2.796875 c 0,-0.140625 0,-0.328125 -0.203125,-0.328125 -0.203125,0 -0.203125,0.1875 -0.203125,0.328125 l 0,2.796875 -2.78125,0 c -0.140625,0 -0.328125,0 -0.328125,0.1875 0,0.203125 0.1875,0.203125 0.328125,0.203125 l 2.78125,0 0,2.796875 c 0,0.140625 0,0.328125 0.203125,0.328125 0.203125,0 0.203125,-0.1875 0.203125,-0.328125 l 0,-2.796875 2.78125,0 c 0.140625,0 0.328125,0 0.328125,-0.203125 z m 0,0"
               style="stroke:none"
               inkscape:connector-curvature="0" />
          </symbol>
          <symbol
             id="textext-c06eb61a-4"
             overflow="visible"
             style="overflow:visible">
            <path
               id="path5455"
               d="m 4.46875,-1.734375 -0.234375,0 C 4.171875,-1.4375 4.109375,-1 4,-0.84375 3.9375,-0.765625 3.28125,-0.765625 3.0625,-0.765625 l -1.796875,0 1.0625,-1.03125 c 1.546875,-1.375 2.140625,-1.90625 2.140625,-2.90625 0,-1.140625 -0.890625,-1.9375 -2.109375,-1.9375 -1.125,0 -1.859375,0.921875 -1.859375,1.8125 0,0.546875 0.5,0.546875 0.53125,0.546875 0.171875,0 0.515625,-0.109375 0.515625,-0.53125 0,-0.25 -0.1875,-0.515625 -0.53125,-0.515625 -0.078125,0 -0.09375,0 -0.125,0.015625 0.21875,-0.65625 0.765625,-1.015625 1.34375,-1.015625 0.90625,0 1.328125,0.8125 1.328125,1.625 C 3.5625,-3.90625 3.078125,-3.125 2.515625,-2.5 l -1.90625,2.125 C 0.5,-0.265625 0.5,-0.234375 0.5,0 l 3.703125,0 z m 0,0"
               style="stroke:none"
               inkscape:connector-curvature="0" />
          </symbol>
        </g>
      </defs>
      <g
         id="textext-c06eb61a-5">
        <g
           id="g5458"
           style="fill:#000000;fill-opacity:1">
          <use
             id="use5460"
             y="134.765"
             x="133.76801"
             xlink:href="#textext-c06eb61a-1"
             width="100%"
             height="100%" />
        </g>
        <g
           id="g5462"
           style="fill:#000000;fill-opacity:1">
          <use
             id="use5464"
             y="134.765"
             x="140.655"
             xlink:href="#textext-c06eb61a-3"
             width="100%"
             height="100%" />
        </g>
        <g
           id="g5466"
           style="fill:#000000;fill-opacity:1">
          <use
             id="use5468"
             y="134.765"
             x="150.6156"
             xlink:href="#textext-c06eb61a-4"
             width="100%"
             height="100%" />
        </g>
      </g>
    </g>
  </g>
</svg>
