<?xml version="1.0" encoding="UTF-8" standalone="no"?>
<!-- Created with Inkscape (http://www.inkscape.org/) -->

<svg
   xmlns:ns="http://www.iki.fi/pav/software/textext/"
   xmlns:dc="http://purl.org/dc/elements/1.1/"
   xmlns:cc="http://creativecommons.org/ns#"
   xmlns:rdf="http://www.w3.org/1999/02/22-rdf-syntax-ns#"
   xmlns:svg="http://www.w3.org/2000/svg"
   xmlns="http://www.w3.org/2000/svg"
   xmlns:xlink="http://www.w3.org/1999/xlink"
   xmlns:sodipodi="http://sodipodi.sourceforge.net/DTD/sodipodi-0.dtd"
   xmlns:inkscape="http://www.inkscape.org/namespaces/inkscape"
   width="193.66447"
   height="117.04742"
   viewBox="0 0 193.66446 117.04743"
   id="svg61615"
   version="1.1"
   inkscape:version="0.91 r13725"
   sodipodi:docname="interference.svg">
  <sodipodi:namedview
     id="base"
     pagecolor="#ffffff"
     bordercolor="#666666"
     borderopacity="1.0"
     inkscape:pageopacity="0.0"
     inkscape:pageshadow="2"
     inkscape:zoom="1.4641528"
     inkscape:cx="59.380805"
     inkscape:cy="128.69645"
     inkscape:document-units="px"
     inkscape:current-layer="layer1"
     showgrid="false"
     inkscape:snap-bbox="true"
     inkscape:snap-object-midpoints="true"
     inkscape:object-nodes="true"
     inkscape:window-width="1920"
     inkscape:window-height="1175"
     inkscape:window-x="1920"
     inkscape:window-y="0"
     inkscape:window-maximized="0"
     fit-margin-top="13"
     fit-margin-left="10"
     fit-margin-right="10"
     fit-margin-bottom="1"
     units="px"
     showguides="true"
     inkscape:guide-bbox="true">
    <inkscape:grid
       originy="-598.03201"
       originx="-283.16773"
       id="grid62233"
       type="xygrid" />
    <sodipodi:guide
       position="-63.167747,21.968108"
       orientation="1,0"
       id="guide78427" />
  </sodipodi:namedview>
  <defs
     id="defs61617">
    <marker
       inkscape:stockid="Arrow1Mstart"
       orient="auto"
       refY="0"
       refX="0"
       id="marker12352"
       style="overflow:visible"
       inkscape:isstock="true">
      <path
         inkscape:connector-curvature="0"
         id="path12354"
         d="M 0,0 5,-5 -12.5,0 5,5 0,0 Z"
         style="fill:#008033;fill-opacity:1;fill-rule:evenodd;stroke:#008033;stroke-width:1pt;stroke-opacity:1"
         transform="matrix(0.4,0,0,0.4,4,0)" />
    </marker>
    <marker
       inkscape:isstock="true"
       style="overflow:visible"
       id="marker11982"
       refX="0"
       refY="0"
       orient="auto"
       inkscape:stockid="Arrow1Mend">
      <path
         transform="matrix(-0.4,0,0,-0.4,-4,0)"
         style="fill:#ff0000;fill-opacity:1;fill-rule:evenodd;stroke:#ff0000;stroke-width:1pt;stroke-opacity:1"
         d="M 0,0 5,-5 -12.5,0 5,5 0,0 Z"
         id="path11984"
         inkscape:connector-curvature="0" />
    </marker>
    <marker
       inkscape:stockid="Arrow1Mend"
       orient="auto"
       refY="0"
       refX="0"
       id="marker11928"
       style="overflow:visible"
       inkscape:isstock="true">
      <path
         id="path11930"
         d="M 0,0 5,-5 -12.5,0 5,5 0,0 Z"
         style="fill:#ff0000;fill-opacity:1;fill-rule:evenodd;stroke:#ff0000;stroke-width:1pt;stroke-opacity:1"
         transform="matrix(-0.4,0,0,-0.4,-4,0)"
         inkscape:connector-curvature="0" />
    </marker>
    <marker
       inkscape:isstock="true"
       style="overflow:visible"
       id="marker6414"
       refX="0"
       refY="0"
       orient="auto"
       inkscape:stockid="Arrow1Mend"
       inkscape:collect="always">
      <path
         transform="matrix(-0.4,0,0,-0.4,-4,0)"
         style="fill:#0088aa;fill-opacity:1;fill-rule:evenodd;stroke:#0088aa;stroke-width:1pt;stroke-opacity:1"
         d="M 0,0 5,-5 -12.5,0 5,5 0,0 Z"
         id="path6416"
         inkscape:connector-curvature="0" />
    </marker>
    <marker
       inkscape:stockid="Arrow1Mend"
       orient="auto"
       refY="0"
       refX="0"
       id="Arrow1Mend"
       style="overflow:visible"
       inkscape:isstock="true"
       inkscape:collect="always">
      <path
         id="path6163"
         d="M 0,0 5,-5 -12.5,0 5,5 0,0 Z"
         style="fill:#0088aa;fill-opacity:1;fill-rule:evenodd;stroke:#0088aa;stroke-width:1pt;stroke-opacity:1"
         transform="matrix(-0.4,0,0,-0.4,-4,0)"
         inkscape:connector-curvature="0" />
    </marker>
    <marker
       inkscape:isstock="true"
       style="overflow:visible"
       id="marker85175"
       refX="0"
       refY="0"
       orient="auto"
       inkscape:stockid="Arrow1Mstart"
       inkscape:collect="always">
      <path
         transform="matrix(0.4,0,0,0.4,4,0)"
         style="fill:#008033;fill-opacity:1;fill-rule:evenodd;stroke:#008033;stroke-width:1pt;stroke-opacity:1"
         d="M 0,0 5,-5 -12.5,0 5,5 0,0 Z"
         id="path85177"
         inkscape:connector-curvature="0" />
    </marker>
    <marker
       inkscape:stockid="Arrow1Mstart"
       orient="auto"
       refY="0"
       refX="0"
       id="marker84593"
       style="overflow:visible"
       inkscape:isstock="true">
      <path
         id="path84595"
         d="M 0,0 5,-5 -12.5,0 5,5 0,0 Z"
         style="fill:#000000;fill-opacity:1;fill-rule:evenodd;stroke:#000000;stroke-width:1pt;stroke-opacity:1"
         transform="matrix(0.4,0,0,0.4,4,0)"
         inkscape:connector-curvature="0" />
    </marker>
    <marker
       inkscape:isstock="true"
       style="overflow:visible"
       id="marker84433"
       refX="0"
       refY="0"
       orient="auto"
       inkscape:stockid="Arrow1Mstart">
      <path
         transform="matrix(0.4,0,0,0.4,4,0)"
         style="fill:#000000;fill-opacity:1;fill-rule:evenodd;stroke:#000000;stroke-width:1pt;stroke-opacity:1"
         d="M 0,0 5,-5 -12.5,0 5,5 0,0 Z"
         id="path84435"
         inkscape:connector-curvature="0" />
    </marker>
    <marker
       inkscape:stockid="Arrow1Lstart"
       orient="auto"
       refY="0"
       refX="0"
       id="marker83971"
       style="overflow:visible"
       inkscape:isstock="true">
      <path
         id="path83973"
         d="M 0,0 5,-5 -12.5,0 5,5 0,0 Z"
         style="fill:#000000;fill-opacity:1;fill-rule:evenodd;stroke:#000000;stroke-width:1pt;stroke-opacity:1"
         transform="matrix(0.8,0,0,0.8,10,0)"
         inkscape:connector-curvature="0" />
    </marker>
    <marker
       inkscape:stockid="Arrow1Lstart"
       orient="auto"
       refY="0"
       refX="0"
       id="marker83773"
       style="overflow:visible"
       inkscape:isstock="true">
      <path
         id="path83775"
         d="M 0,0 5,-5 -12.5,0 5,5 0,0 Z"
         style="fill:#000000;fill-opacity:1;fill-rule:evenodd;stroke:#000000;stroke-width:1pt;stroke-opacity:1"
         transform="matrix(0.8,0,0,0.8,10,0)"
         inkscape:connector-curvature="0" />
    </marker>
    <marker
       inkscape:stockid="Arrow2Mstart"
       orient="auto"
       refY="0"
       refX="0"
       id="marker83469"
       style="overflow:visible"
       inkscape:isstock="true">
      <path
         id="path83471"
         style="fill:#000000;fill-opacity:1;fill-rule:evenodd;stroke:#000000;stroke-width:0.625;stroke-linejoin:round;stroke-opacity:1"
         d="M 8.7185878,4.0337352 -2.2072895,0.01601326 8.7185884,-4.0017078 c -1.7454984,2.3720609 -1.7354408,5.6174519 -6e-7,8.035443 z"
         transform="scale(0.6,0.6)"
         inkscape:connector-curvature="0" />
    </marker>
    <marker
       inkscape:stockid="Arrow2Lend"
       orient="auto"
       refY="0"
       refX="0"
       id="Arrow2Lend"
       style="overflow:visible"
       inkscape:isstock="true">
      <path
         id="path82860"
         style="fill:#000000;fill-opacity:1;fill-rule:evenodd;stroke:#000000;stroke-width:0.625;stroke-linejoin:round;stroke-opacity:1"
         d="M 8.7185878,4.0337352 -2.2072895,0.01601326 8.7185884,-4.0017078 c -1.7454984,2.3720609 -1.7354408,5.6174519 -6e-7,8.035443 z"
         transform="matrix(-1.1,0,0,-1.1,-1.1,0)"
         inkscape:connector-curvature="0" />
    </marker>
    <marker
       inkscape:stockid="Arrow2Lstart"
       orient="auto"
       refY="0"
       refX="0"
       id="Arrow2Lstart"
       style="overflow:visible"
       inkscape:isstock="true">
      <path
         id="path82857"
         style="fill:#000000;fill-opacity:1;fill-rule:evenodd;stroke:#000000;stroke-width:0.625;stroke-linejoin:round;stroke-opacity:1"
         d="M 8.7185878,4.0337352 -2.2072895,0.01601326 8.7185884,-4.0017078 c -1.7454984,2.3720609 -1.7354408,5.6174519 -6e-7,8.035443 z"
         transform="matrix(1.1,0,0,1.1,1.1,0)"
         inkscape:connector-curvature="0" />
    </marker>
    <marker
       inkscape:stockid="Arrow2Mstart"
       orient="auto"
       refY="0"
       refX="0"
       id="Arrow2Mstart"
       style="overflow:visible"
       inkscape:isstock="true">
      <path
         id="path82863"
         style="fill:#000000;fill-opacity:1;fill-rule:evenodd;stroke:#000000;stroke-width:0.625;stroke-linejoin:round;stroke-opacity:1"
         d="M 8.7185878,4.0337352 -2.2072895,0.01601326 8.7185884,-4.0017078 c -1.7454984,2.3720609 -1.7354408,5.6174519 -6e-7,8.035443 z"
         transform="scale(0.6,0.6)"
         inkscape:connector-curvature="0" />
    </marker>
    <marker
       inkscape:stockid="Arrow1Mstart"
       orient="auto"
       refY="0"
       refX="0"
       id="Arrow1Mstart"
       style="overflow:visible"
       inkscape:isstock="true">
      <path
         id="path82845"
         d="M 0,0 5,-5 -12.5,0 5,5 0,0 Z"
         style="fill:#000000;fill-opacity:1;fill-rule:evenodd;stroke:#000000;stroke-width:1pt;stroke-opacity:1"
         transform="matrix(0.4,0,0,0.4,4,0)"
         inkscape:connector-curvature="0" />
    </marker>
    <marker
       inkscape:stockid="Arrow1Lstart"
       orient="auto"
       refY="0"
       refX="0"
       id="marker83279"
       style="overflow:visible"
       inkscape:isstock="true">
      <path
         id="path83281"
         d="M 0,0 5,-5 -12.5,0 5,5 0,0 Z"
         style="fill:#000000;fill-opacity:1;fill-rule:evenodd;stroke:#000000;stroke-width:1pt;stroke-opacity:1"
         transform="matrix(0.8,0,0,0.8,10,0)"
         inkscape:connector-curvature="0" />
    </marker>
    <marker
       inkscape:stockid="Arrow1Lstart"
       orient="auto"
       refY="0"
       refX="0"
       id="marker83205"
       style="overflow:visible"
       inkscape:isstock="true">
      <path
         id="path83207"
         d="M 0,0 5,-5 -12.5,0 5,5 0,0 Z"
         style="fill:#000000;fill-opacity:1;fill-rule:evenodd;stroke:#000000;stroke-width:1pt;stroke-opacity:1"
         transform="matrix(0.8,0,0,0.8,10,0)"
         inkscape:connector-curvature="0" />
    </marker>
    <marker
       inkscape:stockid="Arrow1Lstart"
       orient="auto"
       refY="0"
       refX="0"
       id="marker83145"
       style="overflow:visible"
       inkscape:isstock="true">
      <path
         id="path83147"
         d="M 0,0 5,-5 -12.5,0 5,5 0,0 Z"
         style="fill:#000000;fill-opacity:1;fill-rule:evenodd;stroke:#000000;stroke-width:1pt;stroke-opacity:1"
         transform="matrix(0.8,0,0,0.8,10,0)"
         inkscape:connector-curvature="0" />
    </marker>
    <marker
       inkscape:stockid="Arrow1Lstart"
       orient="auto"
       refY="0"
       refX="0"
       id="marker83123"
       style="overflow:visible"
       inkscape:isstock="true">
      <path
         id="path83125"
         d="M 0,0 5,-5 -12.5,0 5,5 0,0 Z"
         style="fill:#000000;fill-opacity:1;fill-rule:evenodd;stroke:#000000;stroke-width:1pt;stroke-opacity:1"
         transform="matrix(0.8,0,0,0.8,10,0)"
         inkscape:connector-curvature="0" />
    </marker>
    <marker
       inkscape:stockid="Arrow1Lend"
       orient="auto"
       refY="0"
       refX="0"
       id="Arrow1Lend"
       style="overflow:visible"
       inkscape:isstock="true">
      <path
         id="path82842"
         d="M 0,0 5,-5 -12.5,0 5,5 0,0 Z"
         style="fill:#000000;fill-opacity:1;fill-rule:evenodd;stroke:#000000;stroke-width:1pt;stroke-opacity:1"
         transform="matrix(-0.8,0,0,-0.8,-10,0)"
         inkscape:connector-curvature="0" />
    </marker>
    <marker
       inkscape:stockid="Arrow1Lstart"
       orient="auto"
       refY="0"
       refX="0"
       id="Arrow1Lstart"
       style="overflow:visible"
       inkscape:isstock="true">
      <path
         id="path82839"
         d="M 0,0 5,-5 -12.5,0 5,5 0,0 Z"
         style="fill:#000000;fill-opacity:1;fill-rule:evenodd;stroke:#000000;stroke-width:1pt;stroke-opacity:1"
         transform="matrix(0.8,0,0,0.8,10,0)"
         inkscape:connector-curvature="0" />
    </marker>
  </defs>
  <metadata
     id="metadata61620">
    <rdf:RDF>
      <cc:Work
         rdf:about="">
        <dc:format>image/svg+xml</dc:format>
        <dc:type
           rdf:resource="http://purl.org/dc/dcmitype/StillImage" />
        <dc:title></dc:title>
      </cc:Work>
    </rdf:RDF>
  </metadata>
  <g
     transform="translate(-283.16777,-337.28286)"
     id="layer1"
     inkscape:groupmode="layer"
     inkscape:label="Ebene 1">
    <path
       inkscape:connector-curvature="0"
       id="path79156"
       d="m 220,432.36222 79.99999,-60"
       style="fill:none;fill-rule:evenodd;stroke:#b3b3b3;stroke-width:0.60000002;stroke-linecap:butt;stroke-linejoin:miter;stroke-miterlimit:4;stroke-dasharray:2.4000001, 0.60000002;stroke-dashoffset:2.22000003;stroke-opacity:1" />
    <path
       style="fill:none;fill-rule:evenodd;stroke:#b3b3b3;stroke-width:0.60000002;stroke-linecap:butt;stroke-linejoin:miter;stroke-miterlimit:4;stroke-dasharray:2.4000001, 0.60000002;stroke-dashoffset:2.22000003;stroke-opacity:1"
       d="m 220,372.36222 79.99999,60"
       id="path81367"
       inkscape:connector-curvature="0" />
    <g
       ns:text="$\\ket{\\downarrow}_+$\n"
       ns:preamble="/home/shark/PhD/inkscape/inkscape-header.tex"
       transform="matrix(1.6142738,0,0,1.6142738,75.61989,235.6782)"
       id="g79158">
      <defs
         id="defs79160">
        <g
           id="g79162">
          <symbol
             style="overflow:visible"
             overflow="visible"
             id="symbol79164">
            <path
               inkscape:connector-curvature="0"
               style="stroke:none"
               d=""
               id="path79166" />
          </symbol>
          <symbol
             style="overflow:visible"
             overflow="visible"
             id="symbol79168">
            <path
               inkscape:connector-curvature="0"
               style="stroke:none"
               d="m 1.578125,2.15625 0,-9.296875 c 0,-0.140625 0,-0.34375 -0.1875,-0.34375 -0.203125,0 -0.203125,0.203125 -0.203125,0.34375 l 0,9.296875 c 0,0.140625 0,0.34375 0.203125,0.34375 0.1875,0 0.1875,-0.203125 0.1875,-0.34375 z m 0,0"
               id="path79170" />
          </symbol>
          <symbol
             style="overflow:visible"
             overflow="visible"
             id="symbol79172">
            <path
               inkscape:connector-curvature="0"
               style="stroke:none"
               d="m 4.796875,-0.578125 0,-0.171875 c 0,-0.0625 -0.046875,-0.125 -0.125,-0.109375 -0.828125,0.1875 -1.546875,0.6875 -1.984375,1.40625 l 0,-7.265625 c 0,-0.140625 -0.109375,-0.203125 -0.203125,-0.203125 -0.109375,0 -0.203125,0.0625 -0.203125,0.203125 l 0,7.265625 C 1.828125,-0.171875 1.125,-0.671875 0.296875,-0.859375 0.21875,-0.875 0.171875,-0.8125 0.171875,-0.75 l 0,0.171875 c 0,0.0625 0.03125,0.09375 0.078125,0.109375 1.109375,0.265625 1.96875,1.171875 2.125,2.3125 0,0.046875 0.046875,0.09375 0.109375,0.09375 0.0625,0 0.09375,-0.046875 0.109375,-0.09375 0.15625,-1.140625 1,-2.046875 2.125,-2.3125 0.046875,-0.015625 0.078125,-0.046875 0.078125,-0.109375 z m 0,0"
               id="path79174" />
          </symbol>
          <symbol
             style="overflow:visible"
             overflow="visible"
             id="symbol79176">
            <path
               inkscape:connector-curvature="0"
               style="stroke:none"
               d="m 2.765625,-2.5 c 0,0 0,-0.046875 -0.046875,-0.171875 L 0.984375,-7.25 C 0.921875,-7.375 0.890625,-7.484375 0.75,-7.484375 c -0.109375,0 -0.1875,0.09375 -0.1875,0.203125 0,0 0,0.0625 0.046875,0.1875 l 1.75,4.59375 -1.75,4.609375 C 0.5625,2.234375 0.5625,2.296875 0.5625,2.296875 0.5625,2.40625 0.640625,2.5 0.75,2.5 0.890625,2.5 0.921875,2.40625 0.96875,2.296875 l 1.75,-4.609375 C 2.765625,-2.4375 2.765625,-2.5 2.765625,-2.5 Z m 0,0"
               id="path79178" />
          </symbol>
          <symbol
             style="overflow:visible"
             overflow="visible"
             id="symbol79180">
            <path
               inkscape:connector-curvature="0"
               style="stroke:none"
               d=""
               id="path79182" />
          </symbol>
          <symbol
             style="overflow:visible"
             overflow="visible"
             id="symbol79184">
            <path
               inkscape:connector-curvature="0"
               style="stroke:none"
               d="m 5.609375,-1.734375 c 0,-0.1875 -0.15625,-0.1875 -0.25,-0.1875 l -2.140625,0 0,-2.140625 c 0,-0.078125 0,-0.25 -0.15625,-0.25 -0.171875,0 -0.171875,0.15625 -0.171875,0.25 l 0,2.140625 -2.140625,0 c -0.09375,0 -0.265625,0 -0.265625,0.171875 0,0.171875 0.15625,0.171875 0.265625,0.171875 l 2.140625,0 0,2.140625 c 0,0.09375 0,0.265625 0.15625,0.265625 0.171875,0 0.171875,-0.171875 0.171875,-0.265625 l 0,-2.140625 2.140625,0 c 0.09375,0 0.25,0 0.25,-0.15625 z m 0,0"
               id="path79186" />
          </symbol>
        </g>
      </defs>
      <g
         id="g79188">
        <g
           style="fill:#000000;fill-opacity:1"
           id="g79190">
          <use
             height="100%"
             width="100%"
             xlink:href="#textext-9efb6b9b-1"
             x="133.76801"
             y="134.765"
             id="use79192" />
          <use
             height="100%"
             width="100%"
             xlink:href="#textext-9efb6b9b-2"
             x="136.53561"
             y="134.765"
             id="use79194" />
          <use
             height="100%"
             width="100%"
             xlink:href="#textext-9efb6b9b-3"
             x="141.51691"
             y="134.765"
             id="use79196" />
        </g>
        <g
           style="fill:#000000;fill-opacity:1"
           id="g79198">
          <use
             height="100%"
             width="100%"
             xlink:href="#textext-9efb6b9b-5"
             x="145.39101"
             y="137.75301"
             id="use79200" />
        </g>
      </g>
    </g>
    <g
       id="g79246"
       transform="matrix(1.6142738,0,0,1.6142738,155.61989,235.6782)"
       ns:preamble="/home/shark/PhD/inkscape/inkscape-header.tex"
       ns:text="$\\ket{\\downarrow}_+$\n">
      <defs
         id="defs79248">
        <g
           id="g79250">
          <symbol
             id="symbol79252"
             overflow="visible"
             style="overflow:visible">
            <path
               id="path79254"
               d=""
               style="stroke:none"
               inkscape:connector-curvature="0" />
          </symbol>
          <symbol
             id="symbol79256"
             overflow="visible"
             style="overflow:visible">
            <path
               id="path79258"
               d="m 1.578125,2.15625 0,-9.296875 c 0,-0.140625 0,-0.34375 -0.1875,-0.34375 -0.203125,0 -0.203125,0.203125 -0.203125,0.34375 l 0,9.296875 c 0,0.140625 0,0.34375 0.203125,0.34375 0.1875,0 0.1875,-0.203125 0.1875,-0.34375 z m 0,0"
               style="stroke:none"
               inkscape:connector-curvature="0" />
          </symbol>
          <symbol
             id="symbol79260"
             overflow="visible"
             style="overflow:visible">
            <path
               id="path79262"
               d="m 4.796875,-0.578125 0,-0.171875 c 0,-0.0625 -0.046875,-0.125 -0.125,-0.109375 -0.828125,0.1875 -1.546875,0.6875 -1.984375,1.40625 l 0,-7.265625 c 0,-0.140625 -0.109375,-0.203125 -0.203125,-0.203125 -0.109375,0 -0.203125,0.0625 -0.203125,0.203125 l 0,7.265625 C 1.828125,-0.171875 1.125,-0.671875 0.296875,-0.859375 0.21875,-0.875 0.171875,-0.8125 0.171875,-0.75 l 0,0.171875 c 0,0.0625 0.03125,0.09375 0.078125,0.109375 1.109375,0.265625 1.96875,1.171875 2.125,2.3125 0,0.046875 0.046875,0.09375 0.109375,0.09375 0.0625,0 0.09375,-0.046875 0.109375,-0.09375 0.15625,-1.140625 1,-2.046875 2.125,-2.3125 0.046875,-0.015625 0.078125,-0.046875 0.078125,-0.109375 z m 0,0"
               style="stroke:none"
               inkscape:connector-curvature="0" />
          </symbol>
          <symbol
             id="symbol79264"
             overflow="visible"
             style="overflow:visible">
            <path
               id="path79266"
               d="m 2.765625,-2.5 c 0,0 0,-0.046875 -0.046875,-0.171875 L 0.984375,-7.25 C 0.921875,-7.375 0.890625,-7.484375 0.75,-7.484375 c -0.109375,0 -0.1875,0.09375 -0.1875,0.203125 0,0 0,0.0625 0.046875,0.1875 l 1.75,4.59375 -1.75,4.609375 C 0.5625,2.234375 0.5625,2.296875 0.5625,2.296875 0.5625,2.40625 0.640625,2.5 0.75,2.5 0.890625,2.5 0.921875,2.40625 0.96875,2.296875 l 1.75,-4.609375 C 2.765625,-2.4375 2.765625,-2.5 2.765625,-2.5 Z m 0,0"
               style="stroke:none"
               inkscape:connector-curvature="0" />
          </symbol>
          <symbol
             id="symbol79268"
             overflow="visible"
             style="overflow:visible">
            <path
               id="path79270"
               d=""
               style="stroke:none"
               inkscape:connector-curvature="0" />
          </symbol>
          <symbol
             id="symbol79272"
             overflow="visible"
             style="overflow:visible">
            <path
               id="path79274"
               d="m 5.609375,-1.734375 c 0,-0.1875 -0.15625,-0.1875 -0.25,-0.1875 l -2.140625,0 0,-2.140625 c 0,-0.078125 0,-0.25 -0.15625,-0.25 -0.171875,0 -0.171875,0.15625 -0.171875,0.25 l 0,2.140625 -2.140625,0 c -0.09375,0 -0.265625,0 -0.265625,0.171875 0,0.171875 0.15625,0.171875 0.265625,0.171875 l 2.140625,0 0,2.140625 c 0,0.09375 0,0.265625 0.15625,0.265625 0.171875,0 0.171875,-0.171875 0.171875,-0.265625 l 0,-2.140625 2.140625,0 c 0.09375,0 0.25,0 0.25,-0.15625 z m 0,0"
               style="stroke:none"
               inkscape:connector-curvature="0" />
          </symbol>
        </g>
      </defs>
      <g
         id="g79276">
        <g
           id="g79278"
           style="fill:#000000;fill-opacity:1">
          <use
             id="use79280"
             y="134.765"
             x="133.76801"
             xlink:href="#textext-9efb6b9b-1"
             width="100%"
             height="100%" />
          <use
             id="use79282"
             y="134.765"
             x="136.53561"
             xlink:href="#textext-9efb6b9b-2"
             width="100%"
             height="100%" />
          <use
             id="use79284"
             y="134.765"
             x="141.51691"
             xlink:href="#textext-9efb6b9b-3"
             width="100%"
             height="100%" />
        </g>
        <g
           id="g79286"
           style="fill:#000000;fill-opacity:1">
          <use
             id="use79288"
             y="137.75301"
             x="145.39101"
             xlink:href="#textext-9efb6b9b-5"
             width="100%"
             height="100%" />
        </g>
      </g>
    </g>
    <g
       ns:text="$\\ket{\\downarrow}_+$\n"
       ns:preamble="/home/shark/PhD/inkscape/inkscape-header.tex"
       transform="matrix(1.6142738,0,0,1.6142738,235.61989,235.6782)"
       id="g79334">
      <defs
         id="defs79336">
        <g
           id="g79338">
          <symbol
             style="overflow:visible"
             overflow="visible"
             id="symbol79340">
            <path
               inkscape:connector-curvature="0"
               style="stroke:none"
               d=""
               id="path79342" />
          </symbol>
          <symbol
             style="overflow:visible"
             overflow="visible"
             id="symbol79344">
            <path
               inkscape:connector-curvature="0"
               style="stroke:none"
               d="m 1.578125,2.15625 0,-9.296875 c 0,-0.140625 0,-0.34375 -0.1875,-0.34375 -0.203125,0 -0.203125,0.203125 -0.203125,0.34375 l 0,9.296875 c 0,0.140625 0,0.34375 0.203125,0.34375 0.1875,0 0.1875,-0.203125 0.1875,-0.34375 z m 0,0"
               id="path79346" />
          </symbol>
          <symbol
             style="overflow:visible"
             overflow="visible"
             id="symbol79348">
            <path
               inkscape:connector-curvature="0"
               style="stroke:none"
               d="m 4.796875,-0.578125 0,-0.171875 c 0,-0.0625 -0.046875,-0.125 -0.125,-0.109375 -0.828125,0.1875 -1.546875,0.6875 -1.984375,1.40625 l 0,-7.265625 c 0,-0.140625 -0.109375,-0.203125 -0.203125,-0.203125 -0.109375,0 -0.203125,0.0625 -0.203125,0.203125 l 0,7.265625 C 1.828125,-0.171875 1.125,-0.671875 0.296875,-0.859375 0.21875,-0.875 0.171875,-0.8125 0.171875,-0.75 l 0,0.171875 c 0,0.0625 0.03125,0.09375 0.078125,0.109375 1.109375,0.265625 1.96875,1.171875 2.125,2.3125 0,0.046875 0.046875,0.09375 0.109375,0.09375 0.0625,0 0.09375,-0.046875 0.109375,-0.09375 0.15625,-1.140625 1,-2.046875 2.125,-2.3125 0.046875,-0.015625 0.078125,-0.046875 0.078125,-0.109375 z m 0,0"
               id="path79350" />
          </symbol>
          <symbol
             style="overflow:visible"
             overflow="visible"
             id="symbol79352">
            <path
               inkscape:connector-curvature="0"
               style="stroke:none"
               d="m 2.765625,-2.5 c 0,0 0,-0.046875 -0.046875,-0.171875 L 0.984375,-7.25 C 0.921875,-7.375 0.890625,-7.484375 0.75,-7.484375 c -0.109375,0 -0.1875,0.09375 -0.1875,0.203125 0,0 0,0.0625 0.046875,0.1875 l 1.75,4.59375 -1.75,4.609375 C 0.5625,2.234375 0.5625,2.296875 0.5625,2.296875 0.5625,2.40625 0.640625,2.5 0.75,2.5 0.890625,2.5 0.921875,2.40625 0.96875,2.296875 l 1.75,-4.609375 C 2.765625,-2.4375 2.765625,-2.5 2.765625,-2.5 Z m 0,0"
               id="path79354" />
          </symbol>
          <symbol
             style="overflow:visible"
             overflow="visible"
             id="symbol79356">
            <path
               inkscape:connector-curvature="0"
               style="stroke:none"
               d=""
               id="path79358" />
          </symbol>
          <symbol
             style="overflow:visible"
             overflow="visible"
             id="symbol79360">
            <path
               inkscape:connector-curvature="0"
               style="stroke:none"
               d="m 5.609375,-1.734375 c 0,-0.1875 -0.15625,-0.1875 -0.25,-0.1875 l -2.140625,0 0,-2.140625 c 0,-0.078125 0,-0.25 -0.15625,-0.25 -0.171875,0 -0.171875,0.15625 -0.171875,0.25 l 0,2.140625 -2.140625,0 c -0.09375,0 -0.265625,0 -0.265625,0.171875 0,0.171875 0.15625,0.171875 0.265625,0.171875 l 2.140625,0 0,2.140625 c 0,0.09375 0,0.265625 0.15625,0.265625 0.171875,0 0.171875,-0.171875 0.171875,-0.265625 l 0,-2.140625 2.140625,0 c 0.09375,0 0.25,0 0.25,-0.15625 z m 0,0"
               id="path79362" />
          </symbol>
        </g>
      </defs>
      <g
         id="g79364">
        <g
           style="fill:#000000;fill-opacity:1"
           id="g79366">
          <use
             height="100%"
             width="100%"
             xlink:href="#textext-9efb6b9b-1"
             x="133.76801"
             y="134.765"
             id="use79368" />
          <use
             height="100%"
             width="100%"
             xlink:href="#textext-9efb6b9b-2"
             x="136.53561"
             y="134.765"
             id="use79370" />
          <use
             height="100%"
             width="100%"
             xlink:href="#textext-9efb6b9b-3"
             x="141.51691"
             y="134.765"
             id="use79372" />
        </g>
        <g
           style="fill:#000000;fill-opacity:1"
           id="g79374">
          <use
             height="100%"
             width="100%"
             xlink:href="#textext-9efb6b9b-5"
             x="145.39101"
             y="137.75301"
             id="use79376" />
        </g>
      </g>
    </g>
    <g
       id="g79422"
       transform="matrix(1.6142738,0,0,1.6142738,315.61989,235.6782)"
       ns:preamble="/home/shark/PhD/inkscape/inkscape-header.tex"
       ns:text="$\\ket{\\downarrow}_+$\n">
      <defs
         id="defs79424">
        <g
           id="g79426">
          <symbol
             id="symbol79428"
             overflow="visible"
             style="overflow:visible">
            <path
               id="path79430"
               d=""
               style="stroke:none"
               inkscape:connector-curvature="0" />
          </symbol>
          <symbol
             id="symbol79432"
             overflow="visible"
             style="overflow:visible">
            <path
               id="path79434"
               d="m 1.578125,2.15625 0,-9.296875 c 0,-0.140625 0,-0.34375 -0.1875,-0.34375 -0.203125,0 -0.203125,0.203125 -0.203125,0.34375 l 0,9.296875 c 0,0.140625 0,0.34375 0.203125,0.34375 0.1875,0 0.1875,-0.203125 0.1875,-0.34375 z m 0,0"
               style="stroke:none"
               inkscape:connector-curvature="0" />
          </symbol>
          <symbol
             id="symbol79436"
             overflow="visible"
             style="overflow:visible">
            <path
               id="path79438"
               d="m 4.796875,-0.578125 0,-0.171875 c 0,-0.0625 -0.046875,-0.125 -0.125,-0.109375 -0.828125,0.1875 -1.546875,0.6875 -1.984375,1.40625 l 0,-7.265625 c 0,-0.140625 -0.109375,-0.203125 -0.203125,-0.203125 -0.109375,0 -0.203125,0.0625 -0.203125,0.203125 l 0,7.265625 C 1.828125,-0.171875 1.125,-0.671875 0.296875,-0.859375 0.21875,-0.875 0.171875,-0.8125 0.171875,-0.75 l 0,0.171875 c 0,0.0625 0.03125,0.09375 0.078125,0.109375 1.109375,0.265625 1.96875,1.171875 2.125,2.3125 0,0.046875 0.046875,0.09375 0.109375,0.09375 0.0625,0 0.09375,-0.046875 0.109375,-0.09375 0.15625,-1.140625 1,-2.046875 2.125,-2.3125 0.046875,-0.015625 0.078125,-0.046875 0.078125,-0.109375 z m 0,0"
               style="stroke:none"
               inkscape:connector-curvature="0" />
          </symbol>
          <symbol
             id="symbol79440"
             overflow="visible"
             style="overflow:visible">
            <path
               id="path79442"
               d="m 2.765625,-2.5 c 0,0 0,-0.046875 -0.046875,-0.171875 L 0.984375,-7.25 C 0.921875,-7.375 0.890625,-7.484375 0.75,-7.484375 c -0.109375,0 -0.1875,0.09375 -0.1875,0.203125 0,0 0,0.0625 0.046875,0.1875 l 1.75,4.59375 -1.75,4.609375 C 0.5625,2.234375 0.5625,2.296875 0.5625,2.296875 0.5625,2.40625 0.640625,2.5 0.75,2.5 0.890625,2.5 0.921875,2.40625 0.96875,2.296875 l 1.75,-4.609375 C 2.765625,-2.4375 2.765625,-2.5 2.765625,-2.5 Z m 0,0"
               style="stroke:none"
               inkscape:connector-curvature="0" />
          </symbol>
          <symbol
             id="symbol79444"
             overflow="visible"
             style="overflow:visible">
            <path
               id="path79446"
               d=""
               style="stroke:none"
               inkscape:connector-curvature="0" />
          </symbol>
          <symbol
             id="symbol79448"
             overflow="visible"
             style="overflow:visible">
            <path
               id="path79450"
               d="m 5.609375,-1.734375 c 0,-0.1875 -0.15625,-0.1875 -0.25,-0.1875 l -2.140625,0 0,-2.140625 c 0,-0.078125 0,-0.25 -0.15625,-0.25 -0.171875,0 -0.171875,0.15625 -0.171875,0.25 l 0,2.140625 -2.140625,0 c -0.09375,0 -0.265625,0 -0.265625,0.171875 0,0.171875 0.15625,0.171875 0.265625,0.171875 l 2.140625,0 0,2.140625 c 0,0.09375 0,0.265625 0.15625,0.265625 0.171875,0 0.171875,-0.171875 0.171875,-0.265625 l 0,-2.140625 2.140625,0 c 0.09375,0 0.25,0 0.25,-0.15625 z m 0,0"
               style="stroke:none"
               inkscape:connector-curvature="0" />
          </symbol>
        </g>
      </defs>
      <g
         id="g79452">
        <g
           id="g79454"
           style="fill:#000000;fill-opacity:1">
          <use
             id="use79456"
             y="134.765"
             x="133.76801"
             xlink:href="#textext-9efb6b9b-1"
             width="100%"
             height="100%" />
          <use
             id="use79458"
             y="134.765"
             x="136.53561"
             xlink:href="#textext-9efb6b9b-2"
             width="100%"
             height="100%" />
          <use
             id="use79460"
             y="134.765"
             x="141.51691"
             xlink:href="#textext-9efb6b9b-3"
             width="100%"
             height="100%" />
        </g>
        <g
           id="g79462"
           style="fill:#000000;fill-opacity:1">
          <use
             id="use79464"
             y="137.75301"
             x="145.39101"
             xlink:href="#textext-9efb6b9b-5"
             width="100%"
             height="100%" />
        </g>
      </g>
    </g>
    <path
       style="fill:none;fill-rule:evenodd;stroke:#b3b3b3;stroke-width:0.60000002;stroke-linecap:butt;stroke-linejoin:miter;stroke-miterlimit:4;stroke-dasharray:2.4000001, 0.60000002;stroke-dashoffset:2.22000003;stroke-opacity:1"
       d="m 300,432.36222 79.99999,-60"
       id="path81982"
       inkscape:connector-curvature="0" />
    <path
       inkscape:connector-curvature="0"
       id="path81984"
       d="m 300,372.36222 79.99999,60"
       style="fill:none;fill-rule:evenodd;stroke:#b3b3b3;stroke-width:0.60000002;stroke-linecap:butt;stroke-linejoin:miter;stroke-miterlimit:4;stroke-dasharray:2.4000001, 0.60000002;stroke-dashoffset:2.22000003;stroke-opacity:1" />
    <path
       inkscape:connector-curvature="0"
       id="path81986"
       d="m 380,432.36222 79.99999,-60"
       style="fill:none;fill-rule:evenodd;stroke:#b3b3b3;stroke-width:0.60000002;stroke-linecap:butt;stroke-linejoin:miter;stroke-miterlimit:4;stroke-dasharray:2.4000001, 0.60000002;stroke-dashoffset:2.22000003;stroke-opacity:1" />
    <path
       style="fill:none;fill-rule:evenodd;stroke:#b3b3b3;stroke-width:0.60000002;stroke-linecap:butt;stroke-linejoin:miter;stroke-miterlimit:4;stroke-dasharray:2.4000001, 0.60000002;stroke-dashoffset:2.22000003;stroke-opacity:1"
       d="m 380,372.36222 79.99999,60"
       id="path81988"
       inkscape:connector-curvature="0" />
    <path
       style="fill:none;fill-rule:evenodd;stroke:#b3b3b3;stroke-width:0.60000002;stroke-linecap:butt;stroke-linejoin:miter;stroke-miterlimit:4;stroke-dasharray:2.4000001, 0.60000002;stroke-dashoffset:2.22000003;stroke-opacity:1"
       d="m 460,432.36222 79.99999,-60"
       id="path81990"
       inkscape:connector-curvature="0" />
    <path
       inkscape:connector-curvature="0"
       id="path81992"
       d="m 460,372.36222 79.99999,60"
       style="fill:none;fill-rule:evenodd;stroke:#b3b3b3;stroke-width:0.60000002;stroke-linecap:butt;stroke-linejoin:miter;stroke-miterlimit:4;stroke-dasharray:2.4000001, 0.60000002;stroke-dashoffset:2.22000003;stroke-opacity:1" />
    <path
       style="opacity:1;fill:none;fill-rule:evenodd;stroke:#b3b3b3;stroke-width:1px;stroke-linecap:butt;stroke-linejoin:miter;stroke-opacity:1"
       d="m 299.99999,432.36222 36.67417,0 43.32583,0"
       id="path82833"
       inkscape:connector-curvature="0"
       sodipodi:nodetypes="ccc" />
    <path
       sodipodi:nodetypes="ccc"
       inkscape:connector-curvature="0"
       id="path84285"
       d="m 379.99999,432.36222 36.67417,0 43.32583,0"
       style="opacity:1;fill:none;fill-rule:evenodd;stroke:#b3b3b3;stroke-width:1px;stroke-linecap:butt;stroke-linejoin:miter;stroke-opacity:1" />
    <path
       style="opacity:1;fill:none;fill-rule:evenodd;stroke:#b3b3b3;stroke-width:1px;stroke-linecap:butt;stroke-linejoin:miter;stroke-opacity:1"
       d="m 459.99999,432.36222 36.67417,0 43.32583,0"
       id="path84357"
       inkscape:connector-curvature="0"
       sodipodi:nodetypes="ccc" />
    <path
       sodipodi:nodetypes="ccc"
       inkscape:connector-curvature="0"
       id="path84513"
       d="m 219.99999,432.36222 36.67417,0 43.32583,0"
       style="opacity:1;fill:none;fill-rule:evenodd;stroke:#b3b3b3;stroke-width:1px;stroke-linecap:butt;stroke-linejoin:miter;stroke-opacity:1" />
    <path
       style="opacity:1;fill:none;fill-rule:evenodd;stroke:#b3b3b3;stroke-width:1px;stroke-linecap:butt;stroke-linejoin:miter;stroke-opacity:1"
       d="m 299.99999,372.36222 -36.67417,0 -43.32583,0"
       id="path84677"
       inkscape:connector-curvature="0"
       sodipodi:nodetypes="ccc" />
    <path
       style="opacity:1;fill:none;fill-rule:evenodd;stroke:#b3b3b3;stroke-width:1px;stroke-linecap:butt;stroke-linejoin:miter;stroke-opacity:1"
       d="m 379.99999,372.36222 -36.67417,0 -43.32583,0"
       id="path84861"
       inkscape:connector-curvature="0"
       sodipodi:nodetypes="ccc" />
    <path
       sodipodi:nodetypes="ccc"
       inkscape:connector-curvature="0"
       id="path84971"
       d="m 459.99999,372.36222 -36.67417,0 -43.32583,0"
       style="opacity:1;fill:none;fill-rule:evenodd;stroke:#b3b3b3;stroke-width:1px;stroke-linecap:butt;stroke-linejoin:miter;stroke-opacity:1" />
    <path
       style="opacity:1;fill:none;fill-rule:evenodd;stroke:#b3b3b3;stroke-width:1px;stroke-linecap:butt;stroke-linejoin:miter;stroke-opacity:1"
       d="m 539.99999,372.36222 -36.67417,0 -43.32583,0"
       id="path85071"
       inkscape:connector-curvature="0"
       sodipodi:nodetypes="ccc" />
    <path
       id="path62263"
       d="m 456.5756,378.27174 c -3.26448,-1.89127 -4.37766,-6.0708 -2.48638,-9.33528 0.47282,-0.81612 1.08868,-1.49781 1.79747,-2.03168 0.70884,-0.53382 1.51055,-0.91994 2.35522,-1.1449 0.84468,-0.22496 1.72856,-0.28525 2.60892,-0.17498 0.88042,0.11056 1.7575,0.39237 2.57362,0.86517 3.26443,1.89128 4.3776,6.0708 2.48632,9.33529 -1.89127,3.26442 -6.0708,4.3776 -9.33528,2.48638 z"
       sodipodi:nodetypes="ssssssss"
       inkscape:connector-curvature="0"
       style="fill:#55ff99" />
    <g
       id="g82771"
       transform="matrix(1.0832666,0,0,-1.0832666,312.40235,515.64892)"
       ns:preamble="/home/shark/PhD/inkscape/inkscape-header.tex"
       ns:text="$\\downarrow$\n">
      <defs
         id="defs82773">
        <g
           id="g82775">
          <symbol
             id="symbol82777"
             overflow="visible"
             style="overflow:visible">
            <path
               id="path82779"
               d=""
               style="stroke:none"
               inkscape:connector-curvature="0" />
          </symbol>
          <symbol
             id="symbol82781"
             overflow="visible"
             style="overflow:visible">
            <path
               id="path82783"
               d="m 4.796875,-0.578125 0,-0.171875 c 0,-0.0625 -0.046875,-0.125 -0.125,-0.109375 -0.828125,0.1875 -1.546875,0.6875 -1.984375,1.40625 l 0,-7.265625 c 0,-0.140625 -0.109375,-0.203125 -0.203125,-0.203125 -0.109375,0 -0.203125,0.0625 -0.203125,0.203125 l 0,7.265625 C 1.828125,-0.171875 1.125,-0.671875 0.296875,-0.859375 0.21875,-0.875 0.171875,-0.8125 0.171875,-0.75 l 0,0.171875 c 0,0.0625 0.03125,0.09375 0.078125,0.109375 1.109375,0.265625 1.96875,1.171875 2.125,2.3125 0,0.046875 0.046875,0.09375 0.109375,0.09375 0.0625,0 0.09375,-0.046875 0.109375,-0.09375 0.15625,-1.140625 1,-2.046875 2.125,-2.3125 0.046875,-0.015625 0.078125,-0.046875 0.078125,-0.109375 z m 0,0"
               style="stroke:none"
               inkscape:connector-curvature="0" />
          </symbol>
        </g>
      </defs>
      <g
         id="g82785">
        <g
           id="g82787"
           style="fill:#000000;fill-opacity:1">
          <g
             id="use82789"
             transform="translate(133.76801,134.765)">
            <path
               inkscape:connector-curvature="0"
               style="stroke:none"
               d="m 4.796875,-0.578125 0,-0.171875 c 0,-0.0625 -0.046875,-0.125 -0.125,-0.109375 -0.828125,0.1875 -1.546875,0.6875 -1.984375,1.40625 l 0,-7.265625 c 0,-0.140625 -0.109375,-0.203125 -0.203125,-0.203125 -0.109375,0 -0.203125,0.0625 -0.203125,0.203125 l 0,7.265625 C 1.828125,-0.171875 1.125,-0.671875 0.296875,-0.859375 0.21875,-0.875 0.171875,-0.8125 0.171875,-0.75 l 0,0.171875 c 0,0.0625 0.03125,0.09375 0.078125,0.109375 1.109375,0.265625 1.96875,1.171875 2.125,2.3125 0,0.046875 0.046875,0.09375 0.109375,0.09375 0.0625,0 0.09375,-0.046875 0.109375,-0.09375 0.15625,-1.140625 1,-2.046875 2.125,-2.3125 0.046875,-0.015625 0.078125,-0.046875 0.078125,-0.109375 z m 0,0"
               id="path17059" />
          </g>
        </g>
      </g>
    </g>
    <path
       id="path62302"
       d="m 296.57561,438.27174 c -3.26448,-1.89127 -4.37766,-6.0708 -2.48638,-9.33528 0.47281,-0.81612 1.08868,-1.49781 1.79746,-2.03168 0.70885,-0.53382 1.51056,-0.91994 2.35523,-1.1449 0.84468,-0.22496 1.72856,-0.28525 2.60892,-0.17498 0.88042,0.11056 1.75749,0.39237 2.57361,0.86517 3.26443,1.89128 4.37761,6.0708 2.48633,9.33529 -1.89127,3.26442 -6.0708,4.3776 -9.33528,2.48638 z"
       sodipodi:nodetypes="ssssssss"
       inkscape:connector-curvature="0"
       style="fill:#80e5ff" />
    <g
       ns:text="$\\downarrow$\n"
       ns:preamble="/home/shark/PhD/inkscape/inkscape-header.tex"
       transform="matrix(1.0832666,0,0,1.0832666,152.40235,289.07548)"
       id="g82671">
      <defs
         id="defs82673">
        <g
           id="g82675">
          <symbol
             style="overflow:visible"
             overflow="visible"
             id="symbol82677">
            <path
               inkscape:connector-curvature="0"
               style="stroke:none"
               d=""
               id="path82679" />
          </symbol>
          <symbol
             style="overflow:visible"
             overflow="visible"
             id="symbol82681">
            <path
               inkscape:connector-curvature="0"
               style="stroke:none"
               d="m 4.796875,-0.578125 0,-0.171875 c 0,-0.0625 -0.046875,-0.125 -0.125,-0.109375 -0.828125,0.1875 -1.546875,0.6875 -1.984375,1.40625 l 0,-7.265625 c 0,-0.140625 -0.109375,-0.203125 -0.203125,-0.203125 -0.109375,0 -0.203125,0.0625 -0.203125,0.203125 l 0,7.265625 C 1.828125,-0.171875 1.125,-0.671875 0.296875,-0.859375 0.21875,-0.875 0.171875,-0.8125 0.171875,-0.75 l 0,0.171875 c 0,0.0625 0.03125,0.09375 0.078125,0.109375 1.109375,0.265625 1.96875,1.171875 2.125,2.3125 0,0.046875 0.046875,0.09375 0.109375,0.09375 0.0625,0 0.09375,-0.046875 0.109375,-0.09375 0.15625,-1.140625 1,-2.046875 2.125,-2.3125 0.046875,-0.015625 0.078125,-0.046875 0.078125,-0.109375 z m 0,0"
               id="path82683" />
          </symbol>
        </g>
      </defs>
      <g
         id="g82685">
        <g
           style="fill:#000000;fill-opacity:1"
           id="g82687">
          <g
             id="use82689"
             transform="translate(133.76801,134.765)">
            <path
               inkscape:connector-curvature="0"
               style="stroke:none"
               d="m 4.796875,-0.578125 0,-0.171875 c 0,-0.0625 -0.046875,-0.125 -0.125,-0.109375 -0.828125,0.1875 -1.546875,0.6875 -1.984375,1.40625 l 0,-7.265625 c 0,-0.140625 -0.109375,-0.203125 -0.203125,-0.203125 -0.109375,0 -0.203125,0.0625 -0.203125,0.203125 l 0,7.265625 C 1.828125,-0.171875 1.125,-0.671875 0.296875,-0.859375 0.21875,-0.875 0.171875,-0.8125 0.171875,-0.75 l 0,0.171875 c 0,0.0625 0.03125,0.09375 0.078125,0.109375 1.109375,0.265625 1.96875,1.171875 2.125,2.3125 0,0.046875 0.046875,0.09375 0.109375,0.09375 0.0625,0 0.09375,-0.046875 0.109375,-0.09375 0.15625,-1.140625 1,-2.046875 2.125,-2.3125 0.046875,-0.015625 0.078125,-0.046875 0.078125,-0.109375 z m 0,0"
               id="path17063" />
          </g>
        </g>
      </g>
    </g>
    <g
       ns:text="$w_d \\ef{2i \\delta}$\n"
       ns:preamble="/home/shark/PhD/inkscape/inkscape-header.tex"
       transform="matrix(1.6142738,0,0,1.6142738,101.10841,146.62714)"
       id="g85353">
      <defs
         id="defs85355">
        <g
           id="g85357">
          <symbol
             style="overflow:visible"
             overflow="visible"
             id="symbol85359">
            <path
               inkscape:connector-curvature="0"
               style="stroke:none"
               d=""
               id="path85361" />
          </symbol>
          <symbol
             style="overflow:visible"
             overflow="visible"
             id="symbol85363">
            <path
               inkscape:connector-curvature="0"
               style="stroke:none"
               d="m 6.890625,-3.703125 c 0,-0.546875 -0.265625,-0.703125 -0.4375,-0.703125 -0.25,0 -0.5,0.265625 -0.5,0.484375 0,0.125 0.0625,0.1875 0.140625,0.265625 0.109375,0.109375 0.359375,0.359375 0.359375,0.84375 0,0.34375 -0.28125,1.3125 -0.546875,1.828125 -0.25,0.53125 -0.609375,0.875 -1.09375,0.875 -0.46875,0 -0.734375,-0.296875 -0.734375,-0.875 0,-0.265625 0.0625,-0.578125 0.109375,-0.71875 L 4.609375,-3.375 C 4.65625,-3.59375 4.75,-3.96875 4.75,-4.03125 c 0,-0.171875 -0.140625,-0.265625 -0.28125,-0.265625 -0.125,0 -0.296875,0.078125 -0.375,0.28125 -0.03125,0.0625 -0.5,1.96875 -0.5625,2.234375 C 3.453125,-1.484375 3.4375,-1.3125 3.4375,-1.125 c 0,0.109375 0,0.125 0.015625,0.171875 -0.234375,0.53125 -0.53125,0.84375 -0.921875,0.84375 -0.796875,0 -0.796875,-0.734375 -0.796875,-0.90625 0,-0.3125 0.046875,-0.703125 0.515625,-1.9375 0.109375,-0.296875 0.171875,-0.4375 0.171875,-0.640625 0,-0.4375 -0.328125,-0.8125 -0.8125,-0.8125 -0.953125,0 -1.3125,1.453125 -1.3125,1.53125 0,0.109375 0.109375,0.109375 0.109375,0.109375 0.109375,0 0.109375,-0.03125 0.15625,-0.1875 C 0.84375,-3.875 1.21875,-4.1875 1.578125,-4.1875 c 0.09375,0 0.25,0.015625 0.25,0.328125 0,0.25 -0.109375,0.53125 -0.1875,0.703125 -0.4375,1.171875 -0.546875,1.625 -0.546875,2.015625 0,0.90625 0.65625,1.25 1.40625,1.25 0.171875,0 0.640625,0 1.03125,-0.703125 0.265625,0.640625 0.953125,0.703125 1.25,0.703125 0.75,0 1.1875,-0.625 1.453125,-1.21875 0.328125,-0.78125 0.65625,-2.125 0.65625,-2.59375 z m 0,0"
               id="path85365" />
          </symbol>
          <symbol
             style="overflow:visible"
             overflow="visible"
             id="symbol85367">
            <path
               inkscape:connector-curvature="0"
               style="stroke:none"
               d=""
               id="path85369" />
          </symbol>
          <symbol
             style="overflow:visible"
             overflow="visible"
             id="symbol85371">
            <path
               inkscape:connector-curvature="0"
               style="stroke:none"
               d="m 3.984375,-1 c 0,-0.09375 -0.09375,-0.09375 -0.109375,-0.09375 -0.109375,0 -0.109375,0.03125 -0.15625,0.21875 C 3.625,-0.53125 3.5,-0.125 3.203125,-0.125 3.03125,-0.125 2.96875,-0.28125 2.96875,-0.46875 c 0,-0.125 0.015625,-0.1875 0.046875,-0.28125 l 0.96875,-3.875 C 3.984375,-4.640625 4,-4.734375 4,-4.734375 4,-4.78125 3.984375,-4.84375 3.890625,-4.84375 3.75,-4.84375 3.171875,-4.78125 3,-4.765625 c -0.046875,0 -0.15625,0.015625 -0.15625,0.15625 0,0.09375 0.109375,0.09375 0.1875,0.09375 0.328125,0 0.328125,0.0625 0.328125,0.109375 0,0.046875 0,0.09375 -0.015625,0.15625 L 2.9375,-2.65625 c -0.140625,-0.234375 -0.375,-0.421875 -0.71875,-0.421875 -0.890625,0 -1.796875,0.984375 -1.796875,1.984375 0,0.6875 0.453125,1.15625 1.0625,1.15625 0.375,0 0.703125,-0.203125 0.984375,-0.484375 C 2.59375,0 3,0.0625 3.1875,0.0625 c 0.25,0 0.421875,-0.140625 0.546875,-0.359375 0.15625,-0.28125 0.25,-0.671875 0.25,-0.703125 z M 2.828125,-2.171875 2.5,-0.875 C 2.453125,-0.671875 2.296875,-0.53125 2.140625,-0.40625 2.078125,-0.34375 1.796875,-0.125 1.5,-0.125 c -0.265625,0 -0.515625,-0.1875 -0.515625,-0.671875 0,-0.375 0.203125,-1.140625 0.375,-1.421875 0.3125,-0.5625 0.671875,-0.65625 0.859375,-0.65625 0.484375,0 0.625,0.53125 0.625,0.609375 0,0.015625 -0.015625,0.078125 -0.015625,0.09375 z m 0,0"
               id="path85373" />
          </symbol>
          <symbol
             style="overflow:visible"
             overflow="visible"
             id="symbol85375">
            <path
               inkscape:connector-curvature="0"
               style="stroke:none"
               d="m 2.265625,-4.359375 c 0,-0.109375 -0.09375,-0.265625 -0.28125,-0.265625 -0.1875,0 -0.390625,0.1875 -0.390625,0.390625 0,0.109375 0.078125,0.265625 0.28125,0.265625 0.1875,0 0.390625,-0.203125 0.390625,-0.390625 z M 2.4375,-1 c 0,-0.09375 -0.09375,-0.09375 -0.109375,-0.09375 -0.09375,0 -0.109375,0.046875 -0.140625,0.125 -0.15625,0.5625 -0.453125,0.84375 -0.734375,0.84375 -0.140625,0 -0.171875,-0.09375 -0.171875,-0.25 0,-0.15625 0.046875,-0.28125 0.109375,-0.4375 l 0.21875,-0.5625 0.34375,-0.890625 C 1.984375,-2.328125 2,-2.40625 2,-2.484375 2,-2.8125 1.71875,-3.078125 1.34375,-3.078125 0.640625,-3.078125 0.328125,-2.125 0.328125,-2 c 0,0.078125 0.09375,0.078125 0.125,0.078125 0.09375,0 0.09375,-0.03125 0.125,-0.109375 C 0.75,-2.625 1.0625,-2.875 1.3125,-2.875 c 0.109375,0 0.171875,0.046875 0.171875,0.234375 0,0.171875 -0.03125,0.265625 -0.203125,0.703125 l -0.4375,1.125 c -0.03125,0.09375 -0.0625,0.171875 -0.0625,0.296875 0,0.328125 0.265625,0.578125 0.65625,0.578125 0.6875,0 1,-0.953125 1,-1.0625 z m 0,0"
               id="path85377" />
          </symbol>
          <symbol
             style="overflow:visible"
             overflow="visible"
             id="symbol85379">
            <path
               inkscape:connector-curvature="0"
               style="stroke:none"
               d="M 3.078125,-1.28125 C 3.125,-1.484375 3.15625,-1.71875 3.15625,-1.921875 c 0,-0.140625 0,-0.265625 -0.046875,-0.390625 C 3.046875,-2.640625 2.875,-2.921875 2.65625,-3.15625 2.3125,-3.546875 1.8125,-4.09375 1.8125,-4.40625 c 0,-0.046875 0,-0.078125 0.015625,-0.109375 0.046875,-0.0625 0.09375,-0.125 0.171875,-0.15625 0.0625,-0.03125 0.125,-0.03125 0.1875,-0.03125 l 0.046875,0 c 0.34375,0.015625 0.578125,0.25 0.875,0.34375 0.03125,0.015625 0.046875,0.015625 0.078125,0.015625 0.109375,0 0.21875,-0.0625 0.265625,-0.171875 0.03125,-0.03125 0.03125,-0.078125 0.03125,-0.125 0,-0.09375 -0.0625,-0.171875 -0.15625,-0.1875 -0.296875,-0.078125 -0.65625,-0.140625 -0.9375,-0.140625 -0.046875,0 -0.09375,0 -0.140625,0 -0.125,0.015625 -0.234375,0.046875 -0.34375,0.109375 -0.09375,0.0625 -0.1875,0.15625 -0.234375,0.265625 -0.0625,0.109375 -0.09375,0.21875 -0.09375,0.34375 0,0.390625 0.234375,0.828125 0.484375,1.21875 -0.3125,0.0625 -0.59375,0.203125 -0.859375,0.421875 -0.359375,0.28125 -0.625,0.671875 -0.734375,1.09375 -0.03125,0.125 -0.046875,0.25 -0.046875,0.375 0,0.28125 0.09375,0.53125 0.25,0.75 0.21875,0.296875 0.59375,0.453125 1.015625,0.453125 0.640625,0 1.21875,-0.640625 1.390625,-1.34375 z M 2.546875,-1.125 c -0.125,0.484375 -0.421875,1 -0.859375,1 C 1.40625,-0.125 1.15625,-0.265625 1.03125,-0.5 0.96875,-0.640625 0.9375,-0.78125 0.9375,-0.953125 0.9375,-1.125 0.96875,-1.296875 1,-1.484375 1.09375,-1.828125 1.234375,-2.1875 1.53125,-2.46875 c 0.1875,-0.1875 0.40625,-0.3125 0.640625,-0.375 L 2.1875,-2.796875 c 0.15625,0.234375 0.296875,0.484375 0.375,0.78125 0.03125,0.125 0.046875,0.25 0.046875,0.390625 0,0.15625 -0.03125,0.328125 -0.0625,0.5 z m 0,0"
               id="path85381" />
          </symbol>
          <symbol
             style="overflow:visible"
             overflow="visible"
             id="symbol85383">
            <path
               inkscape:connector-curvature="0"
               style="stroke:none"
               d=""
               id="path85385" />
          </symbol>
          <symbol
             style="overflow:visible"
             overflow="visible"
             id="symbol85387">
            <path
               inkscape:connector-curvature="0"
               style="stroke:none"
               d="m 4.140625,-1.1875 c 0,-0.09375 -0.078125,-0.125 -0.140625,-0.125 -0.078125,0 -0.109375,0.0625 -0.125,0.140625 -0.34375,1.03125 -1.25,1.03125 -1.34375,1.03125 -0.5,0 -0.890625,-0.296875 -1.125,-0.671875 -0.296875,-0.46875 -0.296875,-1.125 -0.296875,-1.484375 l 2.78125,0 c 0.21875,0 0.25,0 0.25,-0.21875 0,-0.984375 -0.546875,-1.953125 -1.78125,-1.953125 -1.15625,0 -2.078125,1.03125 -2.078125,2.28125 0,1.328125 1.046875,2.296875 2.1875,2.296875 C 3.6875,0.109375 4.140625,-1 4.140625,-1.1875 Z m -0.65625,-1.328125 -2.375,0 C 1.171875,-4 2.015625,-4.25 2.359375,-4.25 c 1.015625,0 1.125,1.34375 1.125,1.734375 z m 0,0"
               id="path85389" />
          </symbol>
          <symbol
             style="overflow:visible"
             overflow="visible"
             id="symbol85391">
            <path
               inkscape:connector-curvature="0"
               style="stroke:none"
               d=""
               id="path85393" />
          </symbol>
          <symbol
             style="overflow:visible"
             overflow="visible"
             id="symbol85395">
            <path
               inkscape:connector-curvature="0"
               style="stroke:none"
               d="m 3.515625,-1.265625 -0.234375,0 c -0.015625,0.15625 -0.09375,0.5625 -0.1875,0.625 -0.046875,0.046875 -0.578125,0.046875 -0.6875,0.046875 l -1.28125,0 c 0.734375,-0.640625 0.984375,-0.84375 1.390625,-1.171875 0.515625,-0.40625 1,-0.84375 1,-1.5 0,-0.84375 -0.734375,-1.359375 -1.625,-1.359375 -0.859375,0 -1.453125,0.609375 -1.453125,1.25 0,0.34375 0.296875,0.390625 0.375,0.390625 0.15625,0 0.359375,-0.125 0.359375,-0.375 0,-0.125 -0.046875,-0.375 -0.40625,-0.375 C 0.984375,-4.21875 1.453125,-4.375 1.78125,-4.375 c 0.703125,0 1.0625,0.546875 1.0625,1.109375 0,0.609375 -0.4375,1.078125 -0.65625,1.328125 L 0.515625,-0.265625 C 0.4375,-0.203125 0.4375,-0.1875 0.4375,0 l 2.875,0 z m 0,0"
               id="path85397" />
          </symbol>
        </g>
      </defs>
      <g
         id="g85399">
        <g
           style="fill:#000000;fill-opacity:1"
           id="g85401">
          <use
             height="100%"
             width="100%"
             xlink:href="#textext-7e7dc8ef-1"
             x="133.76801"
             y="134.765"
             id="use85403" />
        </g>
        <g
           style="fill:#000000;fill-opacity:1"
           id="g85405">
          <use
             height="100%"
             width="100%"
             xlink:href="#textext-7e7dc8ef-3"
             x="140.901"
             y="136.259"
             id="use85407" />
        </g>
        <g
           style="fill:#000000;fill-opacity:1"
           id="g85409">
          <use
             height="100%"
             width="100%"
             xlink:href="#textext-7e7dc8ef-7"
             x="147.207"
             y="134.765"
             id="use85411" />
        </g>
        <g
           style="fill:#000000;fill-opacity:1"
           id="g85413">
          <use
             height="100%"
             width="100%"
             xlink:href="#textext-7e7dc8ef-9"
             x="151.63499"
             y="131.149"
             id="use85415" />
        </g>
        <g
           style="fill:#000000;fill-opacity:1"
           id="g85417">
          <use
             height="100%"
             width="100%"
             xlink:href="#textext-7e7dc8ef-4"
             x="155.606"
             y="131.149"
             id="use85419" />
          <use
             height="100%"
             width="100%"
             xlink:href="#textext-7e7dc8ef-5"
             x="158.4248"
             y="131.149"
             id="use85421" />
        </g>
      </g>
    </g>
    <g
       id="g5610"
       transform="matrix(1.6142738,0,0,1.6142738,104.59296,190.89576)"
       ns:preamble="/home/shark/PhD/inkscape/inkscape-header.tex"
       ns:text="$1$\n">
      <defs
         id="defs5612">
        <g
           id="g5614">
          <symbol
             id="textext-b2cbfc8b-0"
             overflow="visible"
             style="overflow:visible">
            <path
               id="path5617"
               d=""
               style="stroke:none"
               inkscape:connector-curvature="0" />
          </symbol>
          <symbol
             id="textext-b2cbfc8b-1"
             overflow="visible"
             style="overflow:visible">
            <path
               id="path5620"
               d="m 4.171875,0 0,-0.3125 -0.3125,0 c -0.90625,0 -0.921875,-0.109375 -0.921875,-0.46875 l 0,-5.59375 c 0,-0.25 0,-0.265625 -0.234375,-0.265625 C 2.078125,-6 1.203125,-6 0.890625,-6 l 0,0.3125 c 0.203125,0 0.78125,0 1.296875,-0.265625 l 0,5.171875 c 0,0.359375 -0.03125,0.46875 -0.921875,0.46875 l -0.3125,0 0,0.3125 c 0.34375,-0.03125 1.203125,-0.03125 1.609375,-0.03125 0.390625,0 1.265625,0 1.609375,0.03125 z m 0,0"
               style="stroke:none"
               inkscape:connector-curvature="0" />
          </symbol>
        </g>
      </defs>
      <g
         id="textext-b2cbfc8b-2">
        <g
           id="g5623"
           style="fill:#000000;fill-opacity:1">
          <use
             id="use5625"
             y="134.765"
             x="133.76801"
             xlink:href="#textext-b2cbfc8b-1"
             width="100%"
             height="100%" />
        </g>
      </g>
    </g>
    <path
       sodipodi:nodetypes="ccc"
       inkscape:connector-curvature="0"
       id="path6412"
       d="m 380.00001,432.36225 45,0 35,0"
       style="fill:none;fill-rule:evenodd;stroke:#0088aa;stroke-width:1.5;stroke-linecap:butt;stroke-linejoin:miter;stroke-miterlimit:4;stroke-dasharray:none;stroke-opacity:1;marker-mid:url(#marker6414)" />
    <path
       style="fill:none;fill-rule:evenodd;stroke:#0088aa;stroke-width:1.5;stroke-linecap:butt;stroke-linejoin:miter;stroke-miterlimit:4;stroke-dasharray:none;stroke-opacity:1;marker-mid:url(#Arrow1Mend)"
       d="m 300.99626,372.73717 39.50094,29.62571 39.50093,29.6257"
       id="path6062"
       inkscape:connector-curvature="0"
       sodipodi:nodetypes="ccc" />
    <path
       style="fill:#80e5ff"
       inkscape:connector-curvature="0"
       sodipodi:nodetypes="ssssssss"
       d="m 376.5756,438.27174 c -3.26448,-1.89127 -4.37766,-6.0708 -2.48638,-9.33528 0.47281,-0.81612 1.08868,-1.49781 1.79747,-2.03168 0.70884,-0.53382 1.51055,-0.91994 2.35522,-1.1449 0.84468,-0.22496 1.72856,-0.28525 2.60892,-0.17498 0.88042,0.11056 1.7575,0.39237 2.57361,0.86517 3.26443,1.89128 4.37761,6.0708 2.48633,9.33529 -1.89127,3.26442 -6.0708,4.3776 -9.33528,2.48638 z"
       id="path62308" />
    <g
       id="g82711"
       transform="matrix(1.0832666,0,0,1.0832666,232.40235,289.07548)"
       ns:preamble="/home/shark/PhD/inkscape/inkscape-header.tex"
       ns:text="$\\downarrow$\n">
      <defs
         id="defs82713">
        <g
           id="g82715">
          <symbol
             id="symbol82717"
             overflow="visible"
             style="overflow:visible">
            <path
               id="path82719"
               d=""
               style="stroke:none"
               inkscape:connector-curvature="0" />
          </symbol>
          <symbol
             id="symbol82721"
             overflow="visible"
             style="overflow:visible">
            <path
               id="path82723"
               d="m 4.796875,-0.578125 0,-0.171875 c 0,-0.0625 -0.046875,-0.125 -0.125,-0.109375 -0.828125,0.1875 -1.546875,0.6875 -1.984375,1.40625 l 0,-7.265625 c 0,-0.140625 -0.109375,-0.203125 -0.203125,-0.203125 -0.109375,0 -0.203125,0.0625 -0.203125,0.203125 l 0,7.265625 C 1.828125,-0.171875 1.125,-0.671875 0.296875,-0.859375 0.21875,-0.875 0.171875,-0.8125 0.171875,-0.75 l 0,0.171875 c 0,0.0625 0.03125,0.09375 0.078125,0.109375 1.109375,0.265625 1.96875,1.171875 2.125,2.3125 0,0.046875 0.046875,0.09375 0.109375,0.09375 0.0625,0 0.09375,-0.046875 0.109375,-0.09375 0.15625,-1.140625 1,-2.046875 2.125,-2.3125 0.046875,-0.015625 0.078125,-0.046875 0.078125,-0.109375 z m 0,0"
               style="stroke:none"
               inkscape:connector-curvature="0" />
          </symbol>
        </g>
      </defs>
      <g
         id="g82725">
        <g
           id="g82727"
           style="fill:#000000;fill-opacity:1">
          <g
             id="use82729"
             transform="translate(133.76801,134.765)">
            <path
               inkscape:connector-curvature="0"
               style="stroke:none"
               d="m 4.796875,-0.578125 0,-0.171875 c 0,-0.0625 -0.046875,-0.125 -0.125,-0.109375 -0.828125,0.1875 -1.546875,0.6875 -1.984375,1.40625 l 0,-7.265625 c 0,-0.140625 -0.109375,-0.203125 -0.203125,-0.203125 -0.109375,0 -0.203125,0.0625 -0.203125,0.203125 l 0,7.265625 C 1.828125,-0.171875 1.125,-0.671875 0.296875,-0.859375 0.21875,-0.875 0.171875,-0.8125 0.171875,-0.75 l 0,0.171875 c 0,0.0625 0.03125,0.09375 0.078125,0.109375 1.109375,0.265625 1.96875,1.171875 2.125,2.3125 0,0.046875 0.046875,0.09375 0.109375,0.09375 0.0625,0 0.09375,-0.046875 0.109375,-0.09375 0.15625,-1.140625 1,-2.046875 2.125,-2.3125 0.046875,-0.015625 0.078125,-0.046875 0.078125,-0.109375 z m 0,0"
               id="path17071" />
          </g>
        </g>
      </g>
    </g>
    <path
       style="fill:none;fill-rule:evenodd;stroke:#008033;stroke-width:1.5;stroke-linecap:butt;stroke-linejoin:miter;stroke-miterlimit:4;stroke-dasharray:none;stroke-opacity:1;marker-mid:url(#marker85175)"
       d="m 380.99626,372.73717 -30.99625,-0.37492 -49.00375,0.37492"
       id="path11874"
       inkscape:connector-curvature="0"
       sodipodi:nodetypes="ccc" />
    <path
       sodipodi:nodetypes="ccc"
       inkscape:connector-curvature="0"
       id="path11876"
       d="m 460.00001,432.36225 -39.50094,-29.62571 -39.50093,-29.6257"
       style="fill:none;fill-rule:evenodd;stroke:#008033;stroke-width:1.5;stroke-linecap:butt;stroke-linejoin:miter;stroke-miterlimit:4;stroke-dasharray:none;stroke-opacity:1;marker-mid:url(#marker12352)" />
    <path
       style="fill:#80e5ff"
       inkscape:connector-curvature="0"
       sodipodi:nodetypes="ssssssss"
       d="m 456.5756,438.27174 c -3.26448,-1.89127 -4.37766,-6.0708 -2.48638,-9.33528 0.47282,-0.81612 1.08868,-1.49781 1.79747,-2.03168 0.70884,-0.53382 1.51055,-0.91994 2.35522,-1.1449 0.84468,-0.22496 1.72856,-0.28525 2.60892,-0.17498 0.88042,0.11056 1.7575,0.39237 2.57362,0.86517 3.26443,1.89128 4.3776,6.0708 2.48632,9.33529 -1.89127,3.26442 -6.0708,4.3776 -9.33528,2.48638 z"
       id="path62314" />
    <g
       ns:text="$\\downarrow$\n"
       ns:preamble="/home/shark/PhD/inkscape/inkscape-header.tex"
       transform="matrix(1.0832666,0,0,1.0832666,312.40235,289.07548)"
       id="g82751">
      <defs
         id="defs82753">
        <g
           id="g82755">
          <symbol
             style="overflow:visible"
             overflow="visible"
             id="symbol82757">
            <path
               inkscape:connector-curvature="0"
               style="stroke:none"
               d=""
               id="path82759" />
          </symbol>
          <symbol
             style="overflow:visible"
             overflow="visible"
             id="symbol82761">
            <path
               inkscape:connector-curvature="0"
               style="stroke:none"
               d="m 4.796875,-0.578125 0,-0.171875 c 0,-0.0625 -0.046875,-0.125 -0.125,-0.109375 -0.828125,0.1875 -1.546875,0.6875 -1.984375,1.40625 l 0,-7.265625 c 0,-0.140625 -0.109375,-0.203125 -0.203125,-0.203125 -0.109375,0 -0.203125,0.0625 -0.203125,0.203125 l 0,7.265625 C 1.828125,-0.171875 1.125,-0.671875 0.296875,-0.859375 0.21875,-0.875 0.171875,-0.8125 0.171875,-0.75 l 0,0.171875 c 0,0.0625 0.03125,0.09375 0.078125,0.109375 1.109375,0.265625 1.96875,1.171875 2.125,2.3125 0,0.046875 0.046875,0.09375 0.109375,0.09375 0.0625,0 0.09375,-0.046875 0.109375,-0.09375 0.15625,-1.140625 1,-2.046875 2.125,-2.3125 0.046875,-0.015625 0.078125,-0.046875 0.078125,-0.109375 z m 0,0"
               id="path82763" />
          </symbol>
        </g>
      </defs>
      <g
         id="g82765">
        <g
           style="fill:#000000;fill-opacity:1"
           id="g82767">
          <g
             id="use82769"
             transform="translate(133.76801,134.765)">
            <path
               inkscape:connector-curvature="0"
               style="stroke:none"
               d="m 4.796875,-0.578125 0,-0.171875 c 0,-0.0625 -0.046875,-0.125 -0.125,-0.109375 -0.828125,0.1875 -1.546875,0.6875 -1.984375,1.40625 l 0,-7.265625 c 0,-0.140625 -0.109375,-0.203125 -0.203125,-0.203125 -0.109375,0 -0.203125,0.0625 -0.203125,0.203125 l 0,7.265625 C 1.828125,-0.171875 1.125,-0.671875 0.296875,-0.859375 0.21875,-0.875 0.171875,-0.8125 0.171875,-0.75 l 0,0.171875 c 0,0.0625 0.03125,0.09375 0.078125,0.109375 1.109375,0.265625 1.96875,1.171875 2.125,2.3125 0,0.046875 0.046875,0.09375 0.109375,0.09375 0.0625,0 0.09375,-0.046875 0.109375,-0.09375 0.15625,-1.140625 1,-2.046875 2.125,-2.3125 0.046875,-0.015625 0.078125,-0.046875 0.078125,-0.109375 z m 0,0"
               id="path17075" />
          </g>
        </g>
      </g>
    </g>
    <path
       id="path62251"
       d="m 376.5756,378.27174 c -3.26448,-1.89127 -4.37766,-6.0708 -2.48638,-9.33528 0.47281,-0.81612 1.08868,-1.49781 1.79747,-2.03168 0.70884,-0.53382 1.51055,-0.91994 2.35522,-1.1449 0.84468,-0.22496 1.72856,-0.28525 2.60892,-0.17498 0.88042,0.11056 1.7575,0.39237 2.57361,0.86517 3.26443,1.89128 4.37761,6.0708 2.48633,9.33529 -1.89127,3.26442 -6.0708,4.3776 -9.33528,2.48638 z"
       sodipodi:nodetypes="ssssssss"
       inkscape:connector-curvature="0"
       style="fill:#55ff99" />
    <g
       ns:text="$\\downarrow$\n"
       ns:preamble="/home/shark/PhD/inkscape/inkscape-header.tex"
       transform="matrix(1.0832666,0,0,-1.0832666,232.40235,515.64892)"
       id="g82731">
      <defs
         id="defs82733">
        <g
           id="g82735">
          <symbol
             style="overflow:visible"
             overflow="visible"
             id="symbol82737">
            <path
               inkscape:connector-curvature="0"
               style="stroke:none"
               d=""
               id="path82739" />
          </symbol>
          <symbol
             style="overflow:visible"
             overflow="visible"
             id="symbol82741">
            <path
               inkscape:connector-curvature="0"
               style="stroke:none"
               d="m 4.796875,-0.578125 0,-0.171875 c 0,-0.0625 -0.046875,-0.125 -0.125,-0.109375 -0.828125,0.1875 -1.546875,0.6875 -1.984375,1.40625 l 0,-7.265625 c 0,-0.140625 -0.109375,-0.203125 -0.203125,-0.203125 -0.109375,0 -0.203125,0.0625 -0.203125,0.203125 l 0,7.265625 C 1.828125,-0.171875 1.125,-0.671875 0.296875,-0.859375 0.21875,-0.875 0.171875,-0.8125 0.171875,-0.75 l 0,0.171875 c 0,0.0625 0.03125,0.09375 0.078125,0.109375 1.109375,0.265625 1.96875,1.171875 2.125,2.3125 0,0.046875 0.046875,0.09375 0.109375,0.09375 0.0625,0 0.09375,-0.046875 0.109375,-0.09375 0.15625,-1.140625 1,-2.046875 2.125,-2.3125 0.046875,-0.015625 0.078125,-0.046875 0.078125,-0.109375 z m 0,0"
               id="path82743" />
          </symbol>
        </g>
      </defs>
      <g
         id="g82745">
        <g
           style="fill:#000000;fill-opacity:1"
           id="g82747">
          <g
             id="use82749"
             transform="translate(133.76801,134.765)">
            <path
               inkscape:connector-curvature="0"
               style="stroke:none"
               d="m 4.796875,-0.578125 0,-0.171875 c 0,-0.0625 -0.046875,-0.125 -0.125,-0.109375 -0.828125,0.1875 -1.546875,0.6875 -1.984375,1.40625 l 0,-7.265625 c 0,-0.140625 -0.109375,-0.203125 -0.203125,-0.203125 -0.109375,0 -0.203125,0.0625 -0.203125,0.203125 l 0,7.265625 C 1.828125,-0.171875 1.125,-0.671875 0.296875,-0.859375 0.21875,-0.875 0.171875,-0.8125 0.171875,-0.75 l 0,0.171875 c 0,0.0625 0.03125,0.09375 0.078125,0.109375 1.109375,0.265625 1.96875,1.171875 2.125,2.3125 0,0.046875 0.046875,0.09375 0.109375,0.09375 0.0625,0 0.09375,-0.046875 0.109375,-0.09375 0.15625,-1.140625 1,-2.046875 2.125,-2.3125 0.046875,-0.015625 0.078125,-0.046875 0.078125,-0.109375 z m 0,0"
               id="path17079" />
          </g>
        </g>
      </g>
    </g>
    <path
       style="fill:#55ff99"
       inkscape:connector-curvature="0"
       sodipodi:nodetypes="ssssssss"
       d="m 296.57561,378.27174 c -3.26448,-1.89127 -4.37766,-6.0708 -2.48638,-9.33528 0.47281,-0.81612 1.08868,-1.49781 1.79746,-2.03168 0.70885,-0.53382 1.51056,-0.91994 2.35523,-1.1449 0.84468,-0.22496 1.72856,-0.28525 2.60892,-0.17498 0.88042,0.11056 1.75749,0.39237 2.57361,0.86517 3.26443,1.89128 4.37761,6.0708 2.48633,9.33529 -1.89127,3.26442 -6.0708,4.3776 -9.33528,2.48638 z"
       id="path62239" />
    <g
       id="g82691"
       transform="matrix(1.0832666,0,0,-1.0832666,152.40235,515.64892)"
       ns:preamble="/home/shark/PhD/inkscape/inkscape-header.tex"
       ns:text="$\\downarrow$\n">
      <defs
         id="defs82693">
        <g
           id="g82695">
          <symbol
             id="symbol82697"
             overflow="visible"
             style="overflow:visible">
            <path
               id="path82699"
               d=""
               style="stroke:none"
               inkscape:connector-curvature="0" />
          </symbol>
          <symbol
             id="symbol82701"
             overflow="visible"
             style="overflow:visible">
            <path
               id="path82703"
               d="m 4.796875,-0.578125 0,-0.171875 c 0,-0.0625 -0.046875,-0.125 -0.125,-0.109375 -0.828125,0.1875 -1.546875,0.6875 -1.984375,1.40625 l 0,-7.265625 c 0,-0.140625 -0.109375,-0.203125 -0.203125,-0.203125 -0.109375,0 -0.203125,0.0625 -0.203125,0.203125 l 0,7.265625 C 1.828125,-0.171875 1.125,-0.671875 0.296875,-0.859375 0.21875,-0.875 0.171875,-0.8125 0.171875,-0.75 l 0,0.171875 c 0,0.0625 0.03125,0.09375 0.078125,0.109375 1.109375,0.265625 1.96875,1.171875 2.125,2.3125 0,0.046875 0.046875,0.09375 0.109375,0.09375 0.0625,0 0.09375,-0.046875 0.109375,-0.09375 0.15625,-1.140625 1,-2.046875 2.125,-2.3125 0.046875,-0.015625 0.078125,-0.046875 0.078125,-0.109375 z m 0,0"
               style="stroke:none"
               inkscape:connector-curvature="0" />
          </symbol>
        </g>
      </defs>
      <g
         id="g82705">
        <g
           id="g82707"
           style="fill:#000000;fill-opacity:1">
          <g
             id="use82709"
             transform="translate(133.76801,134.765)">
            <path
               inkscape:connector-curvature="0"
               style="stroke:none"
               d="m 4.796875,-0.578125 0,-0.171875 c 0,-0.0625 -0.046875,-0.125 -0.125,-0.109375 -0.828125,0.1875 -1.546875,0.6875 -1.984375,1.40625 l 0,-7.265625 c 0,-0.140625 -0.109375,-0.203125 -0.203125,-0.203125 -0.109375,0 -0.203125,0.0625 -0.203125,0.203125 l 0,7.265625 C 1.828125,-0.171875 1.125,-0.671875 0.296875,-0.859375 0.21875,-0.875 0.171875,-0.8125 0.171875,-0.75 l 0,0.171875 c 0,0.0625 0.03125,0.09375 0.078125,0.109375 1.109375,0.265625 1.96875,1.171875 2.125,2.3125 0,0.046875 0.046875,0.09375 0.109375,0.09375 0.0625,0 0.09375,-0.046875 0.109375,-0.09375 0.15625,-1.140625 1,-2.046875 2.125,-2.3125 0.046875,-0.015625 0.078125,-0.046875 0.078125,-0.109375 z m 0,0"
               id="path17083" />
          </g>
        </g>
      </g>
    </g>
    <g
       ns:text="$-i$\n"
       ns:preamble="/home/shark/PhD/inkscape/inkscape-header.tex"
       transform="matrix(1.6142738,0,0,1.6142738,194.78054,231.39793)"
       id="g13272">
      <defs
         id="defs13274">
        <g
           id="g13276">
          <symbol
             overflow="visible"
             id="textext-895c326f-0"
             style="overflow:visible">
            <path
               style="stroke:none"
               d=""
               id="path13279"
               inkscape:connector-curvature="0" />
          </symbol>
          <symbol
             overflow="visible"
             id="textext-895c326f-1"
             style="overflow:visible">
            <path
               style="stroke:none"
               d="m 6.921875,-2.5 c 0,-0.1875 -0.1875,-0.1875 -0.328125,-0.1875 l -5.4375,0 c -0.140625,0 -0.328125,0 -0.328125,0.1875 0,0.203125 0.1875,0.203125 0.328125,0.203125 l 5.4375,0 c 0.140625,0 0.328125,0 0.328125,-0.203125 z m 0,0"
               id="path13282"
               inkscape:connector-curvature="0" />
          </symbol>
          <symbol
             overflow="visible"
             id="textext-895c326f-2"
             style="overflow:visible">
            <path
               style="stroke:none"
               d=""
               id="path13285"
               inkscape:connector-curvature="0" />
          </symbol>
          <symbol
             overflow="visible"
             id="textext-895c326f-3"
             style="overflow:visible">
            <path
               style="stroke:none"
               d="m 2.828125,-6.234375 c 0,-0.203125 -0.140625,-0.359375 -0.359375,-0.359375 -0.28125,0 -0.546875,0.265625 -0.546875,0.53125 0,0.1875 0.140625,0.359375 0.375,0.359375 0.234375,0 0.53125,-0.234375 0.53125,-0.53125 z m 0.09375,4.8125 c 0,-0.109375 -0.09375,-0.109375 -0.125,-0.109375 -0.09375,0 -0.09375,0.03125 -0.140625,0.1875 -0.1875,0.625 -0.515625,1.234375 -1.015625,1.234375 -0.171875,0 -0.25,-0.09375 -0.25,-0.328125 0,-0.25 0.0625,-0.390625 0.296875,-1 l 0.390625,-1.046875 c 0.109375,-0.28125 0.109375,-0.3125 0.21875,-0.578125 0.078125,-0.203125 0.125,-0.34375 0.125,-0.53125 0,-0.4375 -0.3125,-0.8125 -0.8125,-0.8125 -0.9375,0 -1.3125,1.453125 -1.3125,1.53125 0,0.109375 0.109375,0.109375 0.109375,0.109375 0.109375,0 0.109375,-0.03125 0.15625,-0.1875 0.28125,-0.9375 0.671875,-1.234375 1.015625,-1.234375 0.078125,0 0.25,0 0.25,0.3125 0,0.21875 -0.078125,0.421875 -0.109375,0.53125 -0.078125,0.25 -0.53125,1.40625 -0.6875,1.84375 -0.109375,0.25 -0.234375,0.578125 -0.234375,0.796875 0,0.46875 0.34375,0.8125 0.8125,0.8125 0.9375,0 1.3125,-1.4375 1.3125,-1.53125 z m 0,0"
               id="path13288"
               inkscape:connector-curvature="0" />
          </symbol>
        </g>
      </defs>
      <g
         id="textext-895c326f-4">
        <g
           style="fill:#000000;fill-opacity:1"
           id="g13291">
          <use
             xlink:href="#textext-895c326f-1"
             x="133.76801"
             y="134.765"
             id="use13293"
             width="100%"
             height="100%" />
        </g>
        <g
           style="fill:#000000;fill-opacity:1"
           id="g13295">
          <use
             xlink:href="#textext-895c326f-3"
             x="141.517"
             y="134.765"
             id="use13297"
             width="100%"
             height="100%" />
        </g>
      </g>
    </g>
    <g
       id="g13979"
       transform="matrix(1.6142738,0,0,1.6142738,114.99494,146.36011)"
       ns:preamble="/home/shark/PhD/inkscape/inkscape-header.tex"
       ns:text="$+i$\n">
      <defs
         id="defs13981">
        <g
           id="g13983">
          <symbol
             id="textext-4e29909e-0"
             overflow="visible"
             style="overflow:visible">
            <path
               id="path13986"
               d=""
               style="stroke:none"
               inkscape:connector-curvature="0" />
          </symbol>
          <symbol
             id="textext-4e29909e-1"
             overflow="visible"
             style="overflow:visible">
            <path
               id="path13989"
               d="M 7.1875,-2.5 C 7.1875,-2.6875 7,-2.6875 6.859375,-2.6875 l -2.78125,0 0,-2.796875 c 0,-0.140625 0,-0.328125 -0.203125,-0.328125 -0.203125,0 -0.203125,0.1875 -0.203125,0.328125 l 0,2.796875 -2.78125,0 c -0.140625,0 -0.328125,0 -0.328125,0.1875 0,0.203125 0.1875,0.203125 0.328125,0.203125 l 2.78125,0 0,2.796875 c 0,0.140625 0,0.328125 0.203125,0.328125 0.203125,0 0.203125,-0.1875 0.203125,-0.328125 l 0,-2.796875 2.78125,0 c 0.140625,0 0.328125,0 0.328125,-0.203125 z m 0,0"
               style="stroke:none"
               inkscape:connector-curvature="0" />
          </symbol>
          <symbol
             id="textext-4e29909e-2"
             overflow="visible"
             style="overflow:visible">
            <path
               id="path13992"
               d=""
               style="stroke:none"
               inkscape:connector-curvature="0" />
          </symbol>
          <symbol
             id="textext-4e29909e-3"
             overflow="visible"
             style="overflow:visible">
            <path
               id="path13995"
               d="m 2.828125,-6.234375 c 0,-0.203125 -0.140625,-0.359375 -0.359375,-0.359375 -0.28125,0 -0.546875,0.265625 -0.546875,0.53125 0,0.1875 0.140625,0.359375 0.375,0.359375 0.234375,0 0.53125,-0.234375 0.53125,-0.53125 z m 0.09375,4.8125 c 0,-0.109375 -0.09375,-0.109375 -0.125,-0.109375 -0.09375,0 -0.09375,0.03125 -0.140625,0.1875 -0.1875,0.625 -0.515625,1.234375 -1.015625,1.234375 -0.171875,0 -0.25,-0.09375 -0.25,-0.328125 0,-0.25 0.0625,-0.390625 0.296875,-1 l 0.390625,-1.046875 c 0.109375,-0.28125 0.109375,-0.3125 0.21875,-0.578125 0.078125,-0.203125 0.125,-0.34375 0.125,-0.53125 0,-0.4375 -0.3125,-0.8125 -0.8125,-0.8125 -0.9375,0 -1.3125,1.453125 -1.3125,1.53125 0,0.109375 0.109375,0.109375 0.109375,0.109375 0.109375,0 0.109375,-0.03125 0.15625,-0.1875 0.28125,-0.9375 0.671875,-1.234375 1.015625,-1.234375 0.078125,0 0.25,0 0.25,0.3125 0,0.21875 -0.078125,0.421875 -0.109375,0.53125 -0.078125,0.25 -0.53125,1.40625 -0.6875,1.84375 -0.109375,0.25 -0.234375,0.578125 -0.234375,0.796875 0,0.46875 0.34375,0.8125 0.8125,0.8125 0.9375,0 1.3125,-1.4375 1.3125,-1.53125 z m 0,0"
               style="stroke:none"
               inkscape:connector-curvature="0" />
          </symbol>
        </g>
      </defs>
      <g
         id="textext-4e29909e-4">
        <g
           id="g13998"
           style="fill:#000000;fill-opacity:1">
          <use
             id="use14000"
             y="134.765"
             x="133.76801"
             xlink:href="#textext-4e29909e-1"
             width="100%"
             height="100%" />
        </g>
        <g
           id="g14002"
           style="fill:#000000;fill-opacity:1">
          <use
             id="use14004"
             y="134.765"
             x="141.517"
             xlink:href="#textext-4e29909e-3"
             width="100%"
             height="100%" />
        </g>
      </g>
    </g>
    <g
       ns:text="$1$\n"
       ns:preamble="/home/shark/PhD/inkscape/inkscape-header.tex"
       transform="matrix(1.6142738,0,0,1.6142738,184.59296,190.89576)"
       id="g15459">
      <defs
         id="defs15461">
        <g
           id="g15463">
          <symbol
             style="overflow:visible"
             overflow="visible"
             id="symbol15465">
            <path
               inkscape:connector-curvature="0"
               style="stroke:none"
               d=""
               id="path15467" />
          </symbol>
          <symbol
             style="overflow:visible"
             overflow="visible"
             id="symbol15469">
            <path
               inkscape:connector-curvature="0"
               style="stroke:none"
               d="m 4.171875,0 0,-0.3125 -0.3125,0 c -0.90625,0 -0.921875,-0.109375 -0.921875,-0.46875 l 0,-5.59375 c 0,-0.25 0,-0.265625 -0.234375,-0.265625 C 2.078125,-6 1.203125,-6 0.890625,-6 l 0,0.3125 c 0.203125,0 0.78125,0 1.296875,-0.265625 l 0,5.171875 c 0,0.359375 -0.03125,0.46875 -0.921875,0.46875 l -0.3125,0 0,0.3125 c 0.34375,-0.03125 1.203125,-0.03125 1.609375,-0.03125 0.390625,0 1.265625,0 1.609375,0.03125 z m 0,0"
               id="path15471" />
          </symbol>
        </g>
      </defs>
      <g
         id="g15473">
        <g
           style="fill:#000000;fill-opacity:1"
           id="g15475">
          <use
             height="100%"
             width="100%"
             xlink:href="#textext-b2cbfc8b-1"
             x="133.76801"
             y="134.765"
             id="use15477" />
        </g>
      </g>
    </g>
    <g
       ns:text="$A$\n"
       ns:preamble="/home/shark/PhD/inkscape/inkscape-header.tex"
       transform="matrix(1.6142738,0,0,1.6142738,77.98307,144.26218)"
       id="g15873">
      <defs
         id="defs15875">
        <g
           id="g15877">
          <symbol
             style="overflow:visible"
             overflow="visible"
             id="textext-f420345d-0">
            <path
               inkscape:connector-curvature="0"
               style="stroke:none"
               d=""
               id="path15880" />
          </symbol>
          <symbol
             style="overflow:visible"
             overflow="visible"
             id="textext-f420345d-1">
            <path
               inkscape:connector-curvature="0"
               style="stroke:none"
               d="M 7.1875,-0.203125 C 7.1875,-0.3125 7.09375,-0.3125 6.953125,-0.3125 6.34375,-0.3125 6.34375,-0.375 6.3125,-0.671875 l -0.609375,-6.21875 c -0.015625,-0.203125 -0.015625,-0.25 -0.1875,-0.25 -0.15625,0 -0.203125,0.078125 -0.265625,0.171875 L 1.78125,-1.140625 C 1.390625,-0.484375 1,-0.34375 0.5625,-0.3125 0.4375,-0.296875 0.34375,-0.296875 0.34375,-0.109375 0.34375,-0.046875 0.40625,0 0.484375,0 0.75,0 1.0625,-0.03125 1.328125,-0.03125 c 0.34375,0 0.6875,0.03125 1,0.03125 0.0625,0 0.1875,0 0.1875,-0.1875 0,-0.109375 -0.078125,-0.125 -0.15625,-0.125 -0.21875,-0.015625 -0.46875,-0.09375 -0.46875,-0.34375 0,-0.125 0.0625,-0.234375 0.140625,-0.375 0.078125,-0.109375 0.078125,-0.109375 0.765625,-1.265625 l 2.5,0 c 0.015625,0.203125 0.15625,1.5625 0.15625,1.65625 0,0.296875 -0.515625,0.328125 -0.71875,0.328125 C 4.59375,-0.3125 4.5,-0.3125 4.5,-0.109375 4.5,0 4.640625,0 4.640625,0 5.046875,0 5.46875,-0.03125 5.875,-0.03125 6.125,-0.03125 6.765625,0 7.015625,0 7.0625,0 7.1875,0 7.1875,-0.203125 Z m -1.921875,-2.40625 -2.28125,0 L 4.9375,-5.90625 Z m 0,0"
               id="path15883" />
          </symbol>
        </g>
      </defs>
      <g
         id="textext-f420345d-2">
        <g
           style="fill:#000000;fill-opacity:1"
           id="g15886">
          <use
             height="100%"
             width="100%"
             xlink:href="#textext-f420345d-1"
             x="133.76801"
             y="134.765"
             id="use15888" />
        </g>
      </g>
    </g>
    <g
       id="g16652"
       transform="matrix(1.6142738,0,0,1.6142738,237.98306,235.78268)"
       ns:preamble="/home/shark/PhD/inkscape/inkscape-header.tex"
       ns:text="$B$\n">
      <defs
         id="defs16654">
        <g
           id="g16656">
          <symbol
             id="textext-274f720d-0"
             overflow="visible"
             style="overflow:visible">
            <path
               id="path16659"
               d=""
               style="stroke:none"
               inkscape:connector-curvature="0" />
          </symbol>
          <symbol
             id="textext-274f720d-1"
             overflow="visible"
             style="overflow:visible">
            <path
               id="path16662"
               d="M 7,-2.15625 C 7,-2.875 6.421875,-3.453125 5.453125,-3.5625 6.484375,-3.75 7.53125,-4.484375 7.53125,-5.4375 c 0,-0.734375 -0.65625,-1.375 -1.84375,-1.375 l -3.359375,0 c -0.1875,0 -0.28125,0 -0.28125,0.203125 0,0.109375 0.09375,0.109375 0.28125,0.109375 0,0 0.203125,0 0.375,0.015625 0.171875,0.03125 0.265625,0.03125 0.265625,0.171875 0,0.03125 -0.015625,0.0625 -0.03125,0.1875 L 1.59375,-0.78125 C 1.5,-0.390625 1.46875,-0.3125 0.6875,-0.3125 c -0.171875,0 -0.265625,0 -0.265625,0.203125 C 0.421875,0 0.515625,0 0.6875,0 L 4.25,0 C 5.828125,0 7,-1.171875 7,-2.15625 Z m -0.375,-3.3125 c 0,0.875 -0.859375,1.8125 -2.0625,1.8125 l -1.46875,0 0.625,-2.46875 C 3.8125,-6.46875 3.828125,-6.5 4.25,-6.5 l 1.296875,0 c 0.875,0 1.078125,0.59375 1.078125,1.03125 z M 6.078125,-2.265625 C 6.078125,-1.28125 5.1875,-0.3125 4,-0.3125 l -1.34375,0 c -0.140625,0 -0.15625,0 -0.21875,0 -0.109375,-0.015625 -0.140625,-0.03125 -0.140625,-0.109375 0,-0.03125 0,-0.046875 0.0625,-0.21875 l 0.6875,-2.78125 1.875,0 c 0.953125,0 1.15625,0.734375 1.15625,1.15625 z m 0,0"
               style="stroke:none"
               inkscape:connector-curvature="0" />
          </symbol>
        </g>
      </defs>
      <g
         id="textext-274f720d-2">
        <g
           id="g16665"
           style="fill:#000000;fill-opacity:1">
          <use
             id="use16667"
             y="134.765"
             x="133.76801"
             xlink:href="#textext-274f720d-1"
             width="100%"
             height="100%" />
        </g>
      </g>
    </g>
  </g>
</svg>
