<?xml version="1.0" encoding="UTF-8" standalone="no"?>
<!-- Created with Inkscape (http://www.inkscape.org/) -->

<svg
   xmlns:ns="http://www.iki.fi/pav/software/textext/"
   xmlns:dc="http://purl.org/dc/elements/1.1/"
   xmlns:cc="http://creativecommons.org/ns#"
   xmlns:rdf="http://www.w3.org/1999/02/22-rdf-syntax-ns#"
   xmlns:svg="http://www.w3.org/2000/svg"
   xmlns="http://www.w3.org/2000/svg"
   xmlns:xlink="http://www.w3.org/1999/xlink"
   xmlns:sodipodi="http://sodipodi.sourceforge.net/DTD/sodipodi-0.dtd"
   xmlns:inkscape="http://www.inkscape.org/namespaces/inkscape"
   width="179.52029mm"
   height="52.574615mm"
   viewBox="0 0 636.09553 186.28801"
   id="svg32787"
   version="1.1"
   inkscape:version="0.91 r13725"
   sodipodi:docname="wrapping.svg">
  <sodipodi:namedview
     id="base"
     pagecolor="#ffffff"
     bordercolor="#666666"
     borderopacity="1.0"
     inkscape:pageopacity="0.0"
     inkscape:pageshadow="2"
     inkscape:zoom="1.4142136"
     inkscape:cx="302.96863"
     inkscape:cy="9.6968695"
     inkscape:document-units="px"
     inkscape:current-layer="layer1"
     showgrid="false"
     inkscape:window-width="1920"
     inkscape:window-height="1176"
     inkscape:window-x="1920"
     inkscape:window-y="0"
     inkscape:window-maximized="0"
     fit-margin-top="0"
     fit-margin-left="0"
     fit-margin-right="0"
     fit-margin-bottom="0" />
  <defs
     id="defs32789">
    <marker
       inkscape:stockid="Arrow2Lstart"
       orient="auto"
       refY="0"
       refX="0"
       id="marker408317"
       style="overflow:visible"
       inkscape:isstock="true">
      <path
         inkscape:connector-curvature="0"
         id="path408319"
         style="fill:#000000;fill-opacity:1;fill-rule:evenodd;stroke:#000000;stroke-width:0.625;stroke-linejoin:round;stroke-opacity:1"
         d="M 8.7185878,4.0337352 -2.2072895,0.01601326 8.7185884,-4.0017078 c -1.7454984,2.3720609 -1.7354408,5.6174519 -6e-7,8.035443 z"
         transform="matrix(1.1,0,0,1.1,1.1,0)" />
    </marker>
    <marker
       inkscape:stockid="Arrow2Lstart"
       orient="auto"
       refY="0"
       refX="0"
       id="Arrow2Lstart"
       style="overflow:visible"
       inkscape:isstock="true"
       inkscape:collect="always">
      <path
         inkscape:connector-curvature="0"
         id="path367984"
         style="fill:#000000;fill-opacity:1;fill-rule:evenodd;stroke:#000000;stroke-width:0.625;stroke-linejoin:round;stroke-opacity:1"
         d="M 8.7185878,4.0337352 -2.2072895,0.01601326 8.7185884,-4.0017078 c -1.7454984,2.3720609 -1.7354408,5.6174519 -6e-7,8.035443 z"
         transform="matrix(1.1,0,0,1.1,1.1,0)" />
    </marker>
    <marker
       inkscape:isstock="true"
       style="overflow:visible"
       id="marker408257"
       refX="0"
       refY="0"
       orient="auto"
       inkscape:stockid="Arrow2Lstart"
       inkscape:collect="always">
      <path
         inkscape:connector-curvature="0"
         transform="matrix(1.1,0,0,1.1,1.1,0)"
         d="M 8.7185878,4.0337352 -2.2072895,0.01601326 8.7185884,-4.0017078 c -1.7454984,2.3720609 -1.7354408,5.6174519 -6e-7,8.035443 z"
         style="fill:#000000;fill-opacity:1;fill-rule:evenodd;stroke:#000000;stroke-width:0.625;stroke-linejoin:round;stroke-opacity:1"
         id="path408259" />
    </marker>
    <marker
       inkscape:stockid="Arrow2Lstart"
       orient="auto"
       refY="0"
       refX="0"
       id="marker408263"
       style="overflow:visible"
       inkscape:isstock="true">
      <path
         inkscape:connector-curvature="0"
         id="path408265"
         style="fill:#000000;fill-opacity:1;fill-rule:evenodd;stroke:#000000;stroke-width:0.625;stroke-linejoin:round;stroke-opacity:1"
         d="M 8.7185878,4.0337352 -2.2072895,0.01601326 8.7185884,-4.0017078 c -1.7454984,2.3720609 -1.7354408,5.6174519 -6e-7,8.035443 z"
         transform="matrix(1.1,0,0,1.1,1.1,0)" />
    </marker>
  </defs>
  <metadata
     id="metadata32792">
    <rdf:RDF>
      <cc:Work
         rdf:about="">
        <dc:format>image/svg+xml</dc:format>
        <dc:type
           rdf:resource="http://purl.org/dc/dcmitype/StillImage" />
        <dc:title></dc:title>
      </cc:Work>
    </rdf:RDF>
  </metadata>
  <g
     inkscape:label="Ebene 1"
     inkscape:groupmode="layer"
     id="layer1"
     transform="translate(-30.860606,-506.86026)">
    <g
       id="g34672">
      <path
         sodipodi:nodetypes="cssc"
         inkscape:connector-curvature="0"
         id="path408327"
         d="m 345.58378,672.00836 c -0.1008,-6.69576 9.36947,-16.21296 18.7031,-19.61316 9.33362,-3.40021 22.83321,-3.07581 32.26312,0.22137 9.42993,3.29718 18.49629,12.16911 18.58801,18.86491"
         style="color:#000000;display:inline;overflow:visible;visibility:visible;fill:none;fill-rule:evenodd;stroke:#0066ff;stroke-width:1.16368413;stroke-linecap:butt;stroke-linejoin:miter;stroke-miterlimit:4;stroke-dasharray:1.1636841, 1.1636841;stroke-dashoffset:0;stroke-opacity:1;marker:none;enable-background:accumulate" />
      <path
         transform="scale(-1,-1)"
         sodipodi:open="true"
         d="m -350.14155,-671.91138 a 30.317526,18.737261 0 0 1 -14.92112,16.31606 30.317526,18.737261 0 0 1 -30.32366,0.16652 30.317526,18.737261 0 0 1 -15.38787,-16.14962"
         sodipodi:end="3.133126"
         sodipodi:start="6.2738818"
         sodipodi:ry="18.737261"
         sodipodi:rx="30.317526"
         sodipodi:cy="-671.73706"
         sodipodi:cx="-380.45776"
         sodipodi:type="arc"
         id="path408325"
         style="color:#000000;display:inline;overflow:visible;visibility:visible;fill:none;fill-rule:evenodd;stroke:#0066ff;stroke-width:1.16368413;stroke-linecap:butt;stroke-linejoin:miter;stroke-miterlimit:4;stroke-dasharray:1.1636841, 1.1636841;stroke-dashoffset:0;stroke-opacity:0.51136361;marker:none;enable-background:accumulate" />
      <path
         style="color:#000000;display:inline;overflow:visible;visibility:visible;fill:none;fill-rule:evenodd;stroke:#0066ff;stroke-width:1.16368413;stroke-linecap:butt;stroke-linejoin:miter;stroke-miterlimit:4;stroke-dasharray:1.1636841, 1.1636841;stroke-dashoffset:0;stroke-opacity:1;marker:none;enable-background:accumulate"
         id="path408323"
         sodipodi:type="arc"
         sodipodi:cx="-251.60814"
         sodipodi:cy="-670.57153"
         sodipodi:rx="30.317526"
         sodipodi:ry="18.737261"
         sodipodi:start="6.2738818"
         sodipodi:end="3.133126"
         d="m -221.29193,-670.74585 a 30.317526,18.737261 0 0 1 -14.92112,16.31605 30.317526,18.737261 0 0 1 -30.32365,0.16652 30.317526,18.737261 0 0 1 -15.38788,-16.14961"
         sodipodi:open="true"
         transform="scale(-1,-1)" />
      <path
         transform="scale(-1,-1)"
         sodipodi:open="true"
         d="m -92.986688,-669.10016 a 30.317526,18.737261 0 0 1 -14.921122,16.31605 30.317526,18.737261 0 0 1 -30.32366,0.16652 30.317526,18.737261 0 0 1 -15.38787,-16.14961"
         sodipodi:end="3.133126"
         sodipodi:start="6.2738818"
         sodipodi:ry="18.737261"
         sodipodi:rx="30.317526"
         sodipodi:cy="-668.92584"
         sodipodi:cx="-123.3029"
         sodipodi:type="arc"
         id="path408321"
         style="color:#000000;display:inline;overflow:visible;visibility:visible;fill:none;fill-rule:evenodd;stroke:#0066ff;stroke-width:1.16368413;stroke-linecap:butt;stroke-linejoin:miter;stroke-miterlimit:4;stroke-dasharray:1.1636841, 1.1636841;stroke-dashoffset:0;stroke-opacity:1;marker:none;enable-background:accumulate" />
      <path
         sodipodi:nodetypes="cc"
         inkscape:connector-curvature="0"
         id="path408315"
         d="m 121.67329,593.15743 0.70221,38.5693"
         style="color:#000000;display:inline;overflow:visible;visibility:visible;fill:none;fill-rule:evenodd;stroke:#000000;stroke-width:0.81673455;stroke-linecap:butt;stroke-linejoin:miter;stroke-miterlimit:4;stroke-dasharray:none;stroke-dashoffset:0;stroke-opacity:1;marker:none;marker-start:url(#marker408317);enable-background:accumulate" />
      <path
         style="color:#000000;display:inline;overflow:visible;visibility:visible;fill:none;fill-rule:evenodd;stroke:#0066ff;stroke-width:1.16368413;stroke-linecap:butt;stroke-linejoin:miter;stroke-miterlimit:4;stroke-dasharray:none;stroke-dashoffset:0;stroke-opacity:1;marker:none;enable-background:accumulate"
         id="path408103"
         sodipodi:type="arc"
         sodipodi:cx="123.30173"
         sodipodi:cy="668.40448"
         sodipodi:rx="30.317526"
         sodipodi:ry="18.737261"
         sodipodi:start="6.2738818"
         sodipodi:end="3.133126"
         d="m 153.61794,668.23016 a 30.317526,18.737261 0 0 1 -14.92112,16.31606 30.317526,18.737261 0 0 1 -30.32366,0.16652 30.317526,18.737261 0 0 1 -15.387872,-16.14962"
         sodipodi:open="true" />
      <path
         inkscape:connector-curvature="0"
         style="color:#000000;display:inline;overflow:visible;visibility:visible;fill:none;fill-opacity:1;fill-rule:evenodd;stroke:#e70e56;stroke-width:1.16368413;stroke-linecap:butt;stroke-linejoin:miter;stroke-miterlimit:4;stroke-dasharray:none;stroke-dashoffset:0;stroke-opacity:1;marker:none;enable-background:accumulate"
         d="m 153.61082,668.67898 0,-127.56573"
         id="path408105"
         sodipodi:nodetypes="cc" />
      <path
         id="path408107"
         d="m 92.964599,669.64674 0,-127.56573"
         style="color:#000000;display:inline;overflow:visible;visibility:visible;fill:none;fill-opacity:1;fill-rule:evenodd;stroke:#e70e56;stroke-width:1.16368413;stroke-linecap:butt;stroke-linejoin:miter;stroke-miterlimit:4;stroke-dasharray:none;stroke-dashoffset:0;stroke-opacity:1;marker:none;enable-background:accumulate"
         inkscape:connector-curvature="0"
         sodipodi:nodetypes="cc" />
      <ellipse
         ry="18.737261"
         rx="30.317526"
         cy="542.86829"
         cx="123.3525"
         id="ellipse408109"
         style="color:#000000;display:inline;overflow:visible;visibility:visible;fill:none;fill-rule:evenodd;stroke:#0066ff;stroke-width:1.16368413;stroke-linecap:butt;stroke-linejoin:miter;stroke-miterlimit:4;stroke-dasharray:none;stroke-dashoffset:0;stroke-opacity:1;marker:none;enable-background:accumulate" />
      <path
         sodipodi:open="true"
         d="m 282.0111,669.78173 a 30.317526,18.737261 0 0 1 -14.92113,16.31606 30.317526,18.737261 0 0 1 -30.32365,0.16652 30.317526,18.737261 0 0 1 -15.38787,-16.14962"
         sodipodi:end="3.133126"
         sodipodi:start="6.2738818"
         sodipodi:ry="18.737261"
         sodipodi:rx="30.317526"
         sodipodi:cy="669.95605"
         sodipodi:cx="251.69489"
         sodipodi:type="arc"
         id="path408121"
         style="color:#000000;display:inline;overflow:visible;visibility:visible;fill:none;fill-rule:evenodd;stroke:#0066ff;stroke-width:1.16368413;stroke-linecap:butt;stroke-linejoin:miter;stroke-miterlimit:4;stroke-dasharray:none;stroke-dashoffset:0;stroke-opacity:1;marker:none;enable-background:accumulate" />
      <path
         sodipodi:nodetypes="cscsc"
         id="path408123"
         d="m 282.00396,670.23056 c 0,0 1.14231,-27.06943 0,-33.55705 -2.56048,-14.54193 -22.64241,-30.95124 -22.64241,-30.95124 0,0 17.57739,-15.58045 22.64241,-28.78454 1.06088,-2.76561 0,-34.2729 0,-34.2729"
         style="color:#000000;display:inline;overflow:visible;visibility:visible;fill:none;fill-opacity:1;fill-rule:evenodd;stroke:#e70e56;stroke-width:1.16368413;stroke-linecap:butt;stroke-linejoin:miter;stroke-miterlimit:4;stroke-dasharray:none;stroke-dashoffset:0;stroke-opacity:1;marker:none;enable-background:accumulate"
         inkscape:connector-curvature="0" />
      <path
         sodipodi:nodetypes="cscsc"
         inkscape:connector-curvature="0"
         style="color:#000000;display:inline;overflow:visible;visibility:visible;fill:none;fill-opacity:1;fill-rule:evenodd;stroke:#e70e56;stroke-width:1.16368413;stroke-linecap:butt;stroke-linejoin:miter;stroke-miterlimit:4;stroke-dasharray:none;stroke-dashoffset:0;stroke-opacity:1;marker:none;enable-background:accumulate"
         d="m 221.35772,671.19832 c 0,0 -1.3253,-31.9014 0,-37.04612 3.29059,-12.7738 18.25507,-29.1274 18.25507,-29.1274 0,0 -15.07699,-15.38247 -18.25507,-28.28102 -0.93749,-3.80493 0,-33.11119 0,-33.11119"
         id="path408125" />
      <ellipse
         style="color:#000000;display:inline;overflow:visible;visibility:visible;fill:none;fill-rule:evenodd;stroke:#0066ff;stroke-width:1.16368413;stroke-linecap:butt;stroke-linejoin:miter;stroke-miterlimit:4;stroke-dasharray:none;stroke-dashoffset:0;stroke-opacity:1;marker:none;enable-background:accumulate"
         id="ellipse408127"
         cx="251.74565"
         cy="544.41986"
         rx="30.317526"
         ry="18.737261" />
      <path
         sodipodi:nodetypes="czzc"
         inkscape:connector-curvature="0"
         id="path408188"
         d="m 229.57369,617.78766 c 1.6457,-2.19428 12.66507,-10.08976 16.39714,-11.4434 3.73208,-1.35364 5.00465,-0.75884 9.08562,-1.7143 4.08098,-0.95546 15.55926,-10.4282 15.55926,-10.4282"
         style="fill:none;fill-rule:evenodd;stroke:#e70e56;stroke-width:1.16368413;stroke-linecap:butt;stroke-linejoin:miter;stroke-miterlimit:4;stroke-dasharray:none;stroke-opacity:1" />
      <path
         sodipodi:nodetypes="czc"
         inkscape:connector-curvature="0"
         id="path408190"
         d="m 261.32194,583.948 c 0,0 -4.13315,11.30969 -8.09824,14.81816 -3.96509,3.50846 -13.57011,6.02734 -13.57011,6.02734"
         style="fill:none;fill-rule:evenodd;stroke:#e70e56;stroke-width:1.16368413;stroke-linecap:butt;stroke-linejoin:miter;stroke-miterlimit:4;stroke-dasharray:none;stroke-opacity:1" />
      <path
         sodipodi:nodetypes="czzc"
         inkscape:connector-curvature="0"
         id="path408192"
         d="m 259.5391,605.71921 c -1.4057,0.65139 -2.84675,3.02903 -5.75994,4.97137 -2.9132,1.94235 -5.26652,0.23588 -8.50277,2.05712 -3.23626,1.82125 -5.07424,6.17137 -5.07424,6.17137"
         style="fill:none;fill-rule:evenodd;stroke:#e70e56;stroke-width:1.16368413;stroke-linecap:butt;stroke-linejoin:miter;stroke-miterlimit:4;stroke-dasharray:none;stroke-opacity:1" />
      <path
         sodipodi:nodetypes="cc"
         inkscape:connector-curvature="0"
         id="path408194"
         d="m 256.38485,608.0849 c 0,0 4.73138,5.27994 4.93709,8.22849"
         style="fill:none;fill-rule:evenodd;stroke:#e70e56;stroke-width:1.16368413;stroke-linecap:butt;stroke-linejoin:miter;stroke-miterlimit:4;stroke-dasharray:none;stroke-opacity:1" />
      <path
         sodipodi:nodetypes="cc"
         inkscape:connector-curvature="0"
         id="path408196"
         d="m 245.43848,602.55907 c -4.73138,-4.18283 -7.70488,-10.93115 -7.70488,-10.93115"
         style="fill:none;fill-rule:evenodd;stroke:#e70e56;stroke-width:1.16368413;stroke-linecap:butt;stroke-linejoin:miter;stroke-miterlimit:4;stroke-dasharray:none;stroke-opacity:1" />
      <path
         style="color:#000000;display:inline;overflow:visible;visibility:visible;fill:none;fill-rule:evenodd;stroke:#0066ff;stroke-width:1.16368413;stroke-linecap:butt;stroke-linejoin:miter;stroke-miterlimit:4;stroke-dasharray:1.1636841, 1.1636841;stroke-dashoffset:0;stroke-opacity:0.51136361;marker:none;enable-background:accumulate"
         id="path408198"
         sodipodi:type="arc"
         sodipodi:cx="380.47592"
         sodipodi:cy="671.11969"
         sodipodi:rx="30.317526"
         sodipodi:ry="18.737261"
         sodipodi:start="6.2738818"
         sodipodi:end="3.133126"
         d="m 410.79214,670.94537 a 30.317526,18.737261 0 0 1 -14.92113,16.31606 30.317526,18.737261 0 0 1 -30.32365,0.16652 30.317526,18.737261 0 0 1 -15.38788,-16.14962"
         sodipodi:open="true" />
      <path
         inkscape:connector-curvature="0"
         style="color:#000000;display:inline;overflow:visible;visibility:visible;fill:none;fill-opacity:1;fill-rule:evenodd;stroke:#e70e56;stroke-width:1.16368413;stroke-linecap:butt;stroke-linejoin:miter;stroke-miterlimit:4;stroke-dasharray:none;stroke-dashoffset:0;stroke-opacity:0.64772728;marker:none;enable-background:accumulate"
         d="m 410.785,671.39424 c 0,0 1.14231,-27.06942 0,-33.55704 -2.56049,-14.54194 -23.90706,-30.72615 -30.84421,-30.94802 -13.70926,-0.43852 -26.51145,15.6529 -29.80203,28.4267 -1.3253,5.14473 0,37.04612 0,37.04612"
         id="path408200"
         sodipodi:nodetypes="csssc" />
      <path
         style="fill:none;fill-rule:evenodd;stroke:#e70e56;stroke-width:1.16368413;stroke-linecap:butt;stroke-linejoin:miter;stroke-miterlimit:4;stroke-dasharray:none;stroke-opacity:1"
         d="m 379.32762,606.81187 c 2.38318,0.63184 4.13102,2.35091 6.23994,7.95421"
         id="path408212"
         inkscape:connector-curvature="0"
         sodipodi:nodetypes="cc" />
      <path
         style="fill:none;fill-rule:evenodd;stroke:#e70e56;stroke-width:1.16368413;stroke-linecap:butt;stroke-linejoin:miter;stroke-miterlimit:4;stroke-dasharray:none;stroke-opacity:1"
         d="m 369.54147,615.84733 c 2.16778,-5.93149 7.84601,-8.8009 7.84601,-8.8009"
         id="path408214"
         inkscape:connector-curvature="0"
         sodipodi:nodetypes="cc" />
      <path
         sodipodi:nodetypes="cc"
         inkscape:connector-curvature="0"
         id="path408216"
         d="m 375.86721,613.24165 c 2.16778,-5.93149 2.27858,-5.25388 3.34529,-6.22362"
         style="fill:none;fill-rule:evenodd;stroke:#e70e56;stroke-width:1.16368413;stroke-linecap:butt;stroke-linejoin:miter;stroke-miterlimit:4;stroke-dasharray:none;stroke-opacity:1" />
      <path
         sodipodi:nodetypes="csssc"
         id="path408220"
         d="m 346.79395,555.82451 c 0,0 3.12453,12.71732 4.26684,19.20493 2.56048,14.54194 23.03447,30.16929 26.96526,31.14198 5.69192,1.40852 27.48118,-20.30765 30.77177,-33.08145 1.3253,-5.14472 1.93947,-17.06954 1.93947,-17.06954"
         style="color:#000000;display:inline;overflow:visible;visibility:visible;fill:none;fill-opacity:1;fill-rule:evenodd;stroke:#000000;stroke-width:1.16368413;stroke-linecap:butt;stroke-linejoin:miter;stroke-miterlimit:4;stroke-dasharray:2.3273682, 1.1636841;stroke-dashoffset:0;stroke-opacity:1;marker:none;enable-background:accumulate"
         inkscape:connector-curvature="0" />
      <path
         sodipodi:nodetypes="cc"
         inkscape:connector-curvature="0"
         id="path408222"
         d="m 378.63922,606.24872 c -2.38318,-0.63184 -4.71287,-7.19959 -6.82178,-12.80289"
         style="fill:none;fill-rule:evenodd;stroke:#000000;stroke-width:1.16368413;stroke-linecap:butt;stroke-linejoin:miter;stroke-miterlimit:4;stroke-dasharray:2.3273682, 1.1636841;stroke-dashoffset:0;stroke-opacity:1" />
      <path
         sodipodi:nodetypes="cc"
         inkscape:connector-curvature="0"
         id="path408224"
         d="m 390.75274,591.39484 c -2.16778,5.93149 -10.17338,14.61932 -10.17338,14.61932"
         style="fill:none;fill-rule:evenodd;stroke:#000000;stroke-width:1.16368413;stroke-linecap:butt;stroke-linejoin:miter;stroke-miterlimit:4;stroke-dasharray:2.3273682, 1.1636841;stroke-dashoffset:0;stroke-opacity:1" />
      <path
         style="fill:none;fill-rule:evenodd;stroke:#000000;stroke-width:1.16368413;stroke-linecap:butt;stroke-linejoin:miter;stroke-miterlimit:4;stroke-dasharray:2.3273682, 1.1636841;stroke-dashoffset:0;stroke-opacity:1"
         d="m 380.35411,595.74605 c -2.16778,5.93149 -0.53306,9.32677 -1.59977,10.29651"
         id="path408226"
         inkscape:connector-curvature="0"
         sodipodi:nodetypes="cc" />
      <ellipse
         ry="18.737261"
         rx="32.257"
         cy="554.50513"
         cx="378.9751"
         id="ellipse408228"
         style="color:#000000;display:inline;overflow:visible;visibility:visible;fill:none;fill-rule:evenodd;stroke:#000000;stroke-width:1.16368413;stroke-linecap:butt;stroke-linejoin:miter;stroke-miterlimit:4;stroke-dasharray:2.3273682, 1.1636841;stroke-dashoffset:0;stroke-opacity:1;marker:none;enable-background:accumulate" />
      <path
         sodipodi:nodetypes="cssc"
         inkscape:connector-curvature="0"
         id="path408232"
         d="m 415.43835,669.99033 c -0.26089,8.74005 -6.44383,14.80695 -17.20791,19.21045 -10.76409,4.4035 -24.09589,4.48569 -34.971,0.21563 -10.87513,-4.27006 -17.64042,-9.29477 -17.7462,-17.96631"
         style="color:#000000;display:inline;overflow:visible;visibility:visible;fill:none;fill-rule:evenodd;stroke:#0066ff;stroke-width:1.16368413;stroke-linecap:butt;stroke-linejoin:miter;stroke-miterlimit:4;stroke-dasharray:none;stroke-dashoffset:0;stroke-opacity:1;marker:none;enable-background:accumulate" />
      <path
         sodipodi:nodetypes="csssc"
         id="path408230"
         d="m 415.43973,671.39424 c 0,0 1.14231,-27.06942 0,-33.55704 -2.56048,-14.54194 -28.56179,-30.72615 -35.49894,-30.94802 -13.70926,-0.43852 -31.16618,15.6529 -34.45677,28.4267 -1.3253,5.14473 0,37.04612 0,37.04612"
         style="color:#000000;display:inline;overflow:visible;visibility:visible;fill:none;fill-opacity:1;fill-rule:evenodd;stroke:#e70e56;stroke-width:1.16368413;stroke-linecap:butt;stroke-linejoin:miter;stroke-miterlimit:4;stroke-dasharray:none;stroke-dashoffset:0;stroke-opacity:1;marker:none;enable-background:accumulate"
         inkscape:connector-curvature="0" />
      <path
         sodipodi:nodetypes="csssc"
         inkscape:connector-curvature="0"
         id="ellipse408237"
         d="m 250.19555,535.45429 c -9.93103,0.24213 -18.2286,-2.53621 -20.80684,-8.46844 -2.57823,-5.93219 1.83152,-12.17729 10.62221,-15.04317 8.79069,-2.86589 19.62049,-1.58905 26.0868,3.07558 6.46631,4.66466 6.8465,11.4745 0.91578,16.40352"
         style="color:#000000;display:inline;overflow:visible;visibility:visible;fill:none;fill-rule:evenodd;stroke:#000000;stroke-width:0.81673455;stroke-linecap:butt;stroke-linejoin:miter;stroke-miterlimit:4;stroke-dasharray:none;stroke-dashoffset:0;stroke-opacity:1;marker:none;marker-start:url(#Arrow2Lstart);enable-background:accumulate" />
      <path
         style="color:#000000;display:inline;overflow:visible;visibility:visible;fill:none;fill-rule:evenodd;stroke:#000000;stroke-width:0.81673455;stroke-linecap:butt;stroke-linejoin:miter;stroke-miterlimit:4;stroke-dasharray:none;stroke-dashoffset:0;stroke-opacity:1;marker:none;marker-start:url(#marker408257);enable-background:accumulate"
         d="m 337.72273,646.2646 c -12.66875,-16.93133 -9.76668,-56.10951 5.29806,-73.15182"
         id="path408255"
         inkscape:connector-curvature="0"
         sodipodi:nodetypes="cc" />
      <path
         sodipodi:nodetypes="cc"
         inkscape:connector-curvature="0"
         id="path408261"
         d="m 424.16835,645.71604 c 12.66875,-16.93133 9.76668,-56.10951 -5.29806,-73.15182"
         style="color:#000000;display:inline;overflow:visible;visibility:visible;fill:none;fill-rule:evenodd;stroke:#000000;stroke-width:0.81673455;stroke-linecap:butt;stroke-linejoin:miter;stroke-miterlimit:4;stroke-dasharray:none;stroke-dashoffset:0;stroke-opacity:1;marker:none;marker-start:url(#marker408263);enable-background:accumulate" />
      <path
         sodipodi:nodetypes="zcz"
         id="path408271"
         d="m 514.54233,685.41764 c 32.20428,-3.88321 32.25006,-61.42177 -6.07456,-76.01592 -50.31005,32.6069 -26.12971,79.89914 6.07456,76.01592 z"
         style="color:#000000;display:inline;overflow:visible;visibility:visible;fill:none;fill-opacity:1;fill-rule:evenodd;stroke:#e70e56;stroke-width:1.16368413;stroke-linecap:butt;stroke-linejoin:miter;stroke-miterlimit:4;stroke-dasharray:none;stroke-dashoffset:0;stroke-opacity:0.63920456;marker:none;enable-background:accumulate"
         inkscape:connector-curvature="0" />
      <path
         sodipodi:nodetypes="cc"
         inkscape:connector-curvature="0"
         id="path408273"
         d="m 508.80009,609.62744 c 2.38318,0.63184 4.13102,2.35091 6.23994,7.95421"
         style="fill:none;fill-rule:evenodd;stroke:#e70e56;stroke-width:1.16368413;stroke-linecap:butt;stroke-linejoin:miter;stroke-miterlimit:4;stroke-dasharray:none;stroke-opacity:1" />
      <path
         sodipodi:nodetypes="cc"
         inkscape:connector-curvature="0"
         id="path408275"
         d="m 499.717,618.59017 c 2.16778,-5.93149 8.03995,-8.89787 8.03995,-8.89787"
         style="fill:none;fill-rule:evenodd;stroke:#e70e56;stroke-width:1.16368413;stroke-linecap:butt;stroke-linejoin:miter;stroke-miterlimit:4;stroke-dasharray:none;stroke-opacity:1" />
      <path
         style="fill:none;fill-rule:evenodd;stroke:#e70e56;stroke-width:1.16368413;stroke-linecap:butt;stroke-linejoin:miter;stroke-miterlimit:4;stroke-dasharray:none;stroke-opacity:1"
         d="m 505.67908,615.936 c 2.16778,-5.93149 2.27859,-5.25387 3.3453,-6.22361"
         id="path408277"
         inkscape:connector-curvature="0"
         sodipodi:nodetypes="cc" />
      <path
         inkscape:connector-curvature="0"
         style="color:#000000;display:inline;overflow:visible;visibility:visible;fill:none;fill-opacity:1;fill-rule:evenodd;stroke:#e70e56;stroke-width:1.16368413;stroke-linecap:butt;stroke-linejoin:miter;stroke-miterlimit:4;stroke-dasharray:none;stroke-dashoffset:0;stroke-opacity:1;marker:none;enable-background:accumulate"
         d="m 512.53227,692.0532 c 30.77296,-1.33742 48.79913,-57.40353 -3.96753,-82.95454 -64.94878,32.51466 -26.80543,84.29196 3.96753,82.95454 z"
         id="path408281"
         sodipodi:nodetypes="zcz" />
      <circle
         r="26.380508"
         cy="656.07709"
         cx="123.09271"
         id="path408356"
         style="color:#000000;display:inline;overflow:visible;visibility:visible;opacity:1;fill:#000000;fill-opacity:0.55113639;fill-rule:evenodd;stroke:none;stroke-width:0.74558067px;stroke-linecap:butt;stroke-linejoin:miter;stroke-miterlimit:4;stroke-dasharray:none;stroke-dashoffset:0;stroke-opacity:0.39488639;marker:none;enable-background:accumulate" />
      <circle
         style="color:#000000;display:inline;overflow:visible;visibility:visible;opacity:1;fill:#000000;fill-opacity:0.55113639;fill-rule:evenodd;stroke:none;stroke-width:0.74558067px;stroke-linecap:butt;stroke-linejoin:miter;stroke-miterlimit:4;stroke-dasharray:none;stroke-dashoffset:0;stroke-opacity:0.39488639;marker:none;enable-background:accumulate"
         id="circle408358"
         cx="251.87375"
         cy="656.07709"
         r="26.380508" />
      <circle
         r="26.380508"
         cy="656.07709"
         cx="380.65479"
         id="circle408360"
         style="color:#000000;display:inline;overflow:visible;visibility:visible;opacity:1;fill:#000000;fill-opacity:0.55113639;fill-rule:evenodd;stroke:none;stroke-width:0.74558067px;stroke-linecap:butt;stroke-linejoin:miter;stroke-miterlimit:4;stroke-dasharray:none;stroke-dashoffset:0;stroke-opacity:0.39488639;marker:none;enable-background:accumulate" />
      <circle
         style="color:#000000;display:inline;overflow:visible;visibility:visible;opacity:1;fill:#000000;fill-opacity:0.55113639;fill-rule:evenodd;stroke:none;stroke-width:0.74558067px;stroke-linecap:butt;stroke-linejoin:miter;stroke-miterlimit:4;stroke-dasharray:none;stroke-dashoffset:0;stroke-opacity:0.39488639;marker:none;enable-background:accumulate"
         id="circle408362"
         cx="509.43582"
         cy="656.07709"
         r="26.380508" />
      <circle
         r="26.949795"
         cy="656.07709"
         cx="638.21686"
         id="circle408414"
         style="color:#000000;display:inline;overflow:visible;visibility:visible;opacity:1;fill:none;fill-opacity:0.40340911;fill-rule:evenodd;stroke:#e70e56;stroke-width:1.16368413;stroke-linecap:butt;stroke-linejoin:miter;stroke-miterlimit:4;stroke-dasharray:none;stroke-dashoffset:0;stroke-opacity:0.53409095;marker:none;enable-background:accumulate" />
      <circle
         style="color:#000000;display:inline;overflow:visible;visibility:visible;opacity:1;fill:none;fill-opacity:0.40340911;fill-rule:evenodd;stroke:#e70e56;stroke-width:1.16368413;stroke-linecap:butt;stroke-linejoin:miter;stroke-miterlimit:4;stroke-dasharray:none;stroke-dashoffset:0;stroke-opacity:1;marker:none;enable-background:accumulate"
         id="circle408416"
         cx="638.21686"
         cy="656.07709"
         r="28.157433" />
      <circle
         style="color:#000000;display:inline;overflow:visible;visibility:visible;opacity:1;fill:#000000;fill-opacity:0.55113639;fill-rule:evenodd;stroke:none;stroke-width:3;stroke-linecap:butt;stroke-linejoin:miter;stroke-miterlimit:4;stroke-dasharray:none;stroke-dashoffset:0;stroke-opacity:0.53409095;marker:none;enable-background:accumulate"
         id="circle408418"
         cx="638.21686"
         cy="656.07709"
         r="26.380508" />
    </g>
    <g
       transform="matrix(2.2038045,0,0,2.2038045,-261.45445,230.38353)"
       ns:text="$T^2$\n"
       ns:preamble="/home/shark/PhD/inkscape/inkscape-header.tex"
       id="g35306">
      <defs
         id="defs35308">
        <g
           id="g35310">
          <symbol
             style="overflow:visible"
             overflow="visible"
             id="textext-f0459952-0">
            <path
               inkscape:connector-curvature="0"
               style="stroke:none"
               d=""
               id="path35313" />
          </symbol>
          <symbol
             style="overflow:visible"
             overflow="visible"
             id="textext-f0459952-1">
            <path
               inkscape:connector-curvature="0"
               style="stroke:none"
               d="M 6.734375,-4.734375 7,-6.46875 C 7.015625,-6.515625 7.015625,-6.609375 7.015625,-6.640625 7.015625,-6.75 6.921875,-6.75 6.75,-6.75 l -5.53125,0 c -0.234375,0 -0.25,0.015625 -0.328125,0.203125 l -0.59375,1.75 c 0,0.015625 -0.0625,0.1875 -0.0625,0.1875 0,0.046875 0.0625,0.109375 0.125,0.109375 0.09375,0 0.109375,-0.0625 0.171875,-0.21875 C 1.0625,-6.265625 1.328125,-6.4375 2.796875,-6.4375 l 0.390625,0 c 0.28125,0 0.28125,0.03125 0.28125,0.125 0,0.046875 -0.03125,0.171875 -0.046875,0.203125 L 2.09375,-0.78125 C 2,-0.421875 1.96875,-0.3125 0.90625,-0.3125 c -0.359375,0 -0.421875,0 -0.421875,0.1875 C 0.484375,0 0.59375,0 0.65625,0 0.921875,0 1.203125,-0.015625 1.46875,-0.015625 L 2.328125,-0.03125 3.15625,-0.015625 C 3.4375,-0.015625 3.734375,0 4.015625,0 c 0.09375,0 0.21875,0 0.21875,-0.203125 0,-0.109375 -0.078125,-0.109375 -0.34375,-0.109375 -0.234375,0 -0.375,0 -0.625,-0.015625 -0.296875,-0.03125 -0.375,-0.0625 -0.375,-0.21875 0,0 0,-0.0625 0.046875,-0.203125 L 4.25,-6.046875 c 0.078125,-0.28125 0.109375,-0.34375 0.234375,-0.375 0.09375,-0.015625 0.421875,-0.015625 0.625,-0.015625 1.015625,0 1.453125,0.03125 1.453125,0.8125 0,0.15625 -0.03125,0.546875 -0.078125,0.796875 0,0.046875 -0.03125,0.15625 -0.03125,0.1875 0,0.0625 0.03125,0.140625 0.125,0.140625 0.109375,0 0.125,-0.078125 0.15625,-0.234375 z m 0,0"
               id="path35316" />
          </symbol>
          <symbol
             style="overflow:visible"
             overflow="visible"
             id="textext-f0459952-2">
            <path
               inkscape:connector-curvature="0"
               style="stroke:none"
               d=""
               id="path35319" />
          </symbol>
          <symbol
             style="overflow:visible"
             overflow="visible"
             id="textext-f0459952-3">
            <path
               inkscape:connector-curvature="0"
               style="stroke:none"
               d="m 3.515625,-1.265625 -0.234375,0 c -0.015625,0.15625 -0.09375,0.5625 -0.1875,0.625 -0.046875,0.046875 -0.578125,0.046875 -0.6875,0.046875 l -1.28125,0 c 0.734375,-0.640625 0.984375,-0.84375 1.390625,-1.171875 0.515625,-0.40625 1,-0.84375 1,-1.5 0,-0.84375 -0.734375,-1.359375 -1.625,-1.359375 -0.859375,0 -1.453125,0.609375 -1.453125,1.25 0,0.34375 0.296875,0.390625 0.375,0.390625 0.15625,0 0.359375,-0.125 0.359375,-0.375 0,-0.125 -0.046875,-0.375 -0.40625,-0.375 C 0.984375,-4.21875 1.453125,-4.375 1.78125,-4.375 c 0.703125,0 1.0625,0.546875 1.0625,1.109375 0,0.609375 -0.4375,1.078125 -0.65625,1.328125 L 0.515625,-0.265625 C 0.4375,-0.203125 0.4375,-0.1875 0.4375,0 l 2.875,0 z m 0,0"
               id="path35322" />
          </symbol>
        </g>
      </defs>
      <g
         id="textext-f0459952-4">
        <g
           style="fill:#000000;fill-opacity:1"
           id="g35325">
          <use
             height="100%"
             width="100%"
             xlink:href="#textext-f0459952-1"
             x="133.76801"
             y="134.765"
             id="use35327" />
        </g>
        <g
           style="fill:#000000;fill-opacity:1"
           id="g35329">
          <use
             height="100%"
             width="100%"
             xlink:href="#textext-f0459952-3"
             x="140.974"
             y="131.149"
             id="use35331" />
        </g>
      </g>
    </g>
    <g
       id="g36569"
       transform="matrix(2.156349,0,0,2.156349,-255.70175,398.84122)"
       ns:preamble="/home/shark/PhD/inkscape/inkscape-header.tex"
       ns:text="$S^2$\n">
      <defs
         id="defs36571">
        <g
           id="g36573">
          <symbol
             id="textext-b59af0fa-0"
             overflow="visible"
             style="overflow:visible">
            <path
               id="path36576"
               d=""
               style="stroke:none"
               inkscape:connector-curvature="0" />
          </symbol>
          <symbol
             id="textext-b59af0fa-1"
             overflow="visible"
             style="overflow:visible">
            <path
               id="path36579"
               d="m 5.515625,-2.34375 c 0,-0.6875 -0.34375,-1.03125 -0.484375,-1.171875 C 4.796875,-3.734375 4.640625,-3.78125 3.765625,-4 L 3.09375,-4.1875 c -0.265625,-0.09375 -0.609375,-0.375 -0.609375,-0.90625 0,-0.8125 0.796875,-1.65625 1.75,-1.65625 0.8125,0 1.421875,0.4375 1.421875,1.546875 0,0.3125 -0.03125,0.5 -0.03125,0.5625 0,0 0,0.09375 0.109375,0.09375 0.109375,0 0.125,-0.03125 0.15625,-0.203125 L 6.4375,-6.921875 c 0,-0.03125 -0.03125,-0.109375 -0.125,-0.109375 -0.046875,0 -0.046875,0.015625 -0.171875,0.15625 L 5.65625,-6.3125 c -0.25,-0.46875 -0.765625,-0.71875 -1.421875,-0.71875 -1.265625,0 -2.453125,1.15625 -2.453125,2.359375 0,0.796875 0.515625,1.265625 1.03125,1.40625 l 1.0625,0.28125 c 0.375,0.09375 0.921875,0.25 0.921875,1.0625 0,0.890625 -0.8125,1.828125 -1.796875,1.828125 -0.640625,0 -1.75,-0.21875 -1.75,-1.453125 0,-0.234375 0.0625,-0.484375 0.0625,-0.53125 C 1.328125,-2.125 1.328125,-2.15625 1.328125,-2.15625 c 0,-0.09375 -0.0625,-0.109375 -0.109375,-0.109375 -0.046875,0 -0.078125,0.015625 -0.109375,0.046875 -0.03125,0.03125 -0.59375,2.3125 -0.59375,2.34375 0,0.046875 0.046875,0.09375 0.109375,0.09375 0.046875,0 0.0625,-0.015625 0.1875,-0.15625 L 1.296875,-0.5 c 0.421875,0.578125 1.109375,0.71875 1.6875,0.71875 1.359375,0 2.53125,-1.328125 2.53125,-2.5625 z m 0,0"
               style="stroke:none"
               inkscape:connector-curvature="0" />
          </symbol>
          <symbol
             id="textext-b59af0fa-2"
             overflow="visible"
             style="overflow:visible">
            <path
               id="path36582"
               d=""
               style="stroke:none"
               inkscape:connector-curvature="0" />
          </symbol>
          <symbol
             id="textext-b59af0fa-3"
             overflow="visible"
             style="overflow:visible">
            <path
               id="path36585"
               d="m 3.515625,-1.265625 -0.234375,0 c -0.015625,0.15625 -0.09375,0.5625 -0.1875,0.625 -0.046875,0.046875 -0.578125,0.046875 -0.6875,0.046875 l -1.28125,0 c 0.734375,-0.640625 0.984375,-0.84375 1.390625,-1.171875 0.515625,-0.40625 1,-0.84375 1,-1.5 0,-0.84375 -0.734375,-1.359375 -1.625,-1.359375 -0.859375,0 -1.453125,0.609375 -1.453125,1.25 0,0.34375 0.296875,0.390625 0.375,0.390625 0.15625,0 0.359375,-0.125 0.359375,-0.375 0,-0.125 -0.046875,-0.375 -0.40625,-0.375 C 0.984375,-4.21875 1.453125,-4.375 1.78125,-4.375 c 0.703125,0 1.0625,0.546875 1.0625,1.109375 0,0.609375 -0.4375,1.078125 -0.65625,1.328125 L 0.515625,-0.265625 C 0.4375,-0.203125 0.4375,-0.1875 0.4375,0 l 2.875,0 z m 0,0"
               style="stroke:none"
               inkscape:connector-curvature="0" />
          </symbol>
        </g>
      </defs>
      <g
         id="textext-b59af0fa-4">
        <g
           id="g36588"
           style="fill:#000000;fill-opacity:1">
          <use
             id="use36590"
             y="134.765"
             x="133.76801"
             xlink:href="#textext-b59af0fa-1"
             width="100%"
             height="100%" />
        </g>
        <g
           id="g36592"
           style="fill:#000000;fill-opacity:1">
          <use
             id="use36594"
             y="131.149"
             x="140.452"
             xlink:href="#textext-b59af0fa-3"
             width="100%"
             height="100%" />
        </g>
      </g>
    </g>
    <path
       style="fill:none;fill-rule:evenodd;stroke:#000000;stroke-width:1;stroke-linecap:butt;stroke-linejoin:miter;stroke-miterlimit:4;stroke-dasharray:2, 1;stroke-dashoffset:0;stroke-opacity:1;marker-end:"
       d="m 65.783455,526.18635 30.206291,9.19239"
       id="path37213"
       inkscape:connector-curvature="0"
       sodipodi:nodetypes="cc" />
    <path
       style="fill:none;fill-rule:evenodd;stroke:#000000;stroke-width:1;stroke-linecap:butt;stroke-linejoin:miter;stroke-miterlimit:4;stroke-dasharray:2, 1;stroke-dashoffset:0;stroke-opacity:1;marker-end:"
       d="m 65.783455,682.54534 45.939415,-9.8995"
       id="path37215"
       inkscape:connector-curvature="0"
       sodipodi:nodetypes="cc" />
  </g>
</svg>
